{"glyphs":{"0":{"ha":832,"x_min":33,"x_max":801,"o":"m 771 753 q 801 515 801 656 q 771 278 801 378 q 736 186 756 229 q 692 111 717 143 q 635 55 667 79 q 568 13 603 31 q 494 -12 533 -4 q 415 -19 456 -19 q 338 -12 376 -19 q 265 13 299 -4 q 199 55 231 31 q 143 111 168 79 q 97 186 117 143 q 61 278 78 229 q 40 388 47 329 q 33 515 33 446 q 61 753 33 650 q 97 844 78 801 q 143 919 117 888 q 199 976 168 951 q 265 1018 231 1000 q 338 1042 299 1035 q 415 1050 376 1050 q 494 1042 456 1050 q 568 1018 533 1035 q 635 976 603 1000 q 692 919 667 951 q 736 844 717 888 q 771 753 756 801 m 492 149 q 524 174 510 157 q 553 211 539 190 q 596 329 581 254 q 613 515 613 400 q 596 701 613 628 q 553 819 581 776 q 524 856 539 840 q 492 882 510 872 q 415 899 451 899 q 342 882 381 899 q 309 856 324 872 q 281 819 294 840 q 239 701 253 775 q 222 515 222 628 q 239 329 222 400 q 281 211 253 256 q 309 174 294 190 q 342 149 324 157 q 415 132 381 132 q 492 149 451 132 z "},"1":{"ha":832,"x_min":111,"x_max":561,"o":"m 561 1049 l 561 0 l 379 0 l 379 744 q 380 778 379 761 q 382 814 381 796 l 217 678 l 111 794 l 113 794 l 413 1049 l 561 1049 z "},"2":{"ha":832,"x_min":58,"x_max":776,"o":"m 776 0 l 58 0 l 58 103 l 407 453 q 444 492 426 472 q 478 529 463 511 q 506 566 493 549 q 531 601 519 583 q 549 638 542 621 q 563 675 557 656 q 574 753 574 713 q 563 818 574 789 q 532 865 553 847 q 485 894 514 883 q 424 904 460 904 q 318 872 361 904 q 285 835 299 857 q 261 785 271 813 q 254 763 257 774 q 249 743 251 751 q 244 725 246 733 l 76 751 l 76 753 q 118 886 86 828 q 196 981 150 943 q 303 1038 244 1019 q 433 1057 365 1057 q 565 1036 507 1057 q 668 975 629 1013 q 735 881 711 936 q 760 758 760 826 q 742 651 760 697 q 697 557 725 603 q 665 513 682 535 q 629 471 649 492 q 590 428 610 450 q 550 385 571 407 l 319 150 q 350 158 335 154 q 381 164 365 161 q 413 168 397 167 q 444 169 429 169 l 776 169 l 776 0 z "},"3":{"ha":832,"x_min":53,"x_max":776,"o":"m 731 457 q 776 303 776 396 q 749 165 776 228 q 669 64 719 106 q 556 1 622 24 q 418 -19 490 -19 q 344 -15 379 -19 q 281 -1 310 -10 q 179 53 224 17 q 106 140 135 89 q 77 195 90 165 q 53 258 64 225 l 53 260 l 211 324 q 222 294 217 310 q 236 263 228 281 q 257 225 244 246 q 276 199 265 213 q 297 176 286 186 q 347 146 321 156 q 417 133 376 133 q 494 149 460 133 q 551 186 529 164 q 571 211 563 199 q 585 239 579 224 q 596 297 596 269 q 588 365 596 333 q 556 417 578 397 q 483 450 531 438 q 357 463 438 463 l 356 463 l 356 593 l 357 593 q 465 604 421 593 q 533 636 507 615 q 569 685 558 657 q 576 715 574 700 q 579 749 579 731 q 539 860 579 822 q 431 897 499 897 q 326 864 365 897 q 268 778 285 831 q 263 760 265 771 q 258 740 261 750 q 253 717 256 729 l 83 744 l 83 746 q 125 878 94 822 q 203 974 156 933 q 310 1031 251 1013 q 440 1050 372 1050 q 571 1029 513 1050 q 671 972 628 1008 q 733 886 713 935 q 756 779 756 838 q 753 732 756 754 q 744 690 751 710 q 713 625 735 653 q 660 576 692 596 q 594 546 632 558 q 731 457 683 518 z "},"4":{"ha":832,"x_min":28,"x_max":807,"o":"m 807 397 l 807 256 l 675 256 l 675 0 l 515 0 l 515 256 l 104 256 l 28 400 l 508 1047 l 675 1047 l 675 397 l 807 397 m 515 397 l 515 736 q 515 747 515 742 q 518 760 515 753 l 518 786 q 519 810 519 793 q 520 822 519 815 q 521 835 521 828 l 204 397 l 515 397 z "},"5":{"ha":831,"x_min":58,"x_max":756,"o":"m 733 478 q 756 353 756 421 q 726 200 756 268 q 644 82 699 133 q 521 7 593 35 q 365 -19 451 -19 q 318 -17 342 -19 q 272 -10 294 -15 q 230 2 250 -4 q 190 17 210 8 q 153 36 171 26 q 118 57 135 46 q 60 103 85 78 l 58 104 l 149 229 q 169 215 160 221 q 185 203 178 208 q 199 194 193 197 q 242 169 219 181 q 299 144 264 156 q 376 132 329 132 q 461 149 425 132 q 524 192 497 163 q 561 260 549 221 q 574 344 574 297 q 525 476 574 428 q 381 524 474 524 q 229 496 306 524 l 228 496 l 115 528 l 115 529 l 203 1038 l 719 1038 l 719 878 l 329 878 l 292 658 q 358 669 326 665 q 418 672 390 672 q 564 647 501 672 q 669 579 624 625 q 733 478 713 536 z "},"6":{"ha":832,"x_min":53,"x_max":783,"o":"m 758 469 q 783 332 783 411 q 757 196 783 257 q 682 83 729 131 q 628 41 658 60 q 565 8 599 22 q 414 -19 494 -19 q 334 -13 372 -19 q 264 7 296 -7 q 150 82 194 35 q 78 199 103 129 q 53 349 53 265 q 82 500 53 422 q 120 579 97 539 q 175 661 143 619 l 456 1038 l 683 1038 l 681 1035 l 371 657 q 361 644 365 650 q 353 633 357 639 q 339 617 347 628 q 399 638 364 628 q 475 646 432 646 q 533 642 504 646 q 590 626 563 638 q 689 568 647 607 q 758 469 731 528 m 603 319 q 599 362 603 342 q 589 399 596 382 q 550 460 574 436 q 490 497 525 483 q 413 510 454 510 q 373 506 392 510 q 336 496 354 503 q 278 456 300 481 q 256 428 265 443 q 239 396 246 413 q 226 321 226 360 q 238 243 226 281 q 272 182 251 206 q 331 143 296 158 q 367 133 347 136 q 410 129 388 129 q 488 144 450 129 q 549 183 522 157 q 571 212 561 197 q 588 244 581 226 q 603 319 603 279 z "},"7":{"ha":832,"x_min":75,"x_max":781,"o":"m 781 1039 l 781 917 l 343 0 l 147 0 l 149 3 l 540 793 q 566 838 553 817 q 594 878 579 860 l 75 878 l 75 1039 l 781 1039 z "},"8":{"ha":832,"x_min":51,"x_max":779,"o":"m 733 443 q 779 286 779 378 q 753 160 779 219 q 678 64 725 103 q 563 1 631 25 q 415 -19 496 -19 q 267 1 333 -19 q 153 64 201 24 q 78 160 104 103 q 51 286 51 219 q 97 443 51 378 q 235 538 143 507 q 125 626 160 569 q 86 767 86 683 q 111 878 86 828 q 179 968 133 929 q 282 1028 219 1004 q 415 1049 342 1049 q 549 1028 488 1049 q 604 1002 578 1017 q 651 968 631 988 q 719 878 697 929 q 744 767 744 828 q 706 626 744 688 q 596 538 669 569 q 733 443 688 507 m 492 135 q 522 150 508 142 q 547 169 536 158 q 581 222 571 193 q 592 289 592 250 q 546 417 592 375 q 415 461 497 461 q 285 417 333 461 q 239 289 239 375 q 250 222 239 250 q 283 169 260 193 q 308 150 294 158 q 339 135 322 142 q 415 122 372 122 q 492 135 458 122 m 347 899 q 322 885 333 892 q 300 867 310 878 q 272 819 281 844 q 264 764 264 794 q 265 734 264 749 q 271 704 267 719 q 296 653 281 675 q 343 618 317 629 q 415 604 371 604 q 488 618 460 604 q 535 653 514 629 q 560 704 550 675 q 567 764 567 736 q 558 819 567 794 q 531 867 549 843 q 509 885 521 878 q 483 899 497 892 q 415 911 454 911 q 347 899 376 911 z "},"9":{"ha":832,"x_min":61,"x_max":767,"o":"m 743 851 q 767 711 767 785 q 758 619 767 663 q 748 576 754 597 q 735 536 742 556 q 697 458 717 493 q 649 382 675 419 l 378 0 l 150 0 l 153 3 l 476 407 q 488 422 483 414 q 499 436 493 429 q 507 447 503 442 q 515 458 511 453 q 481 440 499 447 q 443 428 463 433 q 351 415 399 415 q 244 435 299 415 q 151 492 192 454 q 86 586 111 529 q 61 717 61 640 q 88 849 61 785 q 161 957 113 910 q 274 1029 208 1004 q 419 1057 340 1057 q 564 1032 499 1057 q 623 1001 596 1018 q 672 960 650 983 q 743 851 717 917 m 344 894 q 290 858 311 881 q 270 832 279 846 q 256 801 261 818 q 243 731 243 769 q 288 599 243 646 q 414 554 332 554 q 490 567 457 554 q 547 604 525 582 q 582 660 568 625 q 593 729 593 693 q 581 804 593 771 q 544 861 568 838 q 518 881 532 872 q 488 896 504 889 q 417 908 456 908 q 344 894 379 908 z "}," ":{"ha":315,"x_min":0,"x_max":0,"o":""},"!":{"ha":514,"x_min":131,"x_max":385,"o":"m 161 863 l 154 1056 l 360 1056 l 353 863 l 324 350 l 190 350 l 161 863 m 257 -19 q 167 19 203 -19 q 131 114 131 57 q 167 209 131 171 q 257 247 203 247 q 348 209 311 247 q 385 114 385 171 q 348 19 385 57 q 257 -19 311 -19 z "},"\"":{"ha":799,"x_min":121,"x_max":676,"o":"m 128 890 l 121 1083 l 329 1083 l 322 890 l 282 592 l 168 592 l 128 890 m 475 890 l 468 1083 l 676 1083 l 669 890 l 629 592 l 515 592 l 475 890 z "},"#":{"ha":818,"x_min":54,"x_max":771,"o":"m 172 301 l 54 301 l 54 433 l 188 433 l 211 624 l 86 624 l 86 757 l 228 757 l 263 1024 l 393 1024 l 360 757 l 515 757 l 550 1024 l 682 1024 l 650 757 l 771 757 l 771 624 l 633 624 l 610 433 l 739 433 l 739 301 l 594 301 l 558 0 l 422 0 l 460 301 l 306 301 l 268 0 l 133 0 l 172 301 m 475 433 l 499 624 l 343 624 l 319 433 l 475 433 z "},"$":{"ha":874,"x_min":74,"x_max":794,"o":"m 383 1 q 216 42 296 8 q 74 143 136 76 l 183 276 q 277 207 224 235 q 383 169 331 179 l 383 440 l 311 468 q 239 507 275 485 q 174 561 203 529 q 126 634 144 593 q 108 729 108 675 q 128 828 108 782 q 183 910 147 875 q 270 970 219 946 q 383 1003 321 994 l 383 1149 l 513 1149 l 513 1004 q 642 967 579 994 q 756 889 704 940 l 651 768 q 513 842 590 825 l 513 572 l 590 543 q 671 502 633 524 q 736 451 708 481 q 779 384 764 422 q 794 294 794 346 q 717 101 794 174 q 513 7 639 29 l 513 -142 l 383 -142 l 383 1 m 618 281 q 590 343 618 322 q 513 386 563 364 l 513 175 q 553 188 533 181 q 587 208 572 196 q 610 237 601 219 q 618 281 618 254 m 285 736 q 313 673 285 703 q 383 628 340 643 l 383 840 q 313 801 340 829 q 285 736 285 774 z "},"%":{"ha":1249,"x_min":43,"x_max":1199,"o":"m 43 763 l 43 776 q 110 963 43 899 q 286 1028 178 1028 q 384 1012 339 1028 q 463 966 429 996 q 515 891 496 936 q 535 786 535 846 l 535 767 q 515 660 535 707 q 463 581 496 614 q 384 533 429 549 q 286 517 339 517 q 110 580 178 517 q 43 763 43 643 m 375 763 l 375 786 q 352 897 375 864 q 286 929 329 929 q 217 897 240 929 q 193 792 193 865 l 193 763 q 217 651 193 683 q 286 619 240 619 q 354 651 333 619 q 375 763 375 683 m 871 1038 l 1008 1038 l 356 6 l 214 6 l 871 1038 m 711 289 l 711 308 q 730 414 711 368 q 781 492 749 460 q 858 541 814 525 q 956 557 903 557 q 1131 495 1064 557 q 1199 318 1199 433 l 1199 299 q 1131 114 1199 181 q 956 47 1064 47 q 778 110 846 47 q 711 289 711 172 m 1047 289 l 1047 318 q 1024 425 1047 393 q 956 457 1001 457 q 888 425 908 457 q 868 318 868 393 l 868 289 q 888 180 868 214 q 956 146 908 146 q 1024 178 1001 146 q 1047 289 1047 210 z "},"&":{"ha":989,"x_min":46,"x_max":974,"o":"m 49 267 q 60 369 46 322 q 102 453 75 415 q 169 520 129 490 q 256 574 208 550 q 190 678 211 628 q 167 783 168 728 q 185 894 164 846 q 243 974 206 942 q 331 1024 281 1007 q 440 1042 382 1040 q 634 989 560 1047 q 713 825 708 931 q 699 733 715 774 q 654 660 683 693 q 585 599 625 626 q 499 549 544 572 l 706 315 q 767 514 758 399 l 915 518 q 877 350 908 431 q 801 203 846 269 l 974 13 l 758 13 l 692 85 q 570 14 639 40 q 425 -15 501 -12 q 151 50 250 -22 q 49 267 53 122 m 608 181 l 339 485 q 253 407 286 450 q 222 296 219 364 q 278 161 225 210 q 432 117 331 113 q 528 135 485 118 q 608 181 571 151 m 408 650 l 421 633 q 514 707 474 663 q 553 813 554 751 q 521 894 551 865 q 449 922 490 924 q 367 890 399 919 q 339 800 336 861 q 358 723 340 760 q 408 650 376 686 z "},"'":{"ha":451,"x_min":121,"x_max":329,"o":"m 128 890 l 121 1083 l 329 1083 l 322 890 l 282 592 l 168 592 l 128 890 z "},"(":{"ha":525,"x_min":118,"x_max":453,"o":"m 325 -224 q 172 112 226 -62 q 118 496 118 286 q 172 878 118 704 q 325 1214 226 1053 l 453 1160 q 324 837 365 1007 q 283 496 283 667 q 324 153 283 322 q 453 -169 365 -17 l 325 -224 z "},")":{"ha":525,"x_min":72,"x_max":407,"o":"m 72 -169 q 201 153 160 -17 q 242 496 242 322 q 201 837 242 667 q 72 1160 160 1007 l 199 1214 q 353 878 299 1053 q 407 496 407 704 q 352 112 407 286 q 199 -224 297 -62 l 72 -169 z "},"*":{"ha":703,"x_min":68,"x_max":635,"o":"m 142 644 l 233 803 l 68 876 l 101 979 l 279 939 l 297 1122 l 407 1122 l 424 939 l 601 979 l 635 876 l 468 803 l 561 644 l 474 581 l 351 719 l 229 581 l 142 644 z "},"+":{"ha":818,"x_min":53,"x_max":765,"o":"m 333 447 l 53 447 l 53 592 l 333 592 l 333 888 l 485 888 l 485 592 l 765 592 l 765 447 l 485 447 l 485 151 l 333 151 l 333 447 z "},",":{"ha":329,"x_min":26,"x_max":275,"o":"m 83 150 l 275 150 l 172 -140 l 26 -140 l 83 150 z "},"-":{"ha":628,"x_min":68,"x_max":561,"o":"m 68 592 l 561 592 l 561 446 l 68 446 l 68 592 z "},".":{"ha":451,"x_min":99,"x_max":353,"o":"m 225 -19 q 135 19 171 -19 q 99 114 99 57 q 135 209 99 171 q 225 247 171 247 q 317 209 281 247 q 353 114 353 171 q 317 19 353 57 q 225 -19 281 -19 z "},"/":{"ha":551,"x_min":17,"x_max":513,"o":"m 371 1188 l 513 1188 l 158 -183 l 17 -183 l 371 1188 z "},":":{"ha":451,"x_min":99,"x_max":353,"o":"m 225 508 q 135 546 171 508 q 99 640 99 583 q 135 736 99 699 q 225 774 171 774 q 317 736 281 774 q 353 640 353 699 q 317 546 353 583 q 225 508 281 508 m 225 -19 q 135 19 171 -19 q 99 114 99 57 q 135 209 99 171 q 225 247 171 247 q 317 209 281 247 q 353 114 353 171 q 317 19 353 57 q 225 -19 281 -19 z "},";":{"ha":451,"x_min":74,"x_max":379,"o":"m 225 508 q 135 546 171 508 q 99 640 99 583 q 135 736 99 699 q 225 774 171 774 q 317 736 281 774 q 353 640 353 699 q 317 546 353 583 q 225 508 281 508 m 74 -185 q 197 -105 154 -154 q 240 6 240 -56 l 228 6 q 139 37 178 6 q 100 126 100 68 q 139 215 100 182 q 232 247 178 247 q 341 194 303 247 q 379 46 379 142 q 311 -165 379 -76 q 117 -296 243 -254 l 74 -185 z "},"<":{"ha":657,"x_min":53,"x_max":594,"o":"m 53 417 l 53 571 l 594 951 l 594 769 l 214 496 l 594 228 l 594 36 l 53 417 z "},"=":{"ha":818,"x_min":53,"x_max":765,"o":"m 53 772 l 765 772 l 765 626 l 53 626 l 53 772 m 53 413 l 765 413 l 765 267 l 53 267 l 53 413 z "},">":{"ha":661,"x_min":67,"x_max":608,"o":"m 67 36 l 67 228 l 447 496 l 67 769 l 67 951 l 608 571 l 608 417 l 67 36 z "},"?":{"ha":714,"x_min":38,"x_max":646,"o":"m 335 -19 q 244 19 281 -19 q 208 114 208 57 q 244 209 208 171 q 335 247 281 247 q 426 209 390 247 q 463 114 463 171 q 426 19 463 57 q 335 -19 390 -19 m 629 893 q 642 849 639 871 q 646 807 646 828 q 632 699 646 739 q 613 658 622 676 q 590 625 603 640 q 540 574 568 596 q 489 528 514 553 q 463 504 475 517 q 442 476 451 492 q 425 444 431 463 q 415 403 419 426 l 413 347 l 256 347 l 256 413 q 276 513 260 472 q 315 583 292 553 q 364 633 335 608 q 388 652 376 642 q 410 674 399 663 q 428 697 419 685 q 444 721 438 708 q 456 751 451 735 q 461 788 461 768 q 452 846 461 821 q 428 886 443 871 q 346 921 400 921 q 283 906 310 921 q 261 885 272 896 q 243 864 250 875 q 228 835 233 850 q 219 806 222 821 q 211 757 211 782 l 38 757 q 44 816 39 788 q 58 871 50 844 q 85 929 69 901 q 119 979 100 957 q 161 1019 139 1001 q 211 1049 183 1038 q 271 1068 240 1061 q 336 1075 301 1075 q 483 1049 422 1075 q 578 981 543 1022 q 629 893 614 942 z "},"@":{"ha":1399,"x_min":78,"x_max":1321,"o":"m 664 -264 q 440 -228 546 -264 q 253 -119 333 -192 q 125 65 172 -46 q 78 322 78 175 q 133 618 78 485 q 284 847 189 751 q 506 993 379 942 q 774 1044 632 1044 q 1000 1004 899 1044 q 1173 891 1101 964 q 1283 717 1244 818 q 1321 494 1321 615 q 1289 307 1321 388 q 1207 173 1257 226 q 1095 92 1157 119 q 974 65 1033 65 q 858 96 907 65 q 797 185 808 126 l 794 185 q 755 142 778 161 q 707 108 732 122 q 656 87 682 94 q 604 79 629 79 q 458 142 514 79 q 401 313 401 204 q 425 450 401 382 q 490 572 449 518 q 590 660 532 626 q 715 693 647 693 q 786 674 756 693 q 836 615 817 656 l 839 615 l 861 681 l 988 681 l 919 342 q 994 193 883 193 q 1065 214 1031 193 q 1128 273 1100 235 q 1172 365 1156 311 q 1189 488 1189 419 q 1164 653 1189 575 q 1086 791 1139 732 q 952 884 1033 850 q 757 918 871 918 q 558 876 654 918 q 385 758 461 835 q 263 572 308 681 q 217 328 217 463 q 253 124 217 211 q 353 -21 290 38 q 501 -108 417 -79 q 681 -137 586 -137 q 809 -119 744 -137 q 924 -74 874 -101 l 969 -187 q 823 -246 899 -228 q 664 -264 747 -264 m 647 208 q 702 226 675 208 q 763 286 729 244 l 803 508 q 721 560 772 560 q 653 537 683 560 q 601 479 622 514 q 567 403 579 444 q 556 324 556 361 q 581 237 556 265 q 647 208 607 208 z "},"A":{"ha":890,"x_min":-6,"x_max":896,"o":"m 564 424 l 533 536 q 488 703 510 617 q 443 872 467 789 l 438 872 q 396 702 418 788 q 350 536 374 617 l 319 424 l 564 424 m 608 264 l 275 264 l 203 0 l -6 0 l 324 1028 l 565 1028 l 896 0 l 681 0 l 608 264 z "},"B":{"ha":946,"x_min":126,"x_max":892,"o":"m 126 1028 l 467 1028 q 614 1015 546 1028 q 732 974 682 1003 q 810 896 782 944 q 839 775 839 847 q 829 704 839 739 q 801 640 819 669 q 758 587 783 610 q 699 553 732 564 l 699 546 q 837 467 782 526 q 892 303 892 407 q 861 168 892 225 q 777 74 831 111 q 651 18 724 36 q 493 0 578 0 l 126 0 l 126 1028 m 451 610 q 594 646 550 610 q 639 744 639 682 q 593 842 639 813 q 454 871 547 871 l 332 871 l 332 610 l 451 610 m 475 158 q 636 197 581 158 q 692 315 692 235 q 637 424 692 390 q 475 457 582 457 l 332 457 l 332 158 l 475 158 z "},"C":{"ha":913,"x_min":75,"x_max":874,"o":"m 546 -19 q 363 15 449 -19 q 213 117 276 50 q 112 282 149 183 q 75 510 75 381 q 113 736 75 636 q 217 906 151 836 q 369 1011 282 975 q 553 1047 456 1047 q 728 1008 651 1047 q 854 915 804 968 l 746 785 q 661 847 707 822 q 557 871 615 871 q 449 847 499 871 q 363 776 399 822 q 306 665 326 731 q 285 517 285 600 q 303 367 285 433 q 358 253 322 300 q 442 183 393 207 q 553 158 492 158 q 672 187 619 158 q 765 260 724 215 l 874 132 q 728 19 810 57 q 546 -19 646 -19 z "},"D":{"ha":992,"x_min":126,"x_max":917,"o":"m 126 1028 l 408 1028 q 620 997 526 1028 q 780 903 714 967 q 881 744 846 840 q 917 518 917 649 q 881 292 917 389 q 781 130 846 194 q 625 33 717 65 q 419 0 533 0 l 126 0 l 126 1028 m 396 165 q 526 185 468 165 q 624 248 583 206 q 685 357 664 290 q 707 518 707 424 q 685 678 707 613 q 624 785 664 744 q 526 845 583 826 q 396 864 468 864 l 332 864 l 332 165 l 396 165 z "},"E":{"ha":854,"x_min":126,"x_max":772,"o":"m 126 1028 l 757 1028 l 757 857 l 332 857 l 332 619 l 693 619 l 693 447 l 332 447 l 332 172 l 772 172 l 772 0 l 126 0 l 126 1028 z "},"F":{"ha":813,"x_min":126,"x_max":760,"o":"m 126 1028 l 760 1028 l 760 857 l 332 857 l 332 589 l 697 589 l 697 417 l 332 417 l 332 0 l 126 0 l 126 1028 z "},"G":{"ha":996,"x_min":75,"x_max":901,"o":"m 568 -19 q 372 15 463 -19 q 216 117 282 50 q 113 282 150 183 q 75 510 75 381 q 114 736 75 636 q 219 906 153 836 q 376 1011 286 975 q 568 1047 465 1047 q 758 1007 679 1047 q 886 915 836 967 l 776 785 q 692 846 739 821 q 575 871 646 871 q 458 847 511 871 q 366 776 404 822 q 306 665 328 731 q 285 517 285 600 q 361 253 285 349 q 589 158 438 158 q 661 168 626 158 q 718 197 696 178 l 718 400 l 536 400 l 536 568 l 901 568 l 901 104 q 763 17 849 53 q 568 -19 676 -19 z "},"H":{"ha":1051,"x_min":126,"x_max":925,"o":"m 126 1028 l 332 1028 l 332 624 l 721 624 l 721 1028 l 925 1028 l 925 0 l 721 0 l 721 444 l 332 444 l 332 0 l 126 0 l 126 1028 z "},"I":{"ha":458,"x_min":126,"x_max":332,"o":"m 126 1028 l 332 1028 l 332 0 l 126 0 l 126 1028 z "},"J":{"ha":789,"x_min":31,"x_max":668,"o":"m 350 -19 q 160 26 238 -19 q 31 161 83 71 l 172 265 q 242 183 203 208 q 325 158 281 158 q 428 200 393 158 q 463 349 463 242 l 463 1028 l 668 1028 l 668 332 q 649 196 668 260 q 592 84 631 132 q 493 8 553 36 q 350 -19 433 -19 z "},"K":{"ha":953,"x_min":126,"x_max":958,"o":"m 126 1028 l 332 1028 l 332 582 l 336 582 l 676 1028 l 903 1028 l 589 624 l 958 0 l 732 0 l 467 461 l 332 289 l 332 0 l 126 0 l 126 1028 z "},"L":{"ha":801,"x_min":126,"x_max":749,"o":"m 126 1028 l 332 1028 l 332 172 l 749 172 l 749 0 l 126 0 l 126 1028 z "},"M":{"ha":1186,"x_min":126,"x_max":1060,"o":"m 126 1028 l 354 1028 l 529 547 q 561 449 546 499 q 592 349 576 399 l 599 349 q 630 449 615 399 q 661 547 644 499 l 832 1028 l 1060 1028 l 1060 0 l 872 0 l 872 429 q 875 509 872 465 q 881 598 878 553 q 889 687 885 643 q 897 767 893 731 l 892 767 l 808 525 l 650 93 l 532 93 l 372 525 l 290 767 l 285 767 q 293 687 289 731 q 301 598 297 643 q 308 509 306 553 q 311 429 311 465 l 311 0 l 126 0 l 126 1028 z "},"N":{"ha":1040,"x_min":126,"x_max":913,"o":"m 126 1028 l 336 1028 l 635 481 l 738 258 l 744 258 q 727 435 736 339 q 718 618 718 531 l 718 1028 l 913 1028 l 913 0 l 704 0 l 407 550 l 303 771 l 296 771 q 312 594 303 688 q 321 413 321 501 l 321 0 l 126 0 l 126 1028 z "},"O":{"ha":1069,"x_min":75,"x_max":994,"o":"m 535 -19 q 348 17 432 -19 q 203 124 264 54 q 108 294 142 194 q 75 518 75 393 q 108 742 75 643 q 203 908 142 840 q 348 1012 264 976 q 535 1047 432 1047 q 721 1011 636 1047 q 867 908 806 975 q 961 742 928 840 q 994 518 994 643 q 961 294 994 393 q 867 124 928 194 q 721 17 806 54 q 535 -19 636 -19 m 535 158 q 638 183 592 158 q 717 256 685 208 q 767 369 750 303 q 785 518 785 436 q 717 778 785 685 q 535 871 650 871 q 352 778 419 871 q 285 518 285 685 q 302 369 285 436 q 352 256 319 303 q 431 183 385 208 q 535 158 478 158 z "},"P":{"ha":926,"x_min":126,"x_max":867,"o":"m 126 1028 l 464 1028 q 622 1012 549 1028 q 750 958 696 996 q 835 859 804 921 q 867 706 867 797 q 835 553 867 618 q 751 447 804 489 q 625 385 697 406 q 469 365 553 365 l 332 365 l 332 0 l 126 0 l 126 1028 m 456 528 q 665 706 665 528 q 610 831 665 796 q 449 865 556 865 l 332 865 l 332 528 l 456 528 z "},"Q":{"ha":1069,"x_min":75,"x_max":1039,"o":"m 285 518 q 352 247 285 344 q 535 149 419 149 q 717 247 650 149 q 785 518 785 344 q 717 778 785 685 q 535 871 650 871 q 352 778 419 871 q 285 518 285 685 m 1039 -249 q 968 -270 1013 -261 q 867 -279 924 -279 q 722 -259 788 -279 q 601 -203 656 -239 q 507 -119 547 -168 q 440 -11 467 -69 q 291 48 358 4 q 176 159 224 92 q 101 317 128 226 q 75 518 75 408 q 108 742 75 643 q 203 908 142 840 q 348 1012 264 976 q 535 1047 432 1047 q 721 1011 636 1047 q 867 908 806 975 q 961 742 928 840 q 994 518 994 643 q 970 325 994 413 q 902 171 946 238 q 796 60 858 104 q 657 -4 733 15 q 756 -88 693 -62 q 890 -114 819 -114 q 952 -109 924 -114 q 1003 -97 981 -104 l 1039 -249 z "},"R":{"ha":947,"x_min":126,"x_max":915,"o":"m 332 551 l 465 551 q 617 592 565 551 q 669 717 669 633 q 617 833 669 800 q 465 865 565 865 l 332 865 l 332 551 m 686 0 l 475 389 l 332 389 l 332 0 l 126 0 l 126 1028 l 485 1028 q 636 1013 565 1028 q 759 961 707 997 q 841 865 811 925 q 871 717 871 806 q 817 528 871 600 q 675 421 764 456 l 915 0 l 686 0 z "},"S":{"ha":867,"x_min":58,"x_max":811,"o":"m 433 -19 q 231 19 329 -19 q 58 131 133 58 l 176 272 q 301 190 232 221 q 438 158 369 158 q 560 190 518 158 q 601 276 601 222 q 590 325 601 306 q 559 360 579 344 q 510 389 539 376 q 447 417 482 401 l 310 475 q 233 515 271 492 q 167 572 196 539 q 119 649 138 606 q 101 750 101 693 q 128 867 101 813 q 201 962 154 922 q 314 1024 249 1001 q 457 1047 379 1047 q 632 1013 547 1047 q 779 915 717 979 l 675 786 q 574 849 626 826 q 457 871 521 871 q 349 842 389 871 q 308 763 308 814 q 322 715 308 735 q 356 678 335 694 q 407 648 378 661 q 469 622 436 635 l 604 565 q 755 459 699 526 q 811 292 811 392 q 785 172 811 229 q 711 73 760 115 q 592 6 663 31 q 433 -19 522 -19 z "},"T":{"ha":868,"x_min":42,"x_max":828,"o":"m 331 857 l 42 857 l 42 1028 l 828 1028 l 828 857 l 536 857 l 536 0 l 331 0 l 331 857 z "},"U":{"ha":1039,"x_min":121,"x_max":918,"o":"m 521 -19 q 353 8 426 -19 q 227 93 279 35 q 148 243 175 151 q 121 463 121 335 l 121 1028 l 326 1028 l 326 444 q 340 309 326 364 q 378 221 353 254 q 439 173 403 188 q 521 158 475 158 q 603 173 567 158 q 667 221 640 188 q 707 309 693 254 q 721 444 721 364 l 721 1028 l 918 1028 l 918 463 q 892 243 918 335 q 814 93 865 151 q 689 8 763 35 q 521 -19 615 -19 z "},"V":{"ha":858,"x_min":-7,"x_max":867,"o":"m -7 1028 l 208 1028 l 344 528 q 387 363 368 442 q 431 196 406 283 l 438 196 q 481 363 461 283 q 525 528 501 442 l 658 1028 l 867 1028 l 551 0 l 307 0 l -7 1028 z "},"W":{"ha":1271,"x_min":25,"x_max":1243,"o":"m 25 1028 l 235 1028 l 317 526 q 340 363 328 444 q 364 199 353 282 l 369 199 q 401 364 385 282 q 435 526 418 446 l 554 1028 l 729 1028 l 849 526 q 881 365 865 447 q 914 199 897 282 l 921 199 q 944 364 932 282 q 967 526 956 446 l 1047 1028 l 1243 1028 l 1053 0 l 797 0 l 682 508 q 658 628 669 569 q 638 746 647 688 l 632 746 q 610 628 621 688 q 588 508 600 569 l 475 0 l 224 0 l 25 1028 z "},"X":{"ha":871,"x_min":19,"x_max":851,"o":"m 308 531 l 38 1028 l 265 1028 l 368 817 q 403 742 386 781 q 444 654 421 703 l 451 654 q 487 742 471 703 q 519 817 503 781 l 617 1028 l 833 1028 l 563 521 l 851 0 l 624 0 l 508 228 q 470 309 489 268 q 428 397 451 350 l 422 397 q 385 309 403 350 q 347 228 367 268 l 238 0 l 19 0 l 308 531 z "},"Y":{"ha":807,"x_min":-8,"x_max":815,"o":"m 300 376 l -8 1028 l 210 1028 l 313 778 q 356 665 335 719 q 401 550 378 610 l 407 550 q 453 665 431 610 q 499 778 476 719 l 601 1028 l 815 1028 l 506 376 l 506 0 l 300 0 l 300 376 z "},"Z":{"ha":851,"x_min":60,"x_max":796,"o":"m 60 124 l 539 857 l 106 857 l 106 1028 l 790 1028 l 790 906 l 313 172 l 796 172 l 796 0 l 60 0 l 60 124 z "},"[":{"ha":525,"x_min":140,"x_max":458,"o":"m 140 1192 l 458 1192 l 458 1083 l 293 1083 l 293 -53 l 458 -53 l 458 -164 l 140 -164 l 140 1192 z "},"\\":{"ha":558,"x_min":39,"x_max":535,"o":"m 535 -183 l 393 -183 l 39 1188 l 181 1188 l 535 -183 z "},"]":{"ha":525,"x_min":67,"x_max":385,"o":"m 67 -53 l 232 -53 l 232 1083 l 67 1083 l 67 1192 l 385 1192 l 385 -164 l 67 -164 l 67 -53 z "},"^":{"ha":703,"x_min":83,"x_max":619,"o":"m 289 1025 l 418 1025 l 619 643 l 489 643 l 353 900 l 221 643 l 83 643 l 289 1025 z "},"_":{"ha":788,"x_min":19,"x_max":769,"o":"m 19 24 l 769 24 l 769 -96 l 19 -96 l 19 24 z "},"`":{"ha":869,"x_min":153,"x_max":531,"o":"m 153 1147 l 293 1283 l 531 1001 l 429 903 l 153 1147 z "},"a":{"ha":821,"x_min":71,"x_max":722,"o":"m 301 -19 q 206 -2 249 -19 q 134 47 164 15 q 88 119 104 78 q 71 211 71 161 q 177 405 71 336 q 518 499 283 474 q 487 595 515 557 q 386 633 458 633 q 279 613 332 633 q 172 560 226 592 l 99 694 q 250 767 168 738 q 424 797 332 797 q 647 710 572 797 q 722 454 722 624 l 722 0 l 556 0 l 540 83 l 536 83 q 426 10 485 39 q 301 -19 368 -19 m 368 140 q 447 160 413 140 q 518 217 482 181 l 518 374 q 399 350 447 364 q 321 317 350 336 q 278 276 292 299 q 265 228 265 254 q 294 161 265 182 q 368 140 324 140 z "},"b":{"ha":894,"x_min":110,"x_max":831,"o":"m 500 -19 q 394 7 447 -19 q 292 82 340 33 l 288 82 l 269 0 l 110 0 l 110 1108 l 313 1108 l 313 829 l 308 704 q 410 772 354 746 q 524 797 465 797 q 653 769 596 797 q 749 689 710 740 q 810 565 789 638 q 831 403 831 492 q 803 224 831 303 q 729 92 775 146 q 624 9 683 38 q 500 -19 564 -19 m 454 149 q 573 210 525 149 q 621 399 621 271 q 584 570 621 511 q 467 629 547 629 q 390 609 426 629 q 313 549 353 589 l 313 207 q 385 162 349 175 q 454 149 422 149 z "},"c":{"ha":732,"x_min":61,"x_max":694,"o":"m 440 -19 q 290 8 360 -19 q 170 88 221 36 q 90 216 119 140 q 61 388 61 292 q 94 561 61 485 q 181 690 126 638 q 307 769 235 742 q 458 797 379 797 q 586 772 531 797 q 685 711 642 747 l 588 579 q 530 617 558 604 q 468 631 501 631 q 324 565 379 631 q 269 388 269 499 q 324 213 269 278 q 463 147 378 147 q 543 165 504 147 q 614 210 582 182 l 694 75 q 572 3 639 26 q 440 -19 506 -19 z "},"d":{"ha":894,"x_min":65,"x_max":785,"o":"m 383 -19 q 252 8 311 -19 q 151 89 193 36 q 88 217 110 142 q 65 388 65 292 q 92 559 65 483 q 165 688 119 635 q 270 769 211 740 q 392 797 329 797 q 503 774 458 797 q 589 713 547 751 l 581 835 l 581 1108 l 785 1108 l 785 0 l 619 0 l 603 81 l 599 81 q 500 10 556 39 q 383 -19 444 -19 m 436 149 q 512 167 476 149 q 581 229 547 185 l 581 571 q 508 616 544 603 q 436 629 472 629 q 374 614 403 629 q 323 568 344 599 q 288 493 301 538 q 275 390 275 449 q 317 208 275 268 q 436 149 358 149 z "},"e":{"ha":807,"x_min":61,"x_max":749,"o":"m 447 -19 q 295 8 365 -19 q 173 88 225 36 q 91 216 121 140 q 61 388 61 292 q 92 558 61 482 q 173 687 122 633 q 289 769 224 740 q 424 797 354 797 q 565 769 504 797 q 666 692 625 742 q 728 574 707 642 q 749 425 749 506 q 746 372 749 397 q 739 332 743 346 l 260 332 q 330 187 272 236 q 475 138 388 138 q 566 151 524 138 q 650 192 608 165 l 719 67 q 591 3 661 26 q 447 -19 521 -19 m 574 467 q 538 592 574 546 q 426 639 501 639 q 317 595 365 639 q 257 467 268 551 l 574 467 z "},"f":{"ha":517,"x_min":40,"x_max":563,"o":"m 525 950 q 484 962 506 957 q 443 967 463 967 q 373 938 397 967 q 349 844 349 910 l 349 778 l 494 778 l 494 617 l 349 617 l 349 0 l 144 0 l 144 617 l 40 617 l 40 768 l 144 776 l 144 840 q 159 954 144 901 q 206 1045 174 1007 q 290 1106 239 1083 q 415 1128 342 1128 q 498 1119 460 1128 q 563 1100 536 1111 l 525 950 z "},"g":{"ha":829,"x_min":58,"x_max":806,"o":"m 383 -337 q 255 -326 314 -337 q 152 -289 196 -314 q 83 -226 108 -264 q 58 -137 58 -189 q 88 -48 58 -89 q 169 24 117 -7 l 169 31 q 119 81 139 50 q 99 161 99 113 q 124 244 99 206 q 185 307 150 282 l 185 313 q 113 394 144 342 q 82 515 82 447 q 108 636 82 583 q 177 725 133 689 q 277 779 221 761 q 396 797 333 797 q 458 792 428 797 q 513 778 489 786 l 793 778 l 793 628 l 660 628 q 685 577 675 608 q 696 510 696 546 q 672 395 696 444 q 608 313 649 346 q 513 263 568 279 q 396 246 458 246 q 347 251 372 246 q 296 264 321 256 q 271 235 279 250 q 263 197 263 221 q 289 149 263 165 q 385 133 315 133 l 517 133 q 732 88 658 133 q 806 -61 806 42 q 776 -170 806 -119 q 692 -258 747 -221 q 559 -317 638 -296 q 383 -337 481 -337 m 396 372 q 482 409 447 372 q 517 515 517 446 q 483 622 517 585 q 396 658 449 658 q 308 622 343 658 q 274 515 274 585 q 309 409 274 446 q 396 372 344 372 m 414 -208 q 556 -175 501 -208 q 611 -96 611 -142 q 578 -40 611 -54 q 482 -26 544 -26 l 388 -26 q 326 -24 351 -26 q 279 -15 300 -21 q 228 -106 228 -57 q 278 -181 228 -154 q 414 -208 328 -208 z "},"h":{"ha":889,"x_min":110,"x_max":789,"o":"m 110 1108 l 313 1108 l 313 829 l 304 683 q 410 763 351 728 q 549 797 469 797 q 732 715 675 797 q 789 485 789 632 l 789 0 l 585 0 l 585 460 q 559 586 585 550 q 475 622 533 622 q 392 600 426 622 q 313 535 357 578 l 313 0 l 110 0 l 110 1108 z "},"i":{"ha":422,"x_min":90,"x_max":333,"o":"m 110 778 l 313 778 l 313 0 l 110 0 l 110 778 m 213 903 q 125 934 160 903 q 90 1014 90 965 q 125 1094 90 1064 q 213 1125 160 1125 q 299 1094 265 1125 q 333 1014 333 1064 q 299 934 333 965 q 213 903 265 903 z "},"j":{"ha":424,"x_min":-75,"x_max":336,"o":"m 56 -318 q -20 -312 11 -318 q -75 -297 -51 -306 l -39 -146 q 25 -157 -6 -157 q 93 -124 75 -157 q 111 -25 111 -92 l 111 778 l 315 778 l 315 -19 q 302 -136 315 -82 q 259 -231 289 -190 q 179 -295 229 -272 q 56 -318 129 -318 m 214 903 q 126 934 161 903 q 92 1014 92 965 q 126 1094 92 1064 q 214 1125 161 1125 q 301 1094 267 1125 q 336 1014 336 1064 q 301 934 336 965 q 214 903 267 903 z "},"k":{"ha":840,"x_min":110,"x_max":831,"o":"m 110 1108 l 308 1108 l 308 442 l 314 442 l 583 778 l 806 778 l 536 460 l 831 0 l 610 0 l 421 322 l 308 194 l 308 0 l 110 0 l 110 1108 z "},"l":{"ha":431,"x_min":113,"x_max":313,"o":"m 113 0 l 113 1108 l 313 1108 l 313 0 l 113 0 z "},"m":{"ha":1339,"x_min":110,"x_max":1238,"o":"m 110 778 l 276 778 l 290 674 l 296 674 q 401 761 344 725 q 535 797 458 797 q 669 762 618 797 q 749 661 721 726 q 860 758 801 718 q 996 797 919 797 q 1179 715 1121 797 q 1238 485 1238 632 l 1238 0 l 1033 0 l 1033 460 q 1007 586 1033 550 q 925 622 981 622 q 775 535 858 622 l 775 0 l 571 0 l 571 460 q 544 586 571 550 q 463 622 518 622 q 313 535 396 622 l 313 0 l 110 0 l 110 778 z "},"n":{"ha":890,"x_min":110,"x_max":789,"o":"m 110 778 l 276 778 l 290 675 l 296 675 q 408 761 347 725 q 549 797 469 797 q 732 715 675 797 q 789 485 789 632 l 789 0 l 585 0 l 585 460 q 559 586 585 550 q 475 622 533 622 q 392 600 426 622 q 313 535 357 578 l 313 0 l 110 0 l 110 778 z "},"o":{"ha":869,"x_min":61,"x_max":808,"o":"m 435 -19 q 294 8 361 -19 q 175 88 226 36 q 92 216 124 140 q 61 388 61 292 q 92 561 61 485 q 175 690 124 638 q 294 769 226 742 q 435 797 361 797 q 575 769 507 797 q 694 690 643 742 q 777 561 746 638 q 808 388 808 485 q 777 216 808 292 q 694 88 746 140 q 575 8 643 36 q 435 -19 507 -19 m 435 147 q 557 213 514 147 q 600 388 600 278 q 557 565 600 499 q 435 631 514 631 q 313 565 356 631 q 269 388 269 499 q 313 213 269 278 q 435 147 356 147 z "},"p":{"ha":894,"x_min":110,"x_max":831,"o":"m 110 778 l 276 778 l 290 697 l 296 697 q 403 768 344 739 q 525 797 463 797 q 653 769 597 797 q 749 689 710 740 q 810 564 789 638 q 831 401 831 490 q 803 223 831 301 q 729 91 775 144 q 624 9 683 38 q 500 -19 564 -19 q 400 3 449 -19 q 307 65 351 25 l 313 -62 l 313 -299 l 110 -299 l 110 778 m 454 149 q 573 210 525 149 q 621 399 621 271 q 584 570 621 511 q 467 629 547 629 q 390 609 426 629 q 313 549 353 589 l 313 207 q 386 162 350 175 q 454 149 422 149 z "},"q":{"ha":894,"x_min":65,"x_max":785,"o":"m 581 -51 l 589 74 q 495 7 549 33 q 383 -19 442 -19 q 252 8 311 -19 q 151 89 193 36 q 88 217 110 142 q 65 388 65 292 q 92 559 65 483 q 165 688 119 635 q 270 769 211 740 q 392 797 329 797 q 506 774 457 797 q 603 701 556 750 l 608 701 l 625 778 l 785 778 l 785 -299 l 581 -299 l 581 -51 m 436 149 q 512 167 476 149 q 581 229 547 185 l 581 571 q 508 616 544 603 q 436 629 472 629 q 374 614 403 629 q 323 568 344 599 q 288 493 301 538 q 275 390 275 449 q 317 208 275 268 q 436 149 358 149 z "},"r":{"ha":606,"x_min":110,"x_max":608,"o":"m 110 778 l 276 778 l 290 640 l 296 640 q 397 757 339 717 q 517 797 456 797 q 569 792 549 797 q 608 781 590 788 l 572 604 q 534 614 553 611 q 492 617 515 617 q 396 583 446 617 q 313 464 346 549 l 313 0 l 110 0 l 110 778 z "},"s":{"ha":688,"x_min":36,"x_max":642,"o":"m 332 -19 q 174 11 253 -19 q 36 90 94 42 l 129 218 q 233 156 182 178 q 338 133 283 133 q 423 156 396 133 q 450 215 450 179 q 436 253 450 238 q 399 283 422 269 q 347 308 376 297 q 288 332 318 319 q 213 365 250 346 q 144 410 175 383 q 94 474 114 438 q 75 558 75 510 q 96 655 75 611 q 154 731 117 699 q 245 780 192 763 q 364 797 299 797 q 515 767 450 797 q 629 701 581 738 l 538 578 q 455 626 496 607 q 369 644 414 644 q 292 624 317 644 q 267 569 267 603 q 280 533 267 549 q 315 506 293 518 q 366 483 338 493 q 425 461 394 472 q 502 428 464 446 q 572 383 540 410 q 622 319 603 357 q 642 226 642 281 q 622 131 642 175 q 563 53 601 86 q 466 0 524 19 q 332 -19 408 -19 z "},"t":{"ha":583,"x_min":29,"x_max":558,"o":"m 394 -19 q 276 1 325 -19 q 197 60 228 22 q 153 153 167 99 q 139 272 139 207 l 139 617 l 29 617 l 29 768 l 149 778 l 172 986 l 343 986 l 343 778 l 535 778 l 535 617 l 343 617 l 343 272 q 449 142 343 142 q 489 147 468 142 q 525 158 510 151 l 558 10 q 486 -10 526 -1 q 394 -19 446 -19 z "},"u":{"ha":885,"x_min":101,"x_max":776,"o":"m 340 -19 q 158 63 215 -19 q 101 292 101 146 l 101 778 l 306 778 l 306 318 q 331 191 306 226 q 414 156 357 156 q 497 178 463 156 q 572 253 532 200 l 572 778 l 776 778 l 776 0 l 610 0 l 594 111 l 589 111 q 480 16 539 51 q 340 -19 421 -19 z "},"v":{"ha":800,"x_min":19,"x_max":781,"o":"m 19 778 l 225 778 l 339 390 q 370 273 354 332 q 401 154 386 214 l 408 154 q 440 273 424 214 q 471 390 456 332 l 585 778 l 781 778 l 521 0 l 285 0 l 19 778 z "},"w":{"ha":1199,"x_min":38,"x_max":1160,"o":"m 38 778 l 242 778 l 326 393 q 346 281 338 336 q 365 167 354 225 l 371 167 q 393 281 382 225 q 419 393 404 338 l 513 778 l 694 778 l 792 393 q 817 281 806 336 q 840 167 828 225 l 847 167 q 867 281 858 225 q 886 393 875 336 l 971 778 l 1160 778 l 968 0 l 728 0 l 646 339 q 623 449 633 394 q 601 565 613 503 l 594 565 q 574 448 583 503 q 551 339 564 393 l 472 0 l 239 0 l 38 778 z "},"x":{"ha":781,"x_min":22,"x_max":758,"o":"m 265 406 l 38 778 l 257 778 l 335 639 q 404 508 369 572 l 410 508 q 438 574 424 540 q 467 639 453 607 l 532 778 l 743 778 l 515 382 l 758 0 l 539 0 l 453 142 q 415 211 433 176 q 378 279 397 246 l 371 279 q 338 212 354 246 q 306 142 322 178 l 233 0 l 22 0 l 265 406 z "},"y":{"ha":797,"x_min":19,"x_max":779,"o":"m 178 -312 q 119 -308 143 -312 q 71 -297 94 -304 l 108 -140 q 134 -147 119 -143 q 163 -150 149 -150 q 257 -117 222 -150 q 308 -32 292 -83 l 322 14 l 19 778 l 225 778 l 349 417 q 382 309 367 364 q 414 197 397 254 l 421 197 q 449 307 435 251 q 476 417 463 363 l 583 778 l 779 778 l 503 -24 q 448 -147 478 -93 q 380 -237 418 -200 q 292 -293 342 -274 q 178 -312 243 -312 z "},"z":{"ha":710,"x_min":57,"x_max":671,"o":"m 57 110 l 404 617 l 96 617 l 96 778 l 660 778 l 660 668 l 311 161 l 671 161 l 671 0 l 57 0 l 57 110 z "},"{":{"ha":525,"x_min":53,"x_max":461,"o":"m 371 -167 q 283 -156 319 -167 q 222 -119 246 -144 q 185 -51 197 -93 q 174 54 174 -8 q 176 131 174 96 q 181 197 178 165 q 185 262 183 229 q 188 332 188 294 q 181 375 188 354 q 159 413 175 396 q 117 440 143 429 q 53 451 92 450 l 53 572 q 117 583 92 572 q 159 610 143 593 q 181 648 175 626 q 188 690 188 669 q 185 760 188 728 q 181 826 183 793 q 176 892 178 858 q 174 968 174 926 q 185 1074 174 1032 q 222 1142 197 1117 q 283 1178 246 1168 q 371 1189 319 1189 l 461 1189 l 461 1081 l 429 1081 q 357 1055 375 1081 q 339 960 339 1029 q 342 832 339 893 q 346 696 346 771 q 319 569 346 608 q 235 515 293 529 l 235 508 q 319 454 293 494 q 346 328 346 414 q 342 192 346 253 q 339 64 339 131 q 343 6 339 29 q 357 -31 347 -17 q 384 -50 367 -44 q 429 -56 401 -56 l 461 -56 l 461 -167 l 371 -167 z "},"|":{"ha":411,"x_min":140,"x_max":272,"o":"m 140 1192 l 272 1192 l 272 -194 l 140 -194 l 140 1192 z "},"}":{"ha":525,"x_min":67,"x_max":474,"o":"m 67 -56 l 99 -56 q 142 -50 125 -56 q 170 -31 160 -44 q 185 6 181 -17 q 189 64 189 29 q 185 192 189 131 q 182 328 182 253 q 208 454 182 414 q 293 508 235 494 l 293 515 q 208 569 235 529 q 182 696 182 608 q 185 832 182 771 q 189 960 189 893 q 170 1055 189 1029 q 99 1081 151 1081 l 67 1081 l 67 1189 l 157 1189 q 245 1178 208 1189 q 306 1142 282 1168 q 342 1074 331 1117 q 354 968 354 1032 q 352 892 354 926 q 347 826 350 858 q 341 760 343 793 q 339 690 339 728 q 345 648 339 669 q 367 610 351 626 q 409 583 383 593 q 474 572 435 572 l 474 451 q 409 440 435 450 q 367 413 383 429 q 345 375 351 396 q 339 332 339 354 q 341 262 339 294 q 347 197 343 229 q 352 131 350 165 q 354 54 354 96 q 342 -51 354 -8 q 306 -119 331 -93 q 245 -156 282 -144 q 157 -167 208 -167 l 67 -167 l 67 -56 z "},"~":{"ha":818,"x_min":49,"x_max":769,"o":"m 544 386 q 460 405 496 386 q 392 447 424 424 q 333 489 361 469 q 271 508 304 508 q 156 417 206 508 l 49 497 q 160 619 103 583 q 275 654 217 654 q 359 635 322 654 q 427 592 396 615 q 487 551 458 569 q 547 532 515 532 q 663 622 613 532 l 769 542 q 659 422 717 457 q 544 386 601 386 z "},"¡":{"ha":514,"x_min":131,"x_max":385,"o":"m 161 -86 l 190 426 l 324 426 l 353 -86 l 360 -278 l 154 -278 l 161 -86 m 257 531 q 167 568 203 531 q 131 664 131 606 q 167 759 131 721 q 257 797 203 797 q 348 759 311 797 q 385 664 385 721 q 348 568 385 606 q 257 531 311 531 z "},"¤":{"ha":818,"x_min":35,"x_max":785,"o":"m 35 243 l 132 342 q 78 518 78 414 q 131 696 78 624 l 35 794 l 136 897 l 246 789 q 324 822 282 810 q 410 833 365 833 q 494 822 453 833 q 572 789 536 810 l 682 897 l 785 794 l 686 696 q 742 518 742 624 q 726 422 742 465 q 686 342 711 378 l 785 243 l 682 139 l 572 250 q 493 217 535 228 q 410 207 451 207 q 246 250 319 207 l 136 139 l 35 243 m 410 350 q 516 396 472 350 q 560 518 560 442 q 548 588 560 557 q 516 642 536 619 q 468 676 496 664 q 410 689 440 689 q 351 676 378 689 q 303 642 324 664 q 272 588 283 619 q 260 518 260 557 q 303 396 260 442 q 410 350 347 350 z "},"§":{"ha":1389,"x_min":340,"x_max":1047,"o":"m 943 907 q 855 942 908 926 q 726 957 801 957 q 615 931 654 957 q 576 868 576 904 q 623 798 576 824 q 757 747 669 772 q 874 706 821 728 q 966 652 928 683 q 1026 579 1004 621 q 1047 481 1047 538 q 1019 369 1047 418 q 944 286 990 319 q 988 231 967 268 q 1010 142 1010 193 q 979 28 1010 75 q 900 -50 949 -19 q 791 -95 851 -81 q 671 -110 731 -110 q 521 -94 596 -110 q 388 -40 446 -79 l 431 89 q 528 45 465 68 q 669 22 592 22 q 784 49 742 22 q 826 122 826 76 q 817 160 826 143 q 785 193 807 178 q 728 223 764 208 q 643 253 693 238 q 522 295 578 272 q 426 349 467 318 q 363 421 386 381 q 340 517 340 461 q 369 618 340 565 q 461 707 399 671 q 418 767 436 728 q 400 847 400 806 q 425 948 400 903 q 494 1024 450 993 q 599 1072 538 1056 q 732 1089 660 1089 q 867 1075 804 1089 q 979 1036 929 1061 l 943 907 m 558 647 q 515 605 531 629 q 500 553 500 581 q 532 484 500 515 q 653 424 564 453 q 767 383 719 400 q 839 354 815 367 q 875 395 863 369 q 888 449 888 421 q 851 520 888 492 q 764 570 815 549 q 656 609 713 592 q 558 647 600 626 z "},"¨":{"ha":869,"x_min":165,"x_max":704,"o":"m 268 904 q 194 934 224 904 q 165 1007 165 964 q 194 1081 165 1051 q 268 1111 224 1111 q 343 1081 314 1111 q 372 1007 372 1051 q 343 934 372 964 q 268 904 314 904 m 601 904 q 526 934 556 904 q 497 1007 497 964 q 526 1081 497 1051 q 601 1111 556 1111 q 675 1081 646 1111 q 704 1007 704 1051 q 675 934 704 964 q 601 904 646 904 z "},"ª":{"ha":560,"x_min":50,"x_max":494,"o":"m 207 588 q 92 631 135 588 q 50 742 50 675 q 120 870 50 825 q 349 931 190 915 q 328 991 346 969 q 267 1013 310 1013 q 193 999 231 1013 q 119 964 156 985 l 67 1060 q 172 1108 115 1089 q 292 1128 229 1128 q 442 1071 390 1128 q 494 900 494 1014 l 494 600 l 378 600 l 364 654 l 358 654 q 290 606 328 625 q 207 588 253 588 m 256 699 q 303 710 281 699 q 349 744 325 722 l 349 844 q 224 810 258 835 q 189 754 189 785 q 256 699 189 699 z "},"­":{"ha":818,"x_min":53,"x_max":765,"o":"m 53 592 l 765 592 l 765 447 l 53 447 l 53 592 z "},"®":{"ha":711,"x_min":47,"x_max":663,"o":"m 356 494 q 235 518 292 494 q 138 583 179 542 q 72 683 96 625 q 47 810 47 740 q 72 938 47 879 q 138 1038 96 996 q 235 1103 179 1079 q 356 1126 292 1126 q 475 1103 419 1126 q 572 1038 531 1079 q 638 938 614 996 q 663 810 663 879 q 638 683 663 740 q 572 583 614 625 q 475 518 531 542 q 356 494 419 494 m 356 565 q 447 583 406 565 q 519 632 489 600 q 566 709 549 664 q 583 810 583 754 q 566 910 583 865 q 519 988 549 956 q 447 1037 489 1019 q 356 1054 406 1054 q 263 1037 306 1054 q 191 988 221 1019 q 144 910 161 956 q 126 810 126 865 q 144 709 126 754 q 191 632 161 664 q 263 583 221 600 q 356 565 306 565 m 231 968 l 367 968 q 456 944 419 968 q 492 867 492 919 q 478 815 492 839 q 436 779 464 792 l 503 656 l 415 656 l 365 756 l 315 756 l 315 656 l 231 656 l 231 968 m 349 814 q 390 827 376 814 q 403 860 403 840 q 390 892 403 879 q 350 904 378 904 l 315 904 l 315 814 l 349 814 z "},"°":{"ha":561,"x_min":63,"x_max":500,"o":"m 281 640 q 197 656 236 640 q 127 701 157 672 q 80 771 97 731 q 63 860 63 811 q 80 949 63 908 q 127 1018 97 989 q 197 1064 157 1047 q 281 1081 236 1081 q 367 1064 326 1081 q 436 1018 407 1047 q 483 949 465 989 q 500 860 500 908 q 483 771 500 811 q 436 701 465 731 q 367 656 407 672 q 281 640 326 640 m 281 742 q 360 774 329 742 q 390 860 390 807 q 360 946 390 913 q 281 979 329 979 q 202 946 232 979 q 172 860 172 913 q 202 774 172 807 q 281 742 232 742 z "},"±":{"ha":1389,"x_min":201,"x_max":1199,"o":"m 1188 636 l 765 636 l 765 285 l 624 285 l 624 636 l 201 636 l 201 776 l 624 776 l 624 1128 l 765 1128 l 765 776 l 1188 776 l 1188 636 m 1199 154 l 1199 13 l 201 13 l 201 154 l 1199 154 z "},"²":{"ha":589,"x_min":47,"x_max":521,"o":"m 74 682 q 274 865 199 788 q 349 1003 349 942 q 323 1080 349 1051 q 251 1108 297 1108 q 190 1087 218 1108 q 135 1031 161 1065 l 47 1108 q 275 1232 139 1232 q 435 1180 375 1232 q 496 1028 496 1128 q 481 952 496 989 q 442 878 467 915 q 385 804 418 842 q 315 726 353 767 l 521 726 l 521 600 l 74 600 l 74 682 z "},"³":{"ha":589,"x_min":47,"x_max":524,"o":"m 290 581 q 149 613 211 581 q 47 704 86 646 l 140 776 q 276 696 194 696 q 345 718 317 696 q 374 781 374 740 q 215 869 374 869 l 215 957 q 315 979 279 957 q 351 1043 351 1001 q 328 1097 351 1078 q 265 1117 306 1117 q 208 1098 235 1117 q 158 1051 181 1079 l 72 1129 q 169 1206 119 1181 q 290 1232 219 1232 q 370 1220 332 1232 q 438 1187 408 1208 q 483 1134 467 1165 q 500 1064 500 1103 q 475 978 500 1013 q 406 919 450 943 q 489 864 454 901 q 524 769 524 826 q 505 692 524 726 q 454 632 486 657 q 380 594 422 607 q 290 581 338 581 z "},"´":{"ha":869,"x_min":339,"x_max":715,"o":"m 339 1001 l 576 1283 l 715 1147 l 440 903 l 339 1001 z "},"¶":{"ha":1389,"x_min":326,"x_max":988,"o":"m 614 417 l 604 417 q 521 434 568 417 q 431 488 474 451 q 359 580 389 524 q 328 715 329 636 q 346 843 326 779 q 417 958 365 907 q 556 1042 468 1010 q 779 1075 643 1075 q 901 1071 850 1075 q 988 1060 953 1067 l 988 -78 l 857 -78 l 857 946 l 744 946 l 744 -78 l 614 -78 l 614 417 z "},"·":{"ha":822,"x_min":281,"x_max":535,"o":"m 408 383 q 317 422 354 383 q 281 515 281 460 q 317 612 281 574 q 408 650 354 650 q 499 612 463 650 q 535 515 535 574 q 499 422 535 460 q 408 383 463 383 z "},"¸":{"ha":869,"x_min":269,"x_max":582,"o":"m 269 -286 q 398 -265 363 -281 q 433 -214 433 -249 q 408 -172 433 -189 q 313 -144 383 -156 l 386 6 l 508 6 l 464 -97 q 552 -137 522 -111 q 582 -212 582 -164 q 505 -328 582 -292 q 285 -372 428 -365 l 269 -286 z "},"¹":{"ha":589,"x_min":125,"x_max":415,"o":"m 263 1054 l 125 1054 l 125 1147 q 221 1172 185 1157 q 294 1214 257 1188 l 415 1214 l 415 600 l 263 600 l 263 1054 z "},"º":{"ha":583,"x_min":40,"x_max":543,"o":"m 292 588 q 196 606 242 588 q 116 658 150 624 q 61 743 82 693 q 40 857 40 793 q 61 972 40 921 q 116 1057 82 1022 q 196 1110 150 1092 q 292 1128 242 1128 q 387 1110 342 1128 q 467 1057 432 1092 q 522 972 501 1022 q 543 857 543 921 q 522 743 543 793 q 467 658 501 693 q 387 606 432 624 q 292 588 342 588 m 292 703 q 369 745 343 703 q 394 857 394 788 q 369 970 394 928 q 292 1013 343 1013 q 214 970 239 1013 q 189 857 189 928 q 214 745 189 788 q 292 703 239 703 z "},"¼":{"ha":1263,"x_min":81,"x_max":1239,"o":"m 218 414 l 218 868 l 81 868 l 81 963 q 176 988 140 972 q 250 1028 213 1003 l 369 1028 l 369 414 l 218 414 m 971 1047 l 413 -19 l 290 -19 l 849 1047 l 971 1047 m 1014 244 l 1014 322 l 1022 503 l 1015 503 l 949 379 l 875 244 l 1014 244 m 1239 144 l 1147 144 l 1147 0 l 1014 0 l 1014 144 l 732 144 l 732 219 l 964 614 l 1147 614 l 1147 244 l 1239 244 l 1239 144 z "},"½":{"ha":1317,"x_min":81,"x_max":1247,"o":"m 218 868 l 81 868 l 81 963 q 176 988 140 972 q 250 1028 213 1003 l 369 1028 l 369 414 l 218 414 l 218 868 m 822 1047 l 943 1047 l 385 -19 l 264 -19 l 822 1047 m 800 82 q 913 181 863 135 q 1001 265 964 226 q 1057 338 1038 304 q 1076 403 1076 372 q 1050 481 1076 453 q 979 508 1024 508 q 917 487 946 508 q 861 429 888 465 l 775 508 q 876 601 819 569 q 1001 633 933 633 q 1162 581 1101 633 q 1222 428 1222 528 q 1208 352 1222 389 q 1169 278 1193 315 q 1112 204 1144 242 q 1042 128 1079 167 l 1247 128 l 1247 0 l 800 0 l 800 82 z "},"¾":{"ha":1279,"x_min":42,"x_max":1256,"o":"m 67 943 q 165 1022 114 996 q 286 1047 215 1047 q 366 1035 328 1047 q 433 1002 404 1024 q 479 949 463 981 q 496 879 496 918 q 471 793 496 828 q 401 735 446 758 q 484 678 450 715 q 518 583 518 640 q 499 507 518 542 q 449 447 481 472 q 375 409 417 422 q 286 396 333 396 q 144 428 207 396 q 42 518 81 460 l 135 592 q 271 511 193 511 q 342 533 313 511 q 371 594 371 554 q 211 683 371 683 l 211 772 q 311 794 275 772 q 347 857 347 817 q 324 912 347 892 q 261 932 300 932 q 203 913 229 932 q 154 867 176 894 l 67 943 m 1011 1047 l 453 -19 l 332 -19 l 892 1047 l 1011 1047 m 1029 244 l 1029 322 l 1039 503 l 1032 503 l 964 379 l 889 244 l 1029 244 m 1256 144 l 1164 144 l 1164 0 l 1029 0 l 1029 144 l 749 144 l 749 219 l 979 614 l 1164 614 l 1164 244 l 1256 244 l 1256 144 z "},"¿":{"ha":714,"x_min":68,"x_max":650,"o":"m 358 -297 q 242 -281 296 -297 q 151 -231 189 -264 q 90 -149 113 -199 q 68 -32 68 -99 q 86 57 68 17 q 130 132 104 97 q 186 199 156 167 q 241 265 217 231 q 280 339 265 300 q 289 426 294 378 l 468 426 q 465 326 476 371 q 430 242 453 281 q 378 170 407 203 q 325 106 350 138 q 283 45 300 75 q 265 -18 265 15 q 297 -101 265 -71 q 383 -132 328 -132 q 466 -110 429 -132 q 536 -54 503 -89 l 650 -157 q 522 -258 594 -219 q 358 -297 450 -297 m 378 531 q 288 568 324 531 q 251 664 251 606 q 288 759 251 721 q 378 797 324 797 q 469 759 432 797 q 506 664 506 721 q 469 568 506 606 q 378 531 432 531 z "},"Å":{"ha":890,"x_min":-6,"x_max":896,"o":"m 440 1325 q 390 1305 411 1325 q 369 1251 369 1285 q 390 1197 369 1215 q 440 1178 411 1178 q 489 1197 468 1178 q 510 1251 510 1215 q 489 1305 510 1285 q 440 1325 468 1325 m 440 1099 q 316 1140 364 1099 q 268 1251 268 1181 q 316 1362 268 1321 q 440 1403 364 1403 q 565 1362 517 1403 q 613 1251 613 1321 q 565 1140 613 1181 q 440 1099 517 1099 m 564 424 l 533 536 q 488 703 510 617 q 443 872 467 789 l 438 872 q 396 702 418 788 q 350 536 374 617 l 319 424 l 564 424 m 608 264 l 275 264 l 203 0 l -6 0 l 324 1028 l 565 1028 l 896 0 l 681 0 l 608 264 z "},"Æ":{"ha":1322,"x_min":-11,"x_max":1240,"o":"m 615 413 l 615 874 l 608 874 q 540 718 574 794 q 472 569 506 642 l 399 413 l 615 413 m 1240 172 l 1240 0 l 615 0 l 615 253 l 322 253 l 203 0 l -11 0 l 490 1028 l 1225 1028 l 1225 857 l 819 857 l 819 619 l 1161 619 l 1161 447 l 819 447 l 819 172 l 1240 172 z "},"Ð":{"ha":1029,"x_min":44,"x_max":956,"o":"m 433 165 q 563 185 506 165 q 661 248 621 206 q 723 357 701 290 q 744 518 744 424 q 723 678 744 613 q 661 785 701 744 q 563 845 621 826 q 433 864 506 864 l 369 864 l 369 585 l 576 585 l 576 483 l 369 483 l 369 165 l 433 165 m 446 1028 q 658 997 564 1028 q 819 903 753 967 q 920 744 885 840 q 956 518 956 649 q 920 292 956 389 q 820 130 885 194 q 664 33 756 65 q 458 0 572 0 l 165 0 l 165 483 l 44 483 l 44 576 l 165 585 l 165 1028 l 446 1028 z "},"×":{"ha":1389,"x_min":239,"x_max":1153,"o":"m 1053 71 l 696 428 l 339 71 l 239 171 l 596 528 l 239 885 l 339 985 l 696 628 l 1053 985 l 1153 885 l 796 528 l 1153 171 l 1053 71 z "},"Ø":{"ha":1069,"x_min":67,"x_max":1022,"o":"m 392 214 q 538 158 454 158 q 640 183 594 158 q 719 256 686 208 q 769 369 751 303 q 786 518 786 436 q 781 605 786 564 q 764 682 775 646 l 392 214 m 692 808 q 538 871 629 871 q 355 778 422 871 q 288 518 288 685 q 315 335 288 414 l 692 808 m 906 858 q 973 708 950 793 q 996 518 996 622 q 963 294 996 393 q 869 124 929 194 q 724 17 808 54 q 538 -19 639 -19 q 393 1 460 -19 q 272 63 326 22 l 175 -60 l 67 22 l 176 161 q 103 319 129 229 q 78 518 78 408 q 111 742 78 643 q 205 908 144 840 q 350 1012 265 976 q 538 1047 435 1047 q 813 960 697 1047 l 915 1089 l 1022 1006 l 906 858 z "},"Þ":{"ha":957,"x_min":126,"x_max":882,"o":"m 126 1028 l 332 1028 l 332 868 l 486 868 q 643 852 571 868 q 768 799 715 836 q 851 699 821 761 q 882 546 882 638 q 851 393 882 457 q 766 288 819 329 q 640 226 713 246 q 486 206 568 206 l 332 206 l 332 0 l 126 0 l 126 1028 m 471 368 q 630 413 579 368 q 681 546 681 457 q 628 670 681 635 q 471 706 575 706 l 332 706 l 332 368 l 471 368 z "},"ß":{"ha":972,"x_min":110,"x_max":929,"o":"m 649 -19 q 525 0 581 -19 q 415 54 469 19 l 488 193 q 642 133 565 133 q 715 160 689 133 q 742 222 742 186 q 720 280 742 257 q 667 323 699 303 q 599 363 636 343 q 530 408 561 382 q 477 469 499 433 q 456 558 456 506 q 474 640 456 606 q 515 705 493 674 q 555 769 536 736 q 574 849 574 803 q 546 931 574 897 q 465 964 518 964 q 351 908 390 964 q 311 753 311 853 l 311 0 l 110 0 l 110 779 q 132 918 110 854 q 199 1028 154 982 q 310 1099 243 1074 q 467 1125 376 1125 q 599 1104 542 1125 q 694 1048 656 1083 q 751 967 732 1013 q 771 872 771 922 q 751 775 771 815 q 707 703 731 735 q 663 643 683 671 q 643 582 643 615 q 665 533 643 553 q 717 494 686 513 q 786 456 749 475 q 855 407 824 436 q 908 336 886 378 q 929 233 929 294 q 911 135 929 181 q 858 54 893 89 q 769 0 822 19 q 649 -19 717 -19 z "},"æ":{"ha":1238,"x_min":78,"x_max":1179,"o":"m 310 -19 q 215 -2 257 -19 q 142 47 172 15 q 94 119 111 78 q 78 211 78 161 q 184 406 78 336 q 522 500 290 475 q 514 552 521 528 q 492 594 507 576 q 452 623 476 613 q 392 633 428 633 q 287 613 339 633 q 182 560 235 592 l 108 694 q 254 767 176 738 q 418 797 332 797 q 551 762 496 797 q 638 665 606 726 q 744 763 686 728 q 874 797 801 797 q 1007 769 950 797 q 1102 690 1064 740 q 1160 570 1140 639 q 1179 421 1179 501 q 1177 369 1179 393 q 1171 332 1175 346 l 708 332 q 774 190 719 239 q 908 142 829 142 q 997 158 957 142 q 1079 200 1038 174 l 1151 67 q 1024 3 1093 26 q 881 -19 954 -19 q 726 17 792 -19 q 613 108 661 53 q 458 11 531 42 q 310 -19 386 -19 m 376 140 q 464 162 419 140 q 546 219 508 183 q 529 277 535 246 q 522 339 524 308 l 519 374 q 331 317 386 354 q 275 228 275 281 q 303 161 275 182 q 376 140 331 140 m 1006 457 q 972 590 1006 542 q 867 639 938 639 q 762 593 806 639 q 708 457 718 547 l 1006 457 z "},"ð":{"ha":876,"x_min":71,"x_max":793,"o":"m 435 147 q 558 213 514 147 q 601 406 601 278 q 601 444 601 425 q 599 481 600 463 q 517 544 560 528 q 433 561 475 561 q 306 508 354 561 q 258 357 258 456 q 272 268 258 307 q 310 202 286 229 q 367 161 335 175 q 435 147 399 147 m 579 950 q 666 846 626 901 q 733 724 706 790 q 777 581 761 658 q 793 415 793 504 q 767 240 793 319 q 694 102 742 160 q 580 13 647 44 q 428 -19 513 -19 q 292 7 357 -19 q 178 82 226 33 q 100 200 129 131 q 71 357 71 269 q 97 506 71 440 q 168 619 124 572 q 271 690 213 665 q 393 714 329 714 q 488 697 442 714 q 571 639 535 679 q 513 767 549 710 q 428 872 476 824 l 204 758 l 150 851 l 338 946 q 188 1038 271 993 l 276 1163 q 388 1099 333 1133 q 494 1025 443 1065 l 719 1139 l 772 1047 l 579 950 z "},"÷":{"ha":1389,"x_min":201,"x_max":1188,"o":"m 574 876 q 583 923 574 901 q 609 961 593 944 q 647 988 625 978 q 694 997 669 997 q 742 988 719 997 q 780 961 764 978 q 806 923 796 944 q 815 876 815 901 q 780 791 815 826 q 694 756 744 756 q 609 791 644 756 q 574 876 574 826 m 1188 597 l 1188 456 l 201 456 l 201 597 l 1188 597 m 574 176 q 609 262 574 226 q 694 297 644 297 q 780 262 744 297 q 815 176 815 226 q 806 130 815 151 q 780 92 796 108 q 742 65 764 75 q 694 56 719 56 q 647 65 669 56 q 609 92 625 75 q 583 130 593 108 q 574 176 574 151 z "},"ø":{"ha":869,"x_min":61,"x_max":808,"o":"m 329 181 q 435 140 372 140 q 506 157 474 140 q 562 205 539 174 q 597 280 585 236 q 610 378 610 324 q 593 506 610 453 l 329 181 m 540 599 q 435 638 500 638 q 363 620 394 638 q 308 572 331 603 q 272 497 285 540 q 260 400 260 453 q 276 274 260 325 l 540 599 m 719 661 q 784 542 760 610 q 808 388 808 474 q 777 216 808 292 q 694 88 746 140 q 575 8 643 36 q 435 -19 507 -19 q 322 -2 376 -19 q 222 49 268 15 l 151 -39 l 72 22 l 149 117 q 85 236 108 168 q 61 388 61 304 q 92 561 61 485 q 175 690 124 638 q 294 769 226 742 q 435 797 361 797 q 547 780 493 797 q 647 731 600 763 l 718 818 l 797 757 l 719 661 z "},"þ":{"ha":894,"x_min":110,"x_max":831,"o":"m 110 1108 l 313 1108 l 313 829 l 308 713 q 405 773 353 749 q 514 797 457 797 q 647 769 589 797 q 747 689 706 740 q 809 564 788 638 q 831 401 831 490 q 803 223 831 301 q 729 91 775 144 q 624 9 683 38 q 500 -19 564 -19 q 398 1 443 -19 q 308 58 353 22 l 313 -62 l 313 -299 l 110 -299 l 110 1108 m 454 149 q 573 210 525 149 q 621 399 621 271 q 584 570 621 511 q 467 629 547 629 q 390 609 426 629 q 313 549 353 589 l 313 207 q 386 162 350 175 q 454 149 422 149 z "},"đ":{"ha":894,"x_min":65,"x_max":894,"o":"m 581 499 q 508 544 544 531 q 436 557 472 557 q 374 543 403 557 q 323 503 344 529 q 288 440 301 478 q 275 356 275 403 q 317 202 275 256 q 436 149 358 149 q 512 167 476 149 q 581 229 547 185 l 581 499 m 894 890 l 785 882 l 785 0 l 615 0 l 601 74 l 597 74 q 501 7 556 33 q 383 -19 446 -19 q 252 7 311 -19 q 151 82 193 33 q 88 199 110 131 q 65 354 65 268 q 92 506 65 438 q 165 622 119 574 q 270 697 211 671 q 392 724 329 724 q 503 701 458 724 q 589 640 547 679 l 581 763 l 581 882 l 342 882 l 342 983 l 581 983 l 581 1108 l 785 1108 l 785 983 l 894 983 l 894 890 z "},"Œ":{"ha":1363,"x_min":75,"x_max":1281,"o":"m 586 0 q 380 33 474 0 q 219 130 286 65 q 113 292 151 194 q 75 518 75 389 q 113 744 75 649 q 220 903 151 840 q 385 997 289 967 q 597 1028 481 1028 l 1264 1028 l 1264 857 l 863 857 l 863 619 l 1200 619 l 1200 447 l 863 447 l 863 172 l 1281 172 l 1281 0 l 586 0 m 657 165 l 657 864 l 610 864 q 475 845 535 864 q 373 785 415 826 q 308 678 331 744 q 285 518 285 613 q 308 357 285 424 q 373 247 331 290 q 475 185 415 204 q 610 165 535 165 l 657 165 z "},"œ":{"ha":1303,"x_min":61,"x_max":1244,"o":"m 419 -19 q 281 8 346 -19 q 167 88 215 36 q 90 216 118 140 q 61 388 61 292 q 90 561 61 485 q 169 690 119 638 q 284 769 218 742 q 424 797 350 797 q 574 756 508 797 q 683 644 639 715 q 797 757 731 717 q 938 797 863 797 q 1070 769 1013 797 q 1167 690 1128 740 q 1225 570 1206 639 q 1244 421 1244 501 q 1242 369 1244 393 q 1236 332 1239 346 l 771 332 q 838 190 782 239 q 974 142 894 142 q 1062 158 1021 142 q 1146 200 1103 174 l 1215 67 q 1087 3 1157 26 q 946 -19 1017 -19 q 801 21 869 -19 q 686 132 732 61 q 573 19 638 57 q 419 -19 508 -19 m 424 147 q 539 213 496 147 q 582 388 582 278 q 539 565 582 499 q 424 631 496 631 q 310 565 351 631 q 268 388 268 499 q 310 213 268 278 q 424 147 351 147 m 1069 457 q 1035 590 1069 542 q 931 639 1001 639 q 825 593 868 639 q 771 457 782 547 l 1069 457 z "},"ˇ":{"ha":1389,"x_min":286,"x_max":1103,"o":"m 1103 772 l 696 174 l 286 774 l 496 774 l 694 460 l 883 772 l 1103 772 z "},"˙":{"ha":1389,"x_min":553,"x_max":833,"o":"m 694 390 q 638 401 664 390 q 592 432 611 413 q 563 476 574 451 q 553 529 553 501 q 563 585 553 558 q 590 632 572 611 q 635 665 608 653 q 694 676 661 676 q 797 633 761 676 q 833 529 833 589 q 797 431 833 472 q 694 389 761 390 l 694 390 z "},"Α":{"ha":890,"x_min":-6,"x_max":896,"o":"m 564 424 l 533 536 q 488 703 510 617 q 443 872 467 789 l 438 872 q 396 702 418 788 q 350 536 374 617 l 319 424 l 564 424 m 608 264 l 275 264 l 203 0 l -6 0 l 324 1028 l 565 1028 l 896 0 l 681 0 l 608 264 z "},"Β":{"ha":946,"x_min":126,"x_max":892,"o":"m 126 1028 l 467 1028 q 614 1015 546 1028 q 732 974 682 1003 q 810 896 782 944 q 839 775 839 847 q 829 704 839 739 q 801 640 819 669 q 758 587 783 610 q 699 553 732 564 l 699 546 q 837 467 782 526 q 892 303 892 407 q 861 168 892 225 q 777 74 831 111 q 651 18 724 36 q 493 0 578 0 l 126 0 l 126 1028 m 451 610 q 594 646 550 610 q 639 744 639 682 q 593 842 639 813 q 454 871 547 871 l 332 871 l 332 610 l 451 610 m 475 158 q 636 197 581 158 q 692 315 692 235 q 637 424 692 390 q 475 457 582 457 l 332 457 l 332 158 l 475 158 z "},"Γ":{"ha":811,"x_min":126,"x_max":760,"o":"m 126 1028 l 760 1028 l 760 857 l 332 857 l 332 0 l 126 0 l 126 1028 z "},"Δ":{"ha":986,"x_min":51,"x_max":935,"o":"m 51 124 l 371 1028 l 615 1028 l 935 124 l 935 0 l 51 0 l 51 124 m 710 172 l 586 554 l 492 867 l 486 867 l 393 554 l 272 172 l 710 172 z "},"Ε":{"ha":854,"x_min":126,"x_max":772,"o":"m 126 1028 l 757 1028 l 757 857 l 332 857 l 332 619 l 693 619 l 693 447 l 332 447 l 332 172 l 772 172 l 772 0 l 126 0 l 126 1028 z "},"Ζ":{"ha":851,"x_min":60,"x_max":796,"o":"m 60 124 l 539 857 l 106 857 l 106 1028 l 790 1028 l 790 906 l 313 172 l 796 172 l 796 0 l 60 0 l 60 124 z "},"Η":{"ha":1051,"x_min":126,"x_max":925,"o":"m 126 1028 l 332 1028 l 332 624 l 721 624 l 721 1028 l 925 1028 l 925 0 l 721 0 l 721 444 l 332 444 l 332 0 l 126 0 l 126 1028 z "},"Θ":{"ha":1069,"x_min":75,"x_max":994,"o":"m 375 624 l 696 624 l 696 444 l 375 444 l 375 624 m 535 -19 q 348 17 432 -19 q 203 124 264 54 q 108 294 142 194 q 75 518 75 393 q 108 742 75 643 q 203 908 142 840 q 348 1012 264 976 q 535 1047 432 1047 q 721 1011 636 1047 q 867 908 806 975 q 961 742 928 840 q 994 518 994 643 q 961 294 994 393 q 867 124 928 194 q 721 17 806 54 q 535 -19 636 -19 m 535 158 q 638 183 592 158 q 717 256 685 208 q 767 369 750 303 q 785 518 785 436 q 717 778 785 685 q 535 871 650 871 q 352 778 419 871 q 285 518 285 685 q 302 369 285 436 q 352 256 319 303 q 431 183 385 208 q 535 158 478 158 z "},"Ι":{"ha":458,"x_min":126,"x_max":332,"o":"m 126 1028 l 332 1028 l 332 0 l 126 0 l 126 1028 z "},"Κ":{"ha":953,"x_min":126,"x_max":958,"o":"m 126 1028 l 332 1028 l 332 582 l 336 582 l 676 1028 l 903 1028 l 589 624 l 958 0 l 732 0 l 467 461 l 332 289 l 332 0 l 126 0 l 126 1028 z "},"Λ":{"ha":858,"x_min":-7,"x_max":867,"o":"m 306 1028 l 551 1028 l 867 0 l 650 0 l 515 501 q 472 667 490 588 q 428 833 453 746 l 421 833 q 377 667 396 746 q 335 501 358 588 l 201 0 l -7 0 l 306 1028 z "},"Μ":{"ha":1186,"x_min":126,"x_max":1060,"o":"m 126 1028 l 354 1028 l 529 547 q 561 449 546 499 q 592 349 576 399 l 599 349 q 630 449 615 399 q 661 547 644 499 l 832 1028 l 1060 1028 l 1060 0 l 872 0 l 872 429 q 875 509 872 465 q 881 598 878 553 q 889 687 885 643 q 897 767 893 731 l 892 767 l 808 525 l 650 93 l 532 93 l 372 525 l 290 767 l 285 767 q 293 687 289 731 q 301 598 297 643 q 308 509 306 553 q 311 429 311 465 l 311 0 l 126 0 l 126 1028 z "},"Ν":{"ha":1040,"x_min":126,"x_max":913,"o":"m 126 1028 l 336 1028 l 635 481 l 738 258 l 744 258 q 727 435 736 339 q 718 618 718 531 l 718 1028 l 913 1028 l 913 0 l 704 0 l 407 550 l 303 771 l 296 771 q 312 594 303 688 q 321 413 321 501 l 321 0 l 126 0 l 126 1028 z "},"Ξ":{"ha":883,"x_min":82,"x_max":803,"o":"m 82 172 l 803 172 l 803 0 l 82 0 l 82 172 m 192 619 l 692 619 l 692 447 l 192 447 l 192 619 m 97 1028 l 786 1028 l 786 857 l 97 857 l 97 1028 z "},"Ο":{"ha":1069,"x_min":75,"x_max":994,"o":"m 535 -19 q 348 17 432 -19 q 203 124 264 54 q 108 294 142 194 q 75 518 75 393 q 108 742 75 643 q 203 908 142 840 q 348 1012 264 976 q 535 1047 432 1047 q 721 1011 636 1047 q 867 908 806 975 q 961 742 928 840 q 994 518 994 643 q 961 294 994 393 q 867 124 928 194 q 721 17 806 54 q 535 -19 636 -19 m 535 158 q 638 183 592 158 q 717 256 685 208 q 767 369 750 303 q 785 518 785 436 q 717 778 785 685 q 535 871 650 871 q 352 778 419 871 q 285 518 285 685 q 302 369 285 436 q 352 256 319 303 q 431 183 385 208 q 535 158 478 158 z "},"Π":{"ha":1036,"x_min":126,"x_max":910,"o":"m 126 1028 l 910 1028 l 910 0 l 706 0 l 706 857 l 332 857 l 332 0 l 126 0 l 126 1028 z "},"Ρ":{"ha":926,"x_min":126,"x_max":867,"o":"m 126 1028 l 464 1028 q 622 1012 549 1028 q 750 958 696 996 q 835 859 804 921 q 867 706 867 797 q 835 553 867 618 q 751 447 804 489 q 625 385 697 406 q 469 365 553 365 l 332 365 l 332 0 l 126 0 l 126 1028 m 456 528 q 665 706 665 528 q 610 831 665 796 q 449 865 556 865 l 332 865 l 332 528 l 456 528 z "},"Σ":{"ha":861,"x_min":63,"x_max":806,"o":"m 63 124 l 390 521 l 68 906 l 68 1028 l 761 1028 l 761 857 l 324 857 l 596 525 l 318 172 l 806 172 l 806 0 l 63 0 l 63 124 z "},"Τ":{"ha":868,"x_min":42,"x_max":828,"o":"m 331 857 l 42 857 l 42 1028 l 828 1028 l 828 857 l 536 857 l 536 0 l 331 0 l 331 857 z "},"Υ":{"ha":807,"x_min":-8,"x_max":815,"o":"m 300 376 l -8 1028 l 210 1028 l 313 778 q 356 665 335 719 q 401 550 378 610 l 407 550 q 453 665 431 610 q 499 778 476 719 l 601 1028 l 815 1028 l 506 376 l 506 0 l 300 0 l 300 376 z "},"Φ":{"ha":1181,"x_min":75,"x_max":1104,"o":"m 682 260 q 848 342 786 274 q 910 518 910 410 q 848 692 910 626 q 682 771 786 758 l 682 260 m 500 771 q 332 692 394 758 q 269 518 269 626 q 332 341 269 410 q 500 260 394 272 l 500 771 m 682 926 q 856 890 778 919 q 989 808 933 860 q 1074 683 1044 756 q 1104 518 1104 611 q 1074 353 1104 426 q 989 226 1044 279 q 856 143 933 174 q 682 106 778 113 l 682 -35 l 500 -35 l 500 104 q 326 142 404 111 q 192 226 247 174 q 106 353 136 279 q 75 518 75 426 q 106 684 75 611 q 192 808 136 757 q 326 890 247 860 q 500 926 404 919 l 500 1064 l 682 1064 l 682 926 z "},"Χ":{"ha":871,"x_min":19,"x_max":851,"o":"m 308 531 l 38 1028 l 265 1028 l 368 817 q 403 742 386 781 q 444 654 421 703 l 451 654 q 487 742 471 703 q 519 817 503 781 l 617 1028 l 833 1028 l 563 521 l 851 0 l 624 0 l 508 228 q 470 309 489 268 q 428 397 451 350 l 422 397 q 385 309 403 350 q 347 228 367 268 l 238 0 l 19 0 l 308 531 z "},"Ψ":{"ha":1163,"x_min":86,"x_max":1075,"o":"m 1075 1028 l 1075 775 q 1048 595 1075 671 q 969 469 1021 519 q 844 390 918 418 q 676 357 769 363 l 676 0 l 485 0 l 485 357 q 317 390 392 363 q 192 469 243 418 q 113 595 140 519 q 86 775 86 671 l 86 1028 l 286 1028 l 286 788 q 337 588 286 649 q 485 518 388 528 l 485 1028 l 676 1028 l 676 518 q 824 588 774 528 q 874 788 874 649 l 874 1028 l 1075 1028 z "},"Ω":{"ha":1107,"x_min":71,"x_max":1036,"o":"m 71 165 l 253 165 l 253 171 q 197 238 225 199 q 145 326 168 278 q 108 434 122 375 q 93 561 93 493 q 126 758 93 668 q 219 912 158 847 q 364 1012 279 976 q 553 1047 449 1047 q 742 1012 657 1047 q 887 912 826 976 q 981 758 947 847 q 1014 561 1014 668 q 999 434 1014 493 q 962 326 985 375 q 910 238 939 278 q 854 171 882 199 l 854 165 l 1036 165 l 1036 0 l 631 0 l 631 149 q 758 315 714 221 q 803 542 803 408 q 786 674 803 614 q 737 778 769 735 q 658 847 704 822 q 553 871 611 871 q 448 847 494 871 q 369 778 401 822 q 320 674 338 735 q 303 542 303 614 q 348 315 303 408 q 476 149 393 221 l 476 0 l 71 0 l 71 165 z "},"α":{"ha":922,"x_min":61,"x_max":911,"o":"m 369 -19 q 243 8 300 -19 q 146 86 186 35 q 83 213 106 138 q 61 382 61 288 q 90 557 61 479 q 165 688 118 635 q 274 769 213 740 q 404 797 336 797 q 531 758 472 797 q 625 629 589 719 l 631 629 l 658 778 l 858 778 q 826 628 843 707 q 793 475 808 550 q 768 333 778 400 q 758 219 758 267 q 780 164 758 181 q 835 147 801 147 q 886 157 861 147 l 911 6 q 860 -12 892 -6 q 785 -19 829 -19 q 659 12 706 -19 q 597 118 613 43 l 592 118 q 369 -19 510 -19 m 417 149 q 474 163 446 149 q 524 203 501 178 q 560 263 546 229 q 578 336 575 297 l 588 474 q 522 594 561 558 q 433 629 482 629 q 373 615 403 629 q 320 570 343 600 q 283 494 297 540 q 269 385 269 447 q 309 206 269 264 q 417 149 349 149 z "},"β":{"ha":931,"x_min":108,"x_max":871,"o":"m 108 744 q 129 897 108 826 q 193 1018 150 967 q 302 1099 236 1069 q 458 1128 368 1128 q 580 1111 521 1128 q 685 1059 639 1094 q 758 970 731 1024 q 786 844 786 917 q 751 704 786 764 q 649 603 715 644 l 649 596 q 737 563 696 588 q 808 501 778 539 q 854 416 838 464 q 871 311 871 368 q 844 166 871 228 q 773 63 817 104 q 674 1 729 21 q 561 -19 618 -19 q 426 3 494 -19 q 299 90 358 26 q 307 -97 304 -6 q 314 -279 310 -187 l 108 -279 l 108 744 m 504 149 q 568 160 538 149 q 622 193 599 171 q 658 248 644 215 q 671 325 671 281 q 630 443 671 394 q 507 492 589 492 q 471 489 488 492 q 439 482 454 486 l 413 632 q 551 703 511 649 q 590 826 590 757 q 551 932 590 897 q 460 967 511 967 q 347 904 385 967 q 306 729 308 842 q 300 490 301 608 q 299 250 299 372 q 401 169 346 189 q 504 149 456 149 z "},"γ":{"ha":818,"x_min":1,"x_max":790,"o":"m 296 -279 q 301 -233 299 -254 q 303 -188 303 -211 q 305 -137 304 -165 q 306 -71 306 -108 q 281 115 306 8 q 215 335 257 222 q 118 556 174 447 q 1 750 63 665 l 208 797 q 268 692 238 754 q 328 557 299 631 q 383 400 357 483 q 429 232 410 317 l 436 232 q 540 495 501 360 q 588 778 578 631 l 790 778 q 752 592 774 679 q 697 416 731 504 q 613 231 663 328 q 488 17 563 135 q 503 -134 499 -56 q 507 -279 507 -212 l 296 -279 l 296 -279 z "},"δ":{"ha":856,"x_min":68,"x_max":790,"o":"m 433 147 q 551 197 508 147 q 593 350 593 247 q 555 478 593 425 q 458 576 517 532 q 315 494 368 553 q 263 340 263 436 q 276 258 263 294 q 314 197 290 222 q 368 160 338 172 q 433 147 399 147 m 718 913 q 556 959 631 943 q 422 975 482 975 q 356 960 376 975 q 336 924 336 946 q 354 876 336 900 q 403 828 372 853 q 474 776 433 804 q 558 717 514 749 q 653 642 610 679 q 726 560 696 604 q 774 465 757 517 q 790 350 790 414 q 766 200 790 268 q 694 83 742 132 q 580 8 647 35 q 428 -19 513 -19 q 290 5 356 -19 q 176 75 225 29 q 97 188 126 121 q 68 338 68 254 q 88 453 68 401 q 143 547 108 506 q 224 620 178 589 q 322 672 271 651 q 256 726 288 697 q 199 788 224 754 q 160 859 175 821 q 146 942 146 897 q 163 1013 146 979 q 213 1072 179 1046 q 300 1113 247 1097 q 424 1128 353 1128 q 592 1110 504 1128 q 764 1065 679 1093 l 718 913 z "},"ε":{"ha":733,"x_min":61,"x_max":701,"o":"m 415 -19 q 277 -4 342 -19 q 165 42 213 11 q 89 117 117 72 q 61 219 61 161 q 103 343 61 299 q 215 406 146 388 l 215 413 q 163 440 185 422 q 126 481 140 458 q 103 528 111 503 q 96 578 96 553 q 122 676 96 635 q 194 744 149 717 q 297 784 239 771 q 419 797 356 797 q 558 776 490 797 q 683 715 625 754 l 607 583 q 429 639 526 639 q 333 615 369 639 q 296 550 296 592 q 327 488 296 510 q 424 467 358 467 q 474 469 447 467 q 529 474 501 471 l 529 325 q 463 330 496 328 q 399 332 431 332 q 261 239 261 332 q 306 165 261 192 q 436 138 350 138 q 524 152 476 138 q 619 203 572 167 l 701 74 q 558 0 626 19 q 415 -19 490 -19 z "},"ζ":{"ha":715,"x_min":68,"x_max":693,"o":"m 440 -239 q 495 -162 476 -192 q 514 -101 514 -132 q 507 -73 514 -85 q 483 -51 500 -61 q 435 -32 465 -40 q 357 -12 404 -24 q 249 23 301 0 q 157 88 197 46 q 92 196 117 131 q 68 357 68 261 q 99 511 68 431 q 182 671 129 592 q 306 824 235 750 q 456 960 376 899 q 385 958 428 958 q 295 956 343 957 q 200 952 247 954 q 117 947 153 950 l 117 1108 l 681 1108 l 681 947 l 672 947 q 524 827 596 899 q 398 675 453 756 q 310 514 343 594 q 276 368 276 433 q 288 278 276 315 q 322 215 299 240 q 384 173 346 189 q 475 147 422 157 q 575 120 533 136 q 642 81 617 104 q 681 27 668 58 q 693 -47 693 -4 q 672 -153 693 -86 q 600 -293 650 -219 l 440 -239 z "},"η":{"ha":876,"x_min":94,"x_max":775,"o":"m 569 -279 q 574 -87 572 -187 q 578 110 576 13 q 582 298 581 208 q 583 460 583 388 q 561 586 583 550 q 483 622 539 622 q 397 592 435 622 q 313 493 358 561 l 313 0 l 110 0 l 110 546 q 107 653 110 592 q 94 778 104 714 l 276 778 l 290 635 l 296 635 q 409 753 349 708 q 551 797 469 797 q 724 715 672 797 q 775 485 775 632 l 775 -279 l 569 -279 l 569 -279 z "},"θ":{"ha":854,"x_min":81,"x_max":772,"o":"m 279 490 q 294 324 282 390 q 326 218 307 257 q 372 163 346 179 q 426 147 397 147 q 481 163 456 147 q 526 218 507 179 q 558 324 546 257 q 574 490 571 390 l 279 490 m 574 628 q 558 791 571 726 q 526 894 546 856 q 481 947 507 932 q 426 963 456 963 q 372 947 397 963 q 327 894 347 932 q 294 791 307 856 q 279 628 282 726 l 574 628 m 426 1128 q 569 1092 506 1128 q 678 985 633 1057 q 748 807 724 914 q 772 557 772 700 q 748 303 772 411 q 678 123 724 194 q 569 16 633 51 q 426 -19 506 -19 q 285 16 349 -19 q 176 123 221 51 q 106 303 131 194 q 81 557 81 411 q 106 808 81 700 q 176 986 131 915 q 285 1092 221 1057 q 426 1128 349 1128 z "},"ι":{"ha":457,"x_min":110,"x_max":436,"o":"m 311 -19 q 215 -2 253 -19 q 153 47 176 15 q 119 122 129 78 q 110 221 110 167 l 110 778 l 315 778 q 311 630 314 707 q 306 478 308 553 q 303 334 304 403 q 301 211 301 265 q 317 161 301 175 q 364 147 332 147 q 411 156 386 147 l 436 6 q 385 -12 413 -6 q 311 -19 357 -19 z "},"κ":{"ha":838,"x_min":93,"x_max":846,"o":"m 617 -17 q 513 134 568 46 q 404 326 457 222 l 376 294 q 318 190 335 250 q 301 44 301 129 l 301 0 l 110 0 l 110 546 q 107 655 110 592 q 93 778 104 718 l 293 778 q 306 692 303 742 q 308 588 308 642 l 308 417 l 314 417 q 408 551 358 488 q 515 666 458 615 q 632 751 571 717 q 760 797 693 786 l 775 606 q 657 556 713 590 q 535 461 601 522 q 601 342 564 404 q 680 218 639 279 q 763 101 721 157 q 846 0 806 44 l 617 -17 z "},"λ":{"ha":844,"x_min":22,"x_max":838,"o":"m 22 0 l 357 785 l 351 808 q 292 919 332 882 q 199 957 251 957 q 139 949 163 957 q 90 931 115 942 l 44 1096 q 118 1119 79 1110 q 222 1128 157 1128 q 428 1048 351 1128 q 557 799 506 968 l 838 0 l 619 0 l 451 557 l 444 557 l 242 -17 l 22 0 z "},"μ":{"ha":922,"x_min":110,"x_max":904,"o":"m 110 778 l 313 778 l 313 318 q 338 193 313 231 q 421 156 364 156 q 501 180 465 156 q 574 271 538 204 l 574 778 l 779 778 q 775 630 778 707 q 770 478 772 553 q 767 334 768 403 q 765 211 765 265 q 783 161 765 175 q 832 147 800 147 q 881 156 856 147 l 904 6 q 853 -12 882 -6 q 781 -19 825 -19 q 596 117 628 -19 l 592 117 q 513 20 560 53 q 411 -12 467 -12 q 351 -3 379 -12 q 300 35 322 6 q 301 -52 300 -12 q 305 -128 303 -92 q 309 -201 307 -164 q 315 -279 311 -237 l 110 -279 l 110 778 z "},"ν":{"ha":803,"x_min":1,"x_max":775,"o":"m 292 0 q 244 212 274 108 q 176 411 214 315 q 93 592 138 507 q 1 750 49 678 l 208 797 q 274 667 242 742 q 335 513 307 593 q 386 354 364 433 q 421 208 408 275 l 428 208 q 525 490 489 344 q 572 778 561 636 l 775 778 q 735 581 758 675 q 676 392 711 486 q 595 202 642 299 q 486 0 549 106 l 292 0 l 292 0 z "},"ξ":{"ha":724,"x_min":32,"x_max":701,"o":"m 447 -239 q 502 -162 483 -192 q 521 -101 521 -132 q 514 -72 521 -85 q 489 -50 507 -60 q 440 -31 471 -40 q 364 -12 410 -22 q 249 21 303 0 q 156 77 196 42 q 92 165 115 113 q 69 292 69 217 q 87 390 69 343 q 135 474 104 436 q 206 540 165 513 q 290 582 246 567 l 290 588 q 181 671 221 615 q 142 801 142 726 q 163 892 142 850 q 225 960 185 935 q 179 958 200 958 q 137 956 158 957 q 90 952 115 954 q 32 947 65 950 l 32 1108 l 686 1108 l 686 947 l 503 947 q 391 907 436 947 q 346 796 346 867 q 358 735 346 764 q 390 685 369 707 q 439 651 411 664 q 499 639 467 639 q 555 641 532 639 q 611 653 578 643 l 611 490 q 548 501 576 499 q 488 503 519 503 q 408 490 446 503 q 341 454 369 478 q 296 397 313 431 q 279 322 279 364 q 293 247 279 276 q 334 199 307 218 q 401 169 361 181 q 493 147 440 157 q 594 119 554 135 q 658 81 635 104 q 692 27 682 58 q 701 -47 701 -4 q 679 -153 701 -86 q 607 -293 657 -219 l 447 -239 z "},"ο":{"ha":864,"x_min":61,"x_max":803,"o":"m 432 -19 q 291 8 358 -19 q 172 88 224 36 q 91 216 121 140 q 61 388 61 292 q 91 561 61 485 q 172 690 121 638 q 291 769 224 742 q 432 797 358 797 q 573 769 506 797 q 691 690 640 742 q 772 561 742 638 q 803 388 803 485 q 772 216 803 292 q 691 88 742 140 q 573 8 640 36 q 432 -19 506 -19 m 432 147 q 553 212 514 147 q 593 388 593 276 q 553 565 593 500 q 432 631 514 631 q 310 565 350 631 q 269 388 269 500 q 310 212 269 276 q 432 147 350 147 z "},"π":{"ha":979,"x_min":29,"x_max":943,"o":"m 806 -19 q 705 -2 746 -19 q 639 47 664 15 q 603 125 614 79 q 592 228 592 171 q 592 292 592 249 q 594 390 593 336 q 597 503 596 444 q 599 615 599 563 l 392 615 q 379 306 392 468 q 351 -11 367 144 l 146 0 q 188 319 174 160 q 201 615 201 478 l 29 615 l 29 768 l 144 778 l 943 778 l 943 615 l 793 615 q 788 497 789 560 q 785 378 786 435 q 783 279 783 322 q 783 218 783 236 q 801 163 783 178 q 854 147 818 147 q 880 149 865 147 q 913 153 894 150 l 938 3 q 882 -12 915 -6 q 806 -19 849 -19 z "},"ρ":{"ha":888,"x_min":103,"x_max":822,"o":"m 103 379 q 131 565 103 486 q 208 696 158 644 q 323 772 257 747 q 467 797 389 797 q 616 770 550 797 q 728 692 682 743 q 798 568 774 642 q 822 401 822 494 q 795 223 822 301 q 723 91 768 144 q 620 9 678 38 q 500 -19 563 -19 q 393 1 447 -19 q 294 75 339 22 q 302 -104 299 -21 q 308 -279 306 -187 l 103 -279 l 103 379 m 454 149 q 516 164 488 149 q 567 210 544 179 q 601 288 589 242 q 614 399 614 335 q 576 570 614 511 q 460 629 539 629 q 342 567 389 629 q 296 393 296 506 l 296 222 q 376 163 336 176 q 454 149 415 149 z "},"σ":{"ha":892,"x_min":61,"x_max":874,"o":"m 424 -19 q 283 7 349 -19 q 167 84 217 33 q 90 209 118 135 q 61 381 61 283 q 92 556 61 481 q 176 680 124 631 q 294 753 228 729 q 433 778 361 778 l 874 778 l 874 608 q 813 615 842 613 q 758 619 785 617 q 703 622 731 621 q 644 625 675 624 l 644 618 q 742 514 707 583 q 776 349 776 444 q 750 194 776 263 q 676 78 724 126 q 565 6 629 31 q 424 -19 500 -19 m 426 147 q 540 206 497 147 q 582 368 582 264 q 572 462 582 418 q 542 539 561 506 q 493 592 522 572 q 426 611 464 611 q 313 556 357 611 q 269 381 269 501 q 313 208 269 269 q 426 147 356 147 z "},"τ":{"ha":761,"x_min":42,"x_max":721,"o":"m 481 -19 q 385 -2 424 -19 q 324 47 347 15 q 290 125 300 79 q 279 228 279 171 l 279 617 l 42 617 l 42 768 l 156 778 l 721 778 l 721 617 l 478 617 q 472 404 474 507 q 471 218 471 301 q 488 163 471 178 q 532 147 504 147 q 572 149 553 147 q 617 158 592 151 l 643 6 q 569 -12 610 -6 q 481 -19 528 -19 z "},"υ":{"ha":828,"x_min":74,"x_max":756,"o":"m 406 -19 q 263 3 324 -19 q 163 69 203 26 q 104 172 124 113 q 85 307 85 232 q 88 426 85 367 q 90 546 90 485 q 88 653 90 592 q 74 778 85 714 l 271 778 q 283 690 281 738 q 286 588 286 642 q 285 526 286 561 q 281 451 283 490 q 278 369 279 411 q 276 290 276 328 q 314 181 276 215 q 406 147 351 147 q 513 206 474 147 q 551 393 551 264 q 540 559 551 472 q 496 751 528 646 l 693 797 q 739 601 722 700 q 756 403 756 503 q 665 92 756 203 q 406 -19 574 -19 z "},"φ":{"ha":1138,"x_min":61,"x_max":1076,"o":"m 663 140 q 810 208 753 144 q 868 389 868 272 q 812 570 868 507 q 663 638 756 633 l 663 140 m 475 638 q 327 570 385 633 q 269 389 269 507 q 327 208 269 272 q 475 140 385 144 l 475 638 m 663 790 q 818 758 743 786 q 951 680 893 731 q 1042 556 1008 629 q 1076 389 1076 482 q 1042 222 1076 294 q 949 98 1007 149 q 817 19 892 47 q 663 -14 743 -10 l 663 -279 l 475 -279 l 475 -12 q 319 19 394 -8 q 188 99 244 47 q 96 222 131 150 q 61 389 61 294 q 96 555 61 482 q 188 679 131 628 q 319 758 244 731 q 475 790 394 786 l 475 986 l 663 986 l 663 790 z "},"χ":{"ha":810,"x_min":14,"x_max":829,"o":"m 14 -279 l 313 260 l 14 750 l 215 797 l 411 439 l 417 439 l 571 778 l 783 778 l 514 264 l 829 -253 l 628 -297 l 417 96 l 411 96 l 224 -297 l 14 -279 z "},"ψ":{"ha":1157,"x_min":76,"x_max":1081,"o":"m 1019 797 q 1065 619 1049 707 q 1081 436 1081 531 q 976 101 1081 218 q 669 -19 871 -15 l 669 -279 l 482 -279 l 482 -19 q 301 13 375 -18 q 180 97 226 44 q 113 218 133 149 q 92 367 92 288 l 92 546 q 90 653 92 592 q 76 778 88 714 l 274 778 q 285 690 282 738 q 288 588 288 642 q 287 530 288 563 q 286 465 286 497 q 285 403 286 433 q 285 351 285 372 q 295 272 285 310 q 328 205 306 233 q 390 159 351 176 q 482 142 428 142 l 482 986 l 669 986 l 669 142 q 758 160 719 143 q 824 210 797 176 q 863 298 850 244 q 876 428 876 351 q 865 578 876 503 q 822 751 853 654 l 1019 797 z "},"ω":{"ha":1157,"x_min":68,"x_max":1088,"o":"m 363 -19 q 149 85 229 -19 q 68 388 68 189 q 78 494 68 439 q 104 601 88 549 q 144 704 121 654 q 194 797 167 754 l 385 722 q 293 540 325 626 q 261 349 261 453 q 290 201 261 256 q 372 147 318 147 q 454 184 424 147 q 485 304 485 221 q 483 354 485 331 q 480 401 482 378 q 474 452 478 425 q 467 513 471 479 l 683 513 q 676 452 679 479 q 672 401 674 425 q 668 354 669 378 q 667 304 667 331 q 695 181 667 215 q 772 147 724 147 q 852 206 821 147 q 883 381 883 264 q 878 474 883 431 q 860 557 872 517 q 827 638 847 597 q 778 726 807 679 l 964 797 q 1053 614 1019 710 q 1088 393 1088 518 q 1013 87 1088 193 q 800 -19 939 -19 q 671 14 731 -19 q 579 126 611 47 l 574 126 q 487 14 542 47 q 363 -19 432 -19 z "},"Ё":{"ha":854,"x_min":126,"x_max":772,"o":"m 126 1028 l 757 1028 l 757 857 l 332 857 l 332 619 l 693 619 l 693 447 l 332 447 l 332 172 l 772 172 l 772 0 l 126 0 l 126 1028 m 282 1110 q 209 1138 238 1110 q 181 1211 181 1167 q 209 1283 181 1254 q 282 1311 238 1311 q 355 1283 326 1311 q 383 1211 383 1254 q 355 1138 383 1167 q 282 1110 326 1110 m 625 1110 q 552 1138 581 1110 q 524 1211 524 1167 q 552 1283 524 1254 q 625 1311 581 1311 q 697 1283 669 1311 q 725 1211 725 1254 q 697 1138 725 1167 q 625 1110 669 1110 z "},"А":{"ha":890,"x_min":-6,"x_max":896,"o":"m 564 424 l 533 536 q 488 703 510 617 q 443 872 467 789 l 438 872 q 396 702 418 788 q 350 536 374 617 l 319 424 l 564 424 m 608 264 l 275 264 l 203 0 l -6 0 l 324 1028 l 565 1028 l 896 0 l 681 0 l 608 264 z "},"Б":{"ha":938,"x_min":126,"x_max":878,"o":"m 126 1028 l 811 1028 l 811 857 l 332 857 l 332 619 l 489 619 q 641 604 569 619 q 765 553 713 589 q 847 462 817 518 q 878 322 878 406 q 849 175 878 236 q 768 75 819 114 q 647 18 717 36 q 494 0 576 0 l 126 0 l 126 1028 m 471 158 q 626 197 575 158 q 678 319 678 236 q 625 433 678 399 q 469 467 572 467 l 332 467 l 332 158 l 471 158 z "},"В":{"ha":946,"x_min":126,"x_max":892,"o":"m 126 1028 l 467 1028 q 614 1015 546 1028 q 732 974 682 1003 q 810 896 782 944 q 839 775 839 847 q 829 704 839 739 q 801 640 819 669 q 758 587 783 610 q 699 553 732 564 l 699 546 q 837 467 782 526 q 892 303 892 407 q 861 168 892 225 q 777 74 831 111 q 651 18 724 36 q 493 0 578 0 l 126 0 l 126 1028 m 451 610 q 594 646 550 610 q 639 744 639 682 q 593 842 639 813 q 454 871 547 871 l 332 871 l 332 610 l 451 610 m 475 158 q 636 197 581 158 q 692 315 692 235 q 637 424 692 390 q 475 457 582 457 l 332 457 l 332 158 l 475 158 z "},"Г":{"ha":811,"x_min":126,"x_max":760,"o":"m 126 1028 l 760 1028 l 760 857 l 332 857 l 332 0 l 126 0 l 126 1028 z "},"Д":{"ha":1042,"x_min":26,"x_max":1015,"o":"m 464 857 q 449 763 456 804 q 435 681 442 721 q 421 598 428 640 q 404 504 414 556 q 356 313 383 396 q 293 172 329 231 l 689 172 l 689 857 l 464 857 m 1015 172 l 1015 44 l 997 -296 l 815 -296 l 815 0 l 226 0 l 226 -296 l 44 -296 l 26 44 l 26 172 l 74 172 q 108 199 90 178 q 144 263 126 221 q 181 370 163 304 q 219 532 200 436 q 242 660 232 603 q 263 774 253 718 q 284 892 274 831 q 307 1028 294 953 l 893 1028 l 893 172 l 1015 172 z "},"Е":{"ha":854,"x_min":126,"x_max":772,"o":"m 126 1028 l 757 1028 l 757 857 l 332 857 l 332 619 l 693 619 l 693 447 l 332 447 l 332 172 l 772 172 l 772 0 l 126 0 l 126 1028 z "},"Ж":{"ha":1340,"x_min":4,"x_max":1336,"o":"m 1336 0 l 1115 0 l 885 451 l 767 451 l 767 0 l 572 0 l 572 451 l 456 451 l 226 0 l 4 0 l 307 544 l 213 753 q 155 836 182 817 q 93 856 128 856 q 74 854 86 856 q 50 849 63 853 l 17 1035 q 53 1044 32 1042 q 93 1047 74 1047 q 170 1039 135 1047 q 238 1009 206 1031 q 298 951 269 988 q 354 861 326 915 l 468 617 l 572 617 l 572 1028 l 767 1028 l 767 617 l 871 617 l 986 861 q 1042 951 1013 915 q 1103 1009 1071 988 q 1170 1039 1135 1031 q 1247 1047 1206 1047 q 1288 1044 1267 1047 q 1324 1035 1308 1042 l 1290 849 q 1267 854 1279 853 q 1247 856 1254 856 q 1184 836 1211 856 q 1128 753 1157 817 l 1033 544 l 1336 0 z "},"З":{"ha":885,"x_min":58,"x_max":831,"o":"m 435 -19 q 235 14 331 -19 q 58 125 139 47 l 167 265 q 293 183 229 207 q 432 158 357 158 q 574 199 518 158 q 629 314 629 239 q 576 423 629 389 q 417 457 522 457 l 286 457 l 286 610 l 386 610 q 535 644 490 610 q 579 743 579 679 q 534 840 579 810 q 418 871 489 871 q 301 849 354 871 q 199 786 249 826 l 94 922 q 245 1015 161 982 q 425 1047 329 1047 q 687 975 594 1047 q 779 775 779 903 q 744 639 779 699 q 643 550 710 579 l 643 543 q 717 513 683 533 q 776 460 751 492 q 816 388 801 429 q 831 300 831 347 q 800 163 831 222 q 716 63 769 103 q 590 1 663 22 q 435 -19 518 -19 z "},"И":{"ha":1057,"x_min":126,"x_max":931,"o":"m 126 1028 l 329 1028 l 329 618 q 319 435 329 531 q 303 258 310 339 l 310 258 l 414 479 l 714 1028 l 931 1028 l 931 0 l 728 0 l 728 413 q 737 594 728 501 q 754 771 746 688 l 747 771 l 643 551 l 343 0 l 126 0 l 126 1028 z "},"Й":{"ha":1057,"x_min":126,"x_max":931,"o":"m 126 1028 l 329 1028 l 329 618 q 319 435 329 531 q 303 258 310 339 l 310 258 l 414 479 l 714 1028 l 931 1028 l 931 0 l 728 0 l 728 413 q 737 594 728 501 q 754 771 746 688 l 747 771 l 643 551 l 343 0 l 126 0 l 126 1028 m 535 1114 q 413 1131 463 1114 q 331 1176 363 1147 q 283 1243 299 1204 q 267 1328 268 1282 l 439 1328 q 464 1247 442 1278 q 535 1217 486 1217 q 606 1247 583 1217 q 631 1328 628 1278 l 803 1328 q 785 1243 800 1282 q 740 1176 771 1204 q 658 1131 708 1147 q 535 1114 607 1114 z "},"К":{"ha":963,"x_min":126,"x_max":963,"o":"m 963 0 l 747 0 l 463 451 l 332 451 l 332 0 l 126 0 l 126 1028 l 332 1028 l 332 617 l 463 617 l 599 861 q 658 950 629 914 q 719 1008 688 986 q 785 1038 750 1029 q 861 1047 819 1047 q 901 1044 881 1047 q 938 1035 922 1042 l 903 849 q 880 854 892 853 q 861 856 868 856 q 828 851 843 856 q 801 835 814 846 q 773 803 788 824 q 740 753 758 783 l 624 547 l 963 0 z "},"Л":{"ha":1024,"x_min":-11,"x_max":897,"o":"m 100 -19 q 38 -16 63 -19 q -11 -4 13 -12 l 26 181 q 47 176 38 178 q 71 174 57 174 q 107 181 90 174 q 140 215 124 189 q 174 292 157 242 q 208 426 190 342 q 267 726 240 578 q 321 1028 293 874 l 897 1028 l 897 0 l 693 0 l 693 857 l 479 857 q 438 628 458 739 q 397 406 418 518 q 346 197 374 279 q 283 66 318 114 q 203 -1 247 18 q 100 -19 158 -19 z "},"М":{"ha":1186,"x_min":126,"x_max":1060,"o":"m 126 1028 l 354 1028 l 529 547 q 561 449 546 499 q 592 349 576 399 l 599 349 q 630 449 615 399 q 661 547 644 499 l 832 1028 l 1060 1028 l 1060 0 l 872 0 l 872 429 q 875 509 872 465 q 881 598 878 553 q 889 687 885 643 q 897 767 893 731 l 892 767 l 808 525 l 650 93 l 532 93 l 372 525 l 290 767 l 285 767 q 293 687 289 731 q 301 598 297 643 q 308 509 306 553 q 311 429 311 465 l 311 0 l 126 0 l 126 1028 z "},"Н":{"ha":1051,"x_min":126,"x_max":925,"o":"m 126 1028 l 332 1028 l 332 624 l 721 624 l 721 1028 l 925 1028 l 925 0 l 721 0 l 721 444 l 332 444 l 332 0 l 126 0 l 126 1028 z "},"О":{"ha":1069,"x_min":75,"x_max":994,"o":"m 535 -19 q 348 17 432 -19 q 203 124 264 54 q 108 294 142 194 q 75 518 75 393 q 108 742 75 643 q 203 908 142 840 q 348 1012 264 976 q 535 1047 432 1047 q 721 1011 636 1047 q 867 908 806 975 q 961 742 928 840 q 994 518 994 643 q 961 294 994 393 q 867 124 928 194 q 721 17 806 54 q 535 -19 636 -19 m 535 158 q 638 183 592 158 q 717 256 685 208 q 767 369 750 303 q 785 518 785 436 q 717 778 785 685 q 535 871 650 871 q 352 778 419 871 q 285 518 285 685 q 302 369 285 436 q 352 256 319 303 q 431 183 385 208 q 535 158 478 158 z "},"П":{"ha":1036,"x_min":126,"x_max":910,"o":"m 126 1028 l 910 1028 l 910 0 l 706 0 l 706 857 l 332 857 l 332 0 l 126 0 l 126 1028 z "},"Р":{"ha":926,"x_min":126,"x_max":867,"o":"m 126 1028 l 464 1028 q 622 1012 549 1028 q 750 958 696 996 q 835 859 804 921 q 867 706 867 797 q 835 553 867 618 q 751 447 804 489 q 625 385 697 406 q 469 365 553 365 l 332 365 l 332 0 l 126 0 l 126 1028 m 456 528 q 665 706 665 528 q 610 831 665 796 q 449 865 556 865 l 332 865 l 332 528 l 456 528 z "},"С":{"ha":913,"x_min":75,"x_max":874,"o":"m 546 -19 q 363 15 449 -19 q 213 117 276 50 q 112 282 149 183 q 75 510 75 381 q 113 736 75 636 q 217 906 151 836 q 369 1011 282 975 q 553 1047 456 1047 q 728 1008 651 1047 q 854 915 804 968 l 746 785 q 661 847 707 822 q 557 871 615 871 q 449 847 499 871 q 363 776 399 822 q 306 665 326 731 q 285 517 285 600 q 303 367 285 433 q 358 253 322 300 q 442 183 393 207 q 553 158 492 158 q 672 187 619 158 q 765 260 724 215 l 874 132 q 728 19 810 57 q 546 -19 646 -19 z "},"Т":{"ha":868,"x_min":42,"x_max":828,"o":"m 331 857 l 42 857 l 42 1028 l 828 1028 l 828 857 l 536 857 l 536 0 l 331 0 l 331 857 z "},"У":{"ha":856,"x_min":4,"x_max":863,"o":"m 239 -19 q 168 -14 197 -19 q 115 0 139 -8 l 154 178 q 183 170 168 174 q 228 167 199 167 q 336 224 304 167 l 353 263 l 4 1028 l 219 1028 l 360 686 l 443 451 l 450 451 l 529 686 l 657 1028 l 863 1028 l 539 221 q 424 45 494 110 q 239 -19 353 -19 z "},"Ф":{"ha":1189,"x_min":72,"x_max":1118,"o":"m 683 275 q 862 342 797 282 q 926 518 926 403 q 862 692 926 633 q 683 757 797 750 l 683 275 m 506 757 q 328 692 392 750 q 264 518 264 633 q 328 342 264 403 q 506 275 392 282 l 506 757 m 683 908 q 865 877 785 904 q 1002 801 946 850 q 1088 682 1058 753 q 1118 518 1118 611 q 1088 353 1118 425 q 1002 232 1058 282 q 865 155 946 182 q 683 122 785 128 l 683 -19 l 506 -19 l 506 122 q 324 155 404 128 q 188 232 244 182 q 102 353 132 282 q 72 518 72 425 q 102 682 72 611 q 188 801 132 753 q 324 877 244 850 q 506 908 404 904 l 506 1047 l 683 1047 l 683 908 z "},"Х":{"ha":871,"x_min":19,"x_max":851,"o":"m 308 531 l 38 1028 l 265 1028 l 368 817 q 403 742 386 781 q 444 654 421 703 l 451 654 q 487 742 471 703 q 519 817 503 781 l 617 1028 l 833 1028 l 563 521 l 851 0 l 624 0 l 508 228 q 470 309 489 268 q 428 397 451 350 l 422 397 q 385 309 403 350 q 347 228 367 268 l 238 0 l 19 0 l 308 531 z "},"Ц":{"ha":1043,"x_min":126,"x_max":1017,"o":"m 1017 172 l 1017 44 l 999 -296 l 817 -296 l 817 0 l 126 0 l 126 1028 l 332 1028 l 332 172 l 690 172 l 690 1028 l 894 1028 l 894 172 l 1017 172 z "},"Ч":{"ha":978,"x_min":99,"x_max":851,"o":"m 647 429 q 574 419 611 422 q 483 417 536 417 q 322 436 393 417 q 201 499 250 456 q 125 611 151 542 q 99 781 99 681 l 99 1028 l 299 1028 l 299 781 q 349 624 299 668 q 504 581 400 581 q 587 584 553 581 q 647 592 621 588 l 647 1028 l 851 1028 l 851 0 l 647 0 l 647 429 z "},"Ш":{"ha":1415,"x_min":126,"x_max":1288,"o":"m 126 1028 l 326 1028 l 326 172 l 610 172 l 610 1028 l 806 1028 l 806 172 l 1088 172 l 1088 1028 l 1288 1028 l 1288 0 l 126 0 l 126 1028 z "},"Щ":{"ha":1436,"x_min":126,"x_max":1411,"o":"m 1411 172 l 1411 44 l 1393 -296 l 1210 -296 l 1210 0 l 126 0 l 126 1028 l 326 1028 l 326 172 l 610 172 l 610 1028 l 806 1028 l 806 172 l 1088 172 l 1088 1028 l 1288 1028 l 1288 172 l 1411 172 z "},"Ъ":{"ha":1146,"x_min":42,"x_max":1085,"o":"m 350 857 l 42 857 l 42 1028 l 556 1028 l 556 642 l 682 642 q 838 624 764 642 q 966 567 911 606 q 1053 471 1021 529 q 1085 332 1085 413 q 1055 178 1085 242 q 972 76 1025 115 q 847 18 919 36 q 690 0 775 0 l 350 0 l 350 857 m 676 163 q 831 201 778 163 q 885 328 885 240 q 668 478 885 478 l 556 478 l 556 163 l 676 163 z "},"Ы":{"ha":1319,"x_min":126,"x_max":1193,"o":"m 126 1028 l 332 1028 l 332 642 l 449 642 q 608 624 535 642 q 733 569 681 607 q 816 473 786 532 q 846 332 846 414 q 815 178 846 242 q 731 76 785 115 q 605 18 678 36 q 446 0 532 0 l 126 0 l 126 1028 m 432 163 q 590 201 535 163 q 644 328 644 240 q 591 442 644 406 q 429 478 538 478 l 332 478 l 332 163 l 432 163 m 989 1028 l 1193 1028 l 1193 0 l 989 0 l 989 1028 z "},"Ь":{"ha":938,"x_min":126,"x_max":876,"o":"m 126 1028 l 332 1028 l 332 642 l 479 642 q 638 624 565 642 q 764 569 711 607 q 847 473 817 532 q 876 332 876 414 q 846 178 876 242 q 762 76 815 115 q 635 18 708 36 q 476 0 563 0 l 126 0 l 126 1028 m 463 163 q 621 201 565 163 q 676 328 676 240 q 623 442 676 406 q 461 478 569 478 l 332 478 l 332 163 l 463 163 z "},"Э":{"ha":913,"x_min":39,"x_max":838,"o":"m 57 915 q 119 965 83 942 q 196 1007 154 989 q 285 1036 238 1025 q 382 1047 332 1047 q 563 1014 479 1047 q 708 913 647 981 q 803 745 768 846 q 838 510 838 644 q 801 276 838 375 q 703 110 765 176 q 558 13 642 44 q 379 -19 475 -19 q 192 19 276 -19 q 39 132 107 57 l 147 260 q 248 187 192 215 q 375 158 304 158 q 551 227 483 158 q 632 447 618 296 l 253 447 l 253 619 l 628 619 q 544 810 610 749 q 371 871 479 871 q 260 848 310 871 q 165 785 210 825 l 57 915 z "},"Ю":{"ha":1479,"x_min":126,"x_max":1403,"o":"m 958 158 q 1058 183 1014 158 q 1132 256 1101 208 q 1178 369 1163 303 q 1193 518 1193 436 q 1132 778 1193 685 q 958 871 1071 871 q 784 778 846 871 q 722 518 722 685 q 738 369 722 436 q 784 256 754 303 q 858 183 814 208 q 958 158 901 158 m 525 624 q 573 803 538 725 q 664 936 608 882 q 794 1019 719 990 q 958 1047 868 1047 q 1142 1011 1060 1047 q 1282 908 1224 975 q 1372 742 1340 840 q 1403 518 1403 643 q 1372 294 1403 393 q 1282 124 1340 194 q 1142 17 1224 54 q 958 -19 1060 -19 q 789 13 865 -19 q 656 104 713 44 q 565 250 600 164 q 522 444 531 336 l 332 444 l 332 0 l 126 0 l 126 1028 l 332 1028 l 332 624 l 525 624 z "},"Я":{"ha":956,"x_min":22,"x_max":831,"o":"m 625 865 l 492 865 q 340 833 392 865 q 288 717 288 800 q 340 592 288 633 q 492 551 392 551 l 625 551 l 625 865 m 831 1028 l 831 0 l 625 0 l 625 389 l 490 389 l 257 0 l 22 0 l 293 417 q 144 523 201 450 q 86 717 86 596 q 116 865 86 806 q 198 961 146 925 q 321 1013 250 997 q 472 1028 392 1028 l 831 1028 z "},"а":{"ha":821,"x_min":71,"x_max":722,"o":"m 301 -19 q 206 -2 249 -19 q 134 47 164 15 q 88 119 104 78 q 71 211 71 161 q 177 405 71 336 q 518 499 283 474 q 487 595 515 557 q 386 633 458 633 q 279 613 332 633 q 172 560 226 592 l 99 694 q 250 767 168 738 q 424 797 332 797 q 647 710 572 797 q 722 454 722 624 l 722 0 l 556 0 l 540 83 l 536 83 q 426 10 485 39 q 301 -19 368 -19 m 368 140 q 447 160 413 140 q 518 217 482 181 l 518 374 q 399 350 447 364 q 321 317 350 336 q 278 276 292 299 q 265 228 265 254 q 294 161 265 182 q 368 140 324 140 z "},"б":{"ha":876,"x_min":71,"x_max":810,"o":"m 265 435 q 313 219 265 290 q 449 147 361 147 q 560 210 519 147 q 600 381 600 272 q 560 540 600 489 q 447 590 519 590 q 356 567 403 590 q 265 481 308 543 l 265 435 m 779 972 q 701 935 749 949 q 603 915 654 922 q 458 891 517 903 q 360 851 399 879 q 301 774 321 824 q 272 635 281 724 q 378 715 317 688 q 507 742 439 742 q 625 718 569 742 q 722 649 681 694 q 786 535 763 603 q 810 381 810 468 q 782 216 810 290 q 706 90 754 142 q 593 9 658 38 q 451 -19 528 -19 q 289 14 360 -19 q 169 112 218 47 q 96 269 121 176 q 71 482 71 363 q 106 776 71 663 q 206 958 142 890 q 361 1058 271 1026 q 561 1104 451 1089 q 667 1124 629 1114 q 740 1150 704 1133 l 779 972 z "},"в":{"ha":824,"x_min":110,"x_max":768,"o":"m 110 778 l 432 778 q 552 767 496 778 q 649 733 608 757 q 714 669 690 708 q 738 575 738 631 q 706 476 738 521 q 607 413 674 432 l 607 406 q 723 346 678 389 q 768 224 768 303 q 743 122 768 164 q 675 52 718 79 q 574 13 632 25 q 449 0 515 0 l 110 0 l 110 778 m 415 467 q 513 490 483 467 q 542 553 542 513 q 513 617 542 594 q 418 640 485 640 l 308 640 l 308 467 l 415 467 m 436 138 q 538 165 507 138 q 569 236 569 192 q 536 305 569 278 q 432 332 503 332 l 308 332 l 308 138 l 436 138 z "},"г":{"ha":671,"x_min":110,"x_max":631,"o":"m 110 778 l 631 778 l 631 617 l 313 617 l 313 0 l 110 0 l 110 778 z "},"д":{"ha":899,"x_min":21,"x_max":875,"o":"m 339 414 q 311 267 329 329 q 269 161 293 206 l 550 161 l 550 617 l 361 617 l 339 414 m 875 161 l 875 28 l 856 -271 l 681 -271 l 681 0 l 217 0 l 217 -271 l 42 -271 l 21 28 l 21 161 l 67 161 q 94 185 81 169 q 119 232 107 200 q 141 318 131 264 q 163 458 151 372 l 200 778 l 754 778 l 754 161 l 875 161 z "},"е":{"ha":807,"x_min":61,"x_max":749,"o":"m 447 -19 q 295 8 365 -19 q 173 88 225 36 q 91 216 121 140 q 61 388 61 292 q 92 558 61 482 q 173 687 122 633 q 289 769 224 740 q 424 797 354 797 q 565 769 504 797 q 666 692 625 742 q 728 574 707 642 q 749 425 749 506 q 746 372 749 397 q 739 332 743 346 l 260 332 q 330 187 272 236 q 475 138 388 138 q 566 151 524 138 q 650 192 608 165 l 719 67 q 591 3 661 26 q 447 -19 521 -19 m 574 467 q 538 592 574 546 q 426 639 501 639 q 317 595 365 639 q 257 467 268 551 l 574 467 z "},"ж":{"ha":1165,"x_min":14,"x_max":1151,"o":"m 1151 0 l 933 0 l 761 321 l 672 321 l 672 0 l 492 0 l 492 321 l 404 321 l 232 0 l 14 0 l 260 403 l 211 517 q 163 586 188 569 q 108 603 139 603 q 94 601 101 603 q 81 597 88 600 l 47 786 q 106 797 76 797 q 240 763 183 797 q 340 632 297 728 l 408 482 l 492 482 l 492 778 l 672 778 l 672 482 l 754 482 l 825 632 q 924 763 868 728 q 1058 797 981 797 q 1117 786 1090 797 l 1085 597 q 1071 601 1078 600 q 1056 603 1064 603 q 1001 586 1026 603 q 954 517 976 569 l 906 404 l 1151 0 z "},"з":{"ha":742,"x_min":47,"x_max":686,"o":"m 347 -19 q 195 0 268 -19 q 47 75 122 19 l 128 204 q 230 153 178 168 q 328 138 282 138 q 440 165 394 138 q 486 239 486 192 q 344 332 486 332 l 225 332 l 225 467 l 329 467 q 458 556 458 467 q 425 617 458 596 q 332 639 392 639 q 231 626 276 639 q 140 583 186 614 l 63 714 q 344 797 185 797 q 462 784 406 797 q 561 744 518 771 q 630 676 604 717 q 656 578 656 635 q 625 481 656 528 q 531 413 594 433 l 531 406 q 644 343 601 388 q 686 219 686 299 q 658 118 686 163 q 581 43 629 74 q 472 -3 533 13 q 347 -19 411 -19 z "},"и":{"ha":910,"x_min":110,"x_max":801,"o":"m 110 778 l 307 778 l 307 532 q 301 400 307 474 q 289 254 294 326 l 294 254 q 317 292 304 271 q 342 335 329 314 q 367 378 354 357 q 388 417 379 400 l 615 778 l 801 778 l 801 0 l 604 0 l 604 244 q 610 377 604 304 q 622 524 615 450 l 617 524 q 594 485 607 507 q 569 442 582 464 q 545 398 557 419 q 524 360 533 376 l 296 0 l 110 0 l 110 778 z "},"й":{"ha":910,"x_min":110,"x_max":801,"o":"m 110 778 l 307 778 l 307 532 q 301 400 307 474 q 289 254 294 326 l 294 254 q 317 292 304 271 q 342 335 329 314 q 367 378 354 357 q 388 417 379 400 l 615 778 l 801 778 l 801 0 l 604 0 l 604 244 q 610 377 604 304 q 622 524 615 450 l 617 524 q 594 485 607 507 q 569 442 582 464 q 545 398 557 419 q 524 360 533 376 l 296 0 l 110 0 l 110 778 m 463 903 q 347 922 396 903 q 265 974 297 940 q 215 1053 232 1007 q 197 1156 199 1100 l 357 1156 q 382 1051 360 1089 q 463 1013 404 1013 q 542 1051 521 1013 q 567 1156 564 1089 l 726 1156 q 709 1053 725 1100 q 660 974 693 1007 q 579 922 628 940 q 463 903 531 903 z "},"к":{"ha":840,"x_min":110,"x_max":826,"o":"m 826 0 l 604 0 l 415 321 l 313 321 l 313 0 l 110 0 l 110 778 l 313 778 l 313 482 l 411 482 l 482 632 q 529 714 504 682 q 583 765 554 746 q 644 790 611 783 q 717 797 678 797 q 775 786 749 797 l 742 597 q 728 601 735 600 q 714 603 722 603 q 660 588 685 603 q 611 517 635 572 l 564 410 l 826 0 z "},"л":{"ha":885,"x_min":11,"x_max":776,"o":"m 97 -19 q 11 -3 50 -19 l 46 181 q 63 176 54 178 q 83 174 72 174 q 141 203 118 174 q 174 304 164 233 q 201 540 189 422 q 228 778 214 658 l 776 778 l 776 0 l 572 0 l 572 617 l 389 617 q 367 433 378 525 q 343 249 357 340 q 264 49 325 118 q 97 -19 203 -19 z "},"м":{"ha":1028,"x_min":110,"x_max":919,"o":"m 110 778 l 342 778 l 456 485 q 485 393 471 436 q 514 307 500 350 l 521 307 q 551 393 536 350 q 581 485 565 436 l 688 778 l 919 778 l 919 0 l 738 0 l 738 240 q 740 311 738 269 q 745 397 742 353 q 753 483 749 440 q 760 557 757 525 l 753 557 q 715 452 736 507 q 678 349 694 397 l 572 69 l 457 69 l 349 349 q 311 453 332 397 q 274 557 290 508 l 267 557 q 273 483 269 525 q 280 397 276 440 q 286 311 283 353 q 289 240 289 269 l 289 0 l 110 0 l 110 778 z "},"н":{"ha":908,"x_min":110,"x_max":800,"o":"m 110 778 l 313 778 l 313 488 l 596 488 l 596 778 l 800 778 l 800 0 l 596 0 l 596 310 l 313 310 l 313 0 l 110 0 l 110 778 z "},"о":{"ha":869,"x_min":61,"x_max":808,"o":"m 435 -19 q 294 8 361 -19 q 175 88 226 36 q 92 216 124 140 q 61 388 61 292 q 92 561 61 485 q 175 690 124 638 q 294 769 226 742 q 435 797 361 797 q 575 769 507 797 q 694 690 643 742 q 777 561 746 638 q 808 388 808 485 q 777 216 808 292 q 694 88 746 140 q 575 8 643 36 q 435 -19 507 -19 m 435 147 q 557 213 514 147 q 600 388 600 278 q 557 565 600 499 q 435 631 514 631 q 313 565 356 631 q 269 388 269 499 q 313 213 269 278 q 435 147 356 147 z "},"п":{"ha":896,"x_min":110,"x_max":786,"o":"m 110 778 l 786 778 l 786 0 l 582 0 l 582 617 l 313 617 l 313 0 l 110 0 l 110 778 z "},"р":{"ha":894,"x_min":110,"x_max":831,"o":"m 110 778 l 276 778 l 290 697 l 296 697 q 403 768 344 739 q 525 797 463 797 q 653 769 597 797 q 749 689 710 740 q 810 564 789 638 q 831 401 831 490 q 803 223 831 301 q 729 91 775 144 q 624 9 683 38 q 500 -19 564 -19 q 400 3 449 -19 q 307 65 351 25 l 313 -62 l 313 -299 l 110 -299 l 110 778 m 454 149 q 573 210 525 149 q 621 399 621 271 q 584 570 621 511 q 467 629 547 629 q 390 609 426 629 q 313 549 353 589 l 313 207 q 386 162 350 175 q 454 149 422 149 z "},"с":{"ha":732,"x_min":61,"x_max":694,"o":"m 440 -19 q 290 8 360 -19 q 170 88 221 36 q 90 216 119 140 q 61 388 61 292 q 94 561 61 485 q 181 690 126 638 q 307 769 235 742 q 458 797 379 797 q 586 772 531 797 q 685 711 642 747 l 588 579 q 530 617 558 604 q 468 631 501 631 q 324 565 379 631 q 269 388 269 499 q 324 213 269 278 q 463 147 378 147 q 543 165 504 147 q 614 210 582 182 l 694 75 q 572 3 639 26 q 440 -19 506 -19 z "},"т":{"ha":761,"x_min":42,"x_max":721,"o":"m 279 617 l 42 617 l 42 778 l 721 778 l 721 617 l 482 617 l 482 0 l 279 0 l 279 617 z "},"у":{"ha":797,"x_min":19,"x_max":779,"o":"m 178 -312 q 119 -308 143 -312 q 71 -297 94 -304 l 108 -140 q 134 -147 119 -143 q 163 -150 149 -150 q 257 -117 222 -150 q 308 -32 292 -83 l 322 14 l 19 778 l 225 778 l 349 417 q 382 309 367 364 q 414 197 397 254 l 421 197 q 449 307 435 251 q 476 417 463 363 l 583 778 l 779 778 l 503 -24 q 448 -147 478 -93 q 380 -237 418 -200 q 292 -293 342 -274 q 178 -312 243 -312 z "},"ф":{"ha":1207,"x_min":65,"x_max":1143,"o":"m 504 -86 l 511 31 q 441 -4 479 11 q 363 -19 403 -19 q 240 8 294 -19 q 146 89 185 36 q 86 217 107 142 q 65 388 65 292 q 90 559 65 483 q 157 688 115 635 q 252 769 199 740 q 363 797 306 797 q 445 783 410 797 q 511 750 481 769 l 504 864 l 504 1108 l 703 1108 l 703 864 l 696 744 q 774 782 732 767 q 858 797 817 797 q 978 769 925 797 q 1067 689 1031 740 q 1124 564 1104 638 q 1143 401 1143 490 q 1118 223 1143 301 q 1051 91 1093 144 q 955 9 1010 38 q 840 -19 900 -19 q 696 28 767 -19 l 703 -86 l 703 -299 l 504 -299 l 504 -86 m 414 149 q 465 157 442 149 q 511 189 488 165 l 511 593 q 461 621 488 613 q 408 629 435 629 q 314 569 353 629 q 275 390 275 508 q 311 208 275 268 q 414 149 347 149 m 794 149 q 894 210 856 149 q 933 399 933 271 q 901 570 933 511 q 800 629 868 629 q 749 621 774 629 q 696 590 724 613 l 696 185 q 747 156 721 164 q 794 149 774 149 z "},"х":{"ha":781,"x_min":22,"x_max":758,"o":"m 265 406 l 38 778 l 257 778 l 335 639 q 404 508 369 572 l 410 508 q 438 574 424 540 q 467 639 453 607 l 532 778 l 743 778 l 515 382 l 758 0 l 539 0 l 453 142 q 415 211 433 176 q 378 279 397 246 l 371 279 q 338 212 354 246 q 306 142 322 178 l 233 0 l 22 0 l 265 406 z "},"ц":{"ha":919,"x_min":110,"x_max":899,"o":"m 899 161 l 899 28 l 879 -271 l 704 -271 l 704 0 l 110 0 l 110 778 l 313 778 l 313 161 l 574 161 l 574 778 l 778 778 l 778 161 l 899 161 z "},"ч":{"ha":850,"x_min":81,"x_max":740,"o":"m 536 276 q 474 267 503 269 q 396 264 444 264 q 267 280 325 264 q 168 331 210 296 q 103 422 126 367 q 81 556 81 476 l 81 778 l 285 778 l 285 556 q 321 456 285 489 q 439 424 357 424 q 490 426 467 424 q 536 436 513 429 l 536 778 l 740 778 l 740 0 l 536 0 l 536 276 z "},"ш":{"ha":1243,"x_min":110,"x_max":1133,"o":"m 110 778 l 311 778 l 311 161 l 524 161 l 524 778 l 718 778 l 718 161 l 931 161 l 931 778 l 1133 778 l 1133 0 l 110 0 l 110 778 z "},"щ":{"ha":1275,"x_min":110,"x_max":1253,"o":"m 1253 161 l 1253 28 l 1235 -271 l 1060 -271 l 1060 0 l 110 0 l 110 778 l 311 778 l 311 161 l 524 161 l 524 778 l 718 778 l 718 161 l 931 161 l 931 778 l 1133 778 l 1133 161 l 1253 161 z "},"ъ":{"ha":971,"x_min":42,"x_max":911,"o":"m 286 617 l 42 617 l 42 778 l 489 778 l 489 518 l 585 518 q 715 504 656 518 q 819 460 775 490 q 887 382 863 431 q 911 263 911 333 q 887 140 911 190 q 819 59 863 90 q 715 14 775 28 q 585 0 656 0 l 286 0 l 286 617 m 574 156 q 715 264 715 156 q 574 368 715 368 l 489 368 l 489 156 l 574 156 z "},"ы":{"ha":1138,"x_min":110,"x_max":1028,"o":"m 110 778 l 313 778 l 313 518 l 385 518 q 514 504 454 518 q 617 460 574 490 q 686 382 661 431 q 711 263 711 333 q 686 140 711 190 q 617 59 661 90 q 514 14 574 28 q 385 0 454 0 l 110 0 l 110 778 m 372 156 q 515 264 515 156 q 372 368 515 368 l 313 368 l 313 156 l 372 156 m 824 778 l 1028 778 l 1028 0 l 824 0 l 824 778 z "},"ь":{"ha":803,"x_min":110,"x_max":743,"o":"m 110 778 l 313 778 l 313 518 l 417 518 q 547 504 488 518 q 651 460 607 490 q 719 382 694 431 q 743 263 743 333 q 719 140 743 190 q 651 59 694 90 q 547 14 607 28 q 417 0 488 0 l 110 0 l 110 778 m 406 156 q 547 264 547 156 q 406 368 547 368 l 313 368 l 313 156 l 406 156 z "},"э":{"ha":732,"x_min":35,"x_max":671,"o":"m 47 706 q 151 771 88 744 q 293 797 215 797 q 441 772 372 797 q 560 696 510 747 q 641 568 611 644 q 671 388 671 492 q 642 210 671 286 q 563 83 614 133 q 443 6 513 32 q 292 -19 374 -19 q 154 3 222 -19 q 35 75 86 26 l 111 196 q 183 153 142 169 q 271 138 225 138 q 410 183 356 138 q 476 332 464 229 l 186 332 l 186 467 l 474 467 q 408 599 458 558 q 281 639 357 639 q 201 625 236 639 q 136 588 167 611 l 47 706 z "},"ю":{"ha":1206,"x_min":110,"x_max":1146,"o":"m 785 147 q 898 213 860 147 q 936 388 936 278 q 898 565 936 499 q 785 631 860 631 q 671 565 713 631 q 629 388 629 499 q 671 213 629 278 q 785 147 713 147 m 447 485 q 491 617 460 558 q 567 715 522 675 q 671 776 613 756 q 796 797 729 797 q 932 769 868 797 q 1043 690 996 742 q 1118 561 1090 638 q 1146 388 1146 485 q 1118 216 1146 292 q 1043 88 1090 140 q 932 8 996 36 q 796 -19 868 -19 q 667 3 726 -19 q 563 67 608 25 q 486 170 517 110 q 444 307 456 231 l 313 307 l 313 0 l 110 0 l 110 778 l 313 778 l 313 485 l 447 485 z "},"я":{"ha":844,"x_min":31,"x_max":736,"o":"m 532 626 l 446 626 q 338 601 375 626 q 301 521 301 575 q 338 438 301 468 q 446 408 375 408 l 532 408 l 532 626 m 736 778 l 736 0 l 532 0 l 532 267 l 431 267 l 428 267 l 258 0 l 31 0 l 246 306 q 142 389 183 335 q 100 526 100 443 q 125 645 100 597 q 193 723 150 693 q 294 765 236 753 q 419 778 353 778 l 736 778 z "},"ё":{"ha":807,"x_min":61,"x_max":749,"o":"m 447 -19 q 295 8 365 -19 q 173 88 225 36 q 91 216 121 140 q 61 388 61 292 q 92 558 61 482 q 173 687 122 633 q 289 769 224 740 q 424 797 354 797 q 565 769 504 797 q 666 692 625 742 q 728 574 707 642 q 749 425 749 506 q 746 372 749 397 q 739 332 743 346 l 260 332 q 330 187 272 236 q 475 138 388 138 q 566 151 524 138 q 650 192 608 165 l 719 67 q 591 3 661 26 q 447 -19 521 -19 m 574 467 q 538 592 574 546 q 426 639 501 639 q 317 595 365 639 q 257 467 268 551 l 574 467 m 257 904 q 183 934 213 904 q 153 1007 153 964 q 183 1081 153 1051 q 257 1111 213 1111 q 331 1081 301 1111 q 360 1007 360 1051 q 331 934 360 964 q 257 904 301 904 m 589 904 q 515 934 544 904 q 486 1007 486 964 q 515 1081 486 1051 q 589 1111 544 1111 q 664 1081 635 1111 q 693 1007 693 1051 q 664 934 693 964 q 589 904 635 904 z "},"―":{"ha":1389,"x_min":103,"x_max":1286,"o":"m 1286 560 l 1286 496 l 103 496 l 103 560 l 1286 560 z "},"‘":{"ha":451,"x_min":88,"x_max":343,"o":"m 343 992 q 242 909 276 956 q 207 794 208 863 q 222 796 213 796 q 300 767 267 796 q 333 689 333 739 q 302 603 333 635 q 222 572 271 572 q 122 622 156 572 q 88 760 88 671 q 296 1082 88 974 l 343 992 z "},"’":{"ha":451,"x_min":108,"x_max":364,"o":"m 108 678 q 208 761 175 715 q 243 876 242 807 q 229 875 239 875 q 151 903 185 875 q 118 982 118 932 q 149 1067 118 1035 q 229 1099 181 1099 q 330 1049 296 1099 q 364 910 364 1000 q 154 589 364 694 l 108 678 z "},"“":{"ha":799,"x_min":88,"x_max":690,"o":"m 343 992 q 242 909 276 956 q 207 794 208 863 q 222 796 213 796 q 300 767 267 796 q 333 689 333 739 q 302 603 333 635 q 222 572 271 572 q 122 622 156 572 q 88 760 88 671 q 296 1082 88 974 l 343 992 m 690 992 q 590 909 624 956 q 554 794 556 863 q 569 796 560 796 q 647 767 614 796 q 681 689 681 739 q 649 603 681 635 q 569 572 618 572 q 469 622 503 572 q 435 760 435 671 q 643 1082 435 974 l 690 992 z "},"”":{"ha":799,"x_min":108,"x_max":711,"o":"m 108 678 q 208 761 175 715 q 243 876 242 807 q 229 875 239 875 q 151 903 185 875 q 118 982 118 932 q 149 1067 118 1035 q 229 1099 181 1099 q 330 1049 296 1099 q 364 910 364 1000 q 154 589 364 694 l 108 678 m 456 678 q 556 761 522 715 q 590 876 589 807 q 576 875 586 875 q 499 903 532 875 q 465 982 465 932 q 497 1067 465 1035 q 576 1099 528 1099 q 677 1049 643 1099 q 711 910 711 1000 q 501 589 711 694 l 456 678 z "},"†":{"ha":1389,"x_min":350,"x_max":1039,"o":"m 772 749 l 1039 763 l 1039 600 l 772 614 l 788 -79 l 601 -79 l 617 614 l 350 600 l 350 763 l 617 749 l 601 1072 l 788 1072 l 772 749 z "},"‡":{"ha":1389,"x_min":350,"x_max":1039,"o":"m 772 771 l 1039 783 l 1039 621 l 772 635 l 774 363 l 1039 376 l 1039 214 l 772 228 l 788 -79 l 601 -79 l 617 228 l 350 214 l 350 376 l 617 363 l 617 635 l 350 621 l 350 783 l 617 771 l 601 1072 l 788 1072 l 772 771 z "},"‥":{"ha":1389,"x_min":235,"x_max":1154,"o":"m 235 528 q 267 608 235 575 q 347 640 300 640 q 427 608 394 640 q 460 528 460 575 q 427 448 460 481 q 347 415 394 415 q 267 448 300 415 q 235 528 235 481 m 929 528 q 962 608 929 575 q 1042 640 994 640 q 1122 608 1089 640 q 1154 528 1154 575 q 1122 448 1154 481 q 1042 415 1089 415 q 962 448 994 415 q 929 528 929 481 z "},"…":{"ha":1389,"x_min":119,"x_max":1269,"o":"m 119 528 q 152 608 119 575 q 232 640 185 640 q 312 608 279 640 q 344 528 344 575 q 312 448 344 481 q 232 415 279 415 q 152 448 185 415 q 119 528 119 481 m 582 528 q 615 608 582 575 q 694 640 647 640 q 774 608 742 640 q 807 528 807 575 q 774 448 807 481 q 694 415 742 415 q 615 448 647 415 q 582 528 582 481 m 1044 528 q 1077 608 1044 575 q 1157 640 1110 640 q 1237 608 1204 640 q 1269 528 1269 575 q 1237 448 1269 481 q 1157 415 1204 415 q 1077 448 1110 415 q 1044 528 1044 481 z "},"‰":{"ha":1389,"x_min":42,"x_max":1347,"o":"m 706 1049 l 799 1049 l 254 -19 l 161 -19 l 706 1049 m 42 728 q 54 850 42 792 q 90 952 67 908 q 149 1021 114 996 q 228 1046 183 1046 q 312 1017 278 1046 q 367 944 346 989 q 396 842 388 899 q 404 732 404 786 q 389 590 404 650 q 349 492 374 531 q 292 435 324 453 q 226 417 260 417 q 141 444 176 417 q 84 515 106 471 q 52 615 63 558 q 42 728 42 671 m 289 728 q 286 815 289 774 q 276 886 283 856 q 256 934 269 917 q 222 951 243 951 q 172 890 188 951 q 157 732 157 829 q 171 570 157 629 q 225 511 185 511 q 257 527 244 511 q 276 572 269 543 q 286 641 283 601 q 289 728 289 681 m 557 303 q 569 426 557 368 q 606 527 582 483 q 664 596 629 571 q 743 621 699 621 q 827 592 793 621 q 882 519 861 564 q 911 417 903 474 q 919 307 919 361 q 904 165 919 225 q 864 67 889 106 q 807 10 839 29 q 742 -8 775 -8 q 656 19 692 -8 q 599 90 621 46 q 567 190 578 135 q 557 303 557 246 m 985 303 q 997 426 985 368 q 1033 527 1010 483 q 1092 596 1057 571 q 1171 621 1126 621 q 1255 592 1221 621 q 1310 519 1289 564 q 1339 417 1331 474 q 1347 307 1347 361 q 1332 165 1347 225 q 1292 67 1317 106 q 1235 10 1267 29 q 1169 -8 1203 -8 q 1084 19 1119 -8 q 1027 90 1049 46 q 995 190 1006 135 q 985 303 985 246 m 804 304 q 801 391 804 350 q 792 462 799 432 q 772 509 785 492 q 738 526 758 526 q 688 466 703 526 q 672 307 672 406 q 686 146 672 206 q 740 86 700 86 q 772 102 760 86 q 792 147 785 118 q 801 217 799 176 q 804 304 804 257 m 1232 304 q 1229 391 1232 350 q 1219 462 1226 432 q 1199 509 1213 492 q 1165 526 1186 526 q 1115 466 1129 526 q 1100 307 1100 406 q 1114 147 1100 207 q 1168 86 1128 86 q 1200 102 1188 86 q 1219 147 1213 118 q 1229 217 1226 176 q 1232 304 1232 257 z "},"′":{"ha":451,"x_min":129,"x_max":364,"o":"m 161 1083 l 364 1082 l 331 899 l 263 638 l 129 639 l 161 1083 z "},"″":{"ha":799,"x_min":129,"x_max":711,"o":"m 161 1083 l 364 1082 l 331 899 l 263 638 l 129 639 l 161 1083 m 507 1083 l 711 1082 l 678 899 l 610 638 l 476 639 l 507 1083 z "},"※":{"ha":1353,"x_min":160,"x_max":1208,"o":"m 289 372 q 240 383 264 372 q 199 411 217 393 q 171 451 182 429 q 160 496 160 472 q 171 544 160 521 q 199 586 182 568 q 240 615 217 604 q 289 625 264 625 q 335 615 313 625 q 374 586 357 604 q 402 544 392 568 q 413 496 413 521 q 403 451 413 472 q 376 411 393 429 q 336 383 358 393 q 289 372 314 372 m 1188 83 l 1090 -10 q 883 200 985 94 q 676 414 782 306 q 468 200 572 306 q 263 -10 364 94 q 212 37 235 14 q 165 83 189 60 l 589 501 q 376 710 483 606 q 165 919 269 815 q 211 969 189 943 q 253 1018 233 994 l 671 589 l 1094 1018 q 1139 969 1118 994 q 1183 919 1160 943 l 764 501 q 974 292 869 397 q 1188 83 1079 188 m 671 760 q 626 771 647 760 q 586 799 604 782 q 558 840 568 817 q 547 889 547 864 q 557 936 547 914 q 584 976 567 958 q 624 1003 601 993 q 671 1013 646 1013 q 719 1003 696 1013 q 761 976 743 993 q 790 936 779 958 q 800 889 800 914 q 790 840 800 864 q 763 799 781 817 q 721 771 744 782 q 671 760 697 760 m 671 -25 q 626 -15 647 -25 q 589 11 606 -6 q 563 51 572 28 q 553 99 553 74 q 587 185 553 149 q 671 222 621 222 q 719 213 696 222 q 761 185 743 203 q 790 146 779 168 q 800 99 800 124 q 763 11 800 47 q 671 -25 725 -25 m 1085 378 q 998 412 1035 378 q 961 496 961 446 q 971 546 961 522 q 998 588 981 569 q 1038 615 1015 606 q 1085 625 1060 625 q 1132 615 1110 625 q 1172 588 1154 606 q 1199 546 1189 569 q 1208 496 1208 522 q 1172 412 1208 446 q 1085 378 1135 378 z "},"€":{"ha":818,"x_min":33,"x_max":806,"o":"m 806 126 q 680 18 750 56 q 524 -19 610 -19 q 386 4 450 -19 q 272 74 322 28 q 185 190 221 121 q 133 347 150 258 l 33 347 l 33 444 l 122 451 q 121 474 121 463 q 121 496 121 485 q 121 517 121 507 q 122 539 121 528 l 33 539 l 33 638 l 133 644 q 187 803 150 733 q 276 922 224 874 q 397 996 329 971 q 542 1021 464 1021 q 678 988 613 1021 q 792 897 743 956 l 678 786 q 613 841 647 821 q 535 861 579 861 q 408 805 457 861 q 339 646 358 749 l 693 646 l 693 539 l 326 539 l 326 503 q 326 478 326 490 q 328 454 326 465 l 629 454 l 629 347 l 342 347 q 411 194 363 247 q 535 140 460 140 q 622 164 583 140 q 692 232 660 188 l 806 126 z "},"℃":{"ha":1389,"x_min":39,"x_max":1358,"o":"m 260 642 q 174 658 214 642 q 103 704 133 675 q 56 774 74 733 q 39 863 39 814 q 56 951 39 911 q 103 1021 74 992 q 174 1067 133 1050 q 260 1083 214 1083 q 345 1067 306 1083 q 415 1021 385 1050 q 462 951 444 992 q 479 863 479 911 q 462 774 479 814 q 415 704 444 733 q 345 658 385 675 q 260 642 306 642 m 260 743 q 339 776 308 743 q 369 863 369 810 q 339 949 369 915 q 260 982 308 982 q 181 949 211 982 q 150 863 150 915 q 181 776 150 810 q 260 743 211 743 m 1035 -19 q 848 15 935 -19 q 697 117 761 50 q 595 282 632 183 q 558 510 558 381 q 597 738 558 638 q 700 908 635 839 q 853 1014 765 978 q 1040 1050 940 1050 q 1131 1039 1088 1050 q 1213 1010 1175 1028 q 1283 968 1251 992 q 1340 918 1315 944 l 1226 790 q 1144 850 1188 829 q 1043 871 1101 871 q 933 847 983 871 q 847 776 883 822 q 790 665 810 731 q 769 518 769 600 q 788 368 769 435 q 842 255 807 301 q 927 184 878 208 q 1038 160 976 160 q 1153 186 1104 160 q 1243 257 1203 213 l 1358 132 q 1035 -19 1231 -19 z "},"℉":{"ha":1389,"x_min":67,"x_max":1331,"o":"m 288 642 q 201 658 242 642 q 131 704 161 675 q 84 774 101 733 q 67 863 67 814 q 84 951 67 911 q 131 1021 101 992 q 201 1067 161 1050 q 288 1083 242 1083 q 373 1067 333 1083 q 442 1021 413 1050 q 490 951 472 992 q 507 863 507 911 q 490 774 507 814 q 442 704 472 733 q 373 658 413 675 q 288 642 333 642 m 288 743 q 367 776 336 743 q 397 863 397 810 q 367 949 397 915 q 288 982 336 982 q 208 949 239 982 q 178 863 178 915 q 208 776 178 810 q 288 743 239 743 m 694 1032 l 1331 1032 l 1331 858 l 900 858 l 900 590 l 1267 590 l 1267 418 l 900 418 l 900 0 l 694 0 l 694 1032 z "},"ℓ":{"ha":715,"x_min":21,"x_max":718,"o":"m 368 549 q 483 700 444 624 q 522 868 522 776 q 503 953 522 926 q 454 979 483 979 q 394 935 419 979 q 368 786 368 890 l 368 549 m 718 96 q 605 17 668 53 q 464 -19 542 -19 q 363 -4 411 -19 q 276 42 315 11 q 211 117 238 72 q 175 222 185 163 q 136 199 156 211 q 97 175 117 188 l 21 300 q 98 347 61 324 q 169 394 135 371 l 169 756 q 190 923 169 853 q 249 1039 211 993 q 337 1106 286 1085 q 447 1128 388 1128 q 622 1060 556 1128 q 689 868 689 992 q 610 601 689 722 q 368 354 532 479 l 368 311 q 406 188 368 225 q 496 150 443 150 q 578 173 542 150 q 642 219 614 196 l 718 96 z "},"№":{"ha":1492,"x_min":78,"x_max":1467,"o":"m 151 -19 q 118 -17 128 -19 q 93 -11 108 -15 l 78 147 q 124 160 110 147 q 138 214 138 174 l 138 1001 l 361 1001 q 492 682 428 842 q 617 360 556 522 l 672 224 l 679 224 q 665 356 671 296 q 656 466 660 415 q 651 561 653 517 q 650 649 650 606 l 650 828 q 690 972 650 924 q 818 1021 731 1021 q 852 1019 842 1021 q 878 1013 863 1018 l 893 856 q 846 842 860 856 q 832 788 832 828 l 832 0 l 608 0 q 478 320 542 161 q 353 643 414 479 l 297 778 l 290 778 q 304 647 299 706 q 313 536 310 588 q 318 440 317 485 q 319 353 319 396 l 319 174 q 280 29 319 78 q 151 -19 240 -19 m 1211 426 q 1114 444 1160 426 q 1033 494 1068 461 q 976 576 997 528 q 956 686 956 624 q 976 798 956 749 q 1033 881 997 847 q 1114 931 1068 914 q 1211 949 1160 949 q 1309 931 1263 949 q 1390 881 1356 914 q 1446 798 1425 847 q 1467 686 1467 749 q 1446 576 1467 624 q 1390 494 1425 528 q 1309 444 1356 461 q 1211 426 1263 426 m 1211 553 q 1281 586 1256 553 q 1307 686 1307 619 q 1281 789 1307 756 q 1211 822 1256 822 q 1141 789 1167 822 q 1115 686 1115 756 q 1141 586 1115 619 q 1211 553 1167 553 m 1006 322 l 1417 322 l 1417 211 l 1006 211 l 1006 322 z "},"℡":{"ha":1389,"x_min":35,"x_max":1361,"o":"m 178 882 l 35 882 l 35 1032 l 483 1032 l 483 882 l 340 882 l 340 0 l 178 0 l 178 882 m 544 829 l 907 829 l 907 692 l 707 692 l 707 489 l 854 489 l 854 361 l 707 361 l 707 138 l 922 138 l 922 0 l 544 0 l 544 829 m 1003 829 l 1165 829 l 1165 146 l 1361 146 l 1361 0 l 1003 0 l 1003 829 z "},"™":{"ha":1056,"x_min":6,"x_max":1017,"o":"m 147 942 l 6 942 l 6 1065 l 426 1065 l 426 942 l 283 942 l 283 572 l 147 572 l 147 942 m 496 1065 l 650 1065 l 715 903 l 753 792 l 760 792 l 797 903 l 860 1065 l 1017 1065 l 1017 572 l 892 572 l 892 740 l 907 918 l 901 918 l 804 646 l 707 646 l 611 918 l 604 918 l 621 740 l 621 572 l 496 572 l 496 1065 z "},"Ⅰ":{"ha":1389,"x_min":590,"x_max":799,"o":"m 590 1032 l 799 1032 l 799 0 l 590 0 l 590 1032 z "},"Ⅱ":{"ha":1389,"x_min":361,"x_max":1028,"o":"m 361 1032 l 568 1032 l 568 0 l 361 0 l 361 1032 m 821 1032 l 1028 1032 l 1028 0 l 821 0 l 821 1032 z "},"Ⅲ":{"ha":1389,"x_min":131,"x_max":1258,"o":"m 131 1032 l 339 1032 l 339 0 l 131 0 l 131 1032 m 590 1032 l 799 1032 l 799 0 l 590 0 l 590 1032 m 1051 1032 l 1258 1032 l 1258 0 l 1051 0 l 1051 1032 z "},"Ⅳ":{"ha":1389,"x_min":160,"x_max":1363,"o":"m 160 1032 l 368 1032 l 368 0 l 160 0 l 160 1032 m 485 1032 l 703 1032 l 839 531 q 881 364 863 443 q 925 197 900 285 l 932 197 q 976 364 957 285 q 1019 531 996 443 l 1153 1032 l 1363 1032 l 1047 0 l 801 0 l 485 1032 z "},"Ⅴ":{"ha":1389,"x_min":256,"x_max":1133,"o":"m 256 1032 l 474 1032 l 610 531 q 651 365 632 444 q 696 197 671 285 l 703 197 q 747 364 728 285 q 790 531 767 443 l 924 1032 l 1133 1032 l 818 0 l 571 0 l 256 1032 z "},"Ⅵ":{"ha":1389,"x_min":25,"x_max":1228,"o":"m 25 1032 l 243 1032 l 379 531 q 421 365 401 444 q 465 197 440 285 l 472 197 q 517 364 497 285 q 560 531 536 443 l 693 1032 l 903 1032 l 588 0 l 340 0 l 25 1032 m 1021 1032 l 1228 1032 l 1228 0 l 1021 0 l 1021 1032 z "},"Ⅶ":{"ha":1389,"x_min":19,"x_max":1332,"o":"m 19 1032 l 236 1032 l 318 531 q 347 364 333 443 q 379 197 360 285 l 386 197 q 419 364 406 285 q 446 531 432 443 l 526 1032 l 736 1032 l 511 0 l 244 0 l 19 1032 m 792 1032 l 1000 1032 l 1000 0 l 792 0 l 792 1032 m 1124 1032 l 1332 1032 l 1332 0 l 1124 0 l 1124 1032 z "},"Ⅷ":{"ha":1389,"x_min":17,"x_max":1324,"o":"m 17 1032 l 193 1032 l 257 531 q 280 364 269 443 q 303 197 290 285 l 310 197 q 333 364 322 285 q 356 531 344 443 l 418 1032 l 585 1032 l 406 0 l 207 0 l 17 1032 m 651 1032 l 817 1032 l 817 0 l 651 0 l 651 1032 m 904 1032 l 1071 1032 l 1071 0 l 904 0 l 904 1032 m 1158 1032 l 1324 1032 l 1324 0 l 1158 0 l 1158 1032 z "},"Ⅸ":{"ha":1389,"x_min":154,"x_max":1342,"o":"m 154 1032 l 361 1032 l 361 0 l 154 0 l 154 1032 m 796 532 l 524 1032 l 754 1032 l 857 818 q 892 744 875 782 q 933 657 910 706 l 940 657 q 976 744 960 706 q 1007 818 992 782 l 1104 1032 l 1324 1032 l 1053 522 l 1342 0 l 1113 0 l 996 229 q 958 308 976 268 q 918 396 939 349 l 913 396 q 874 308 892 349 q 838 229 856 268 l 728 0 l 508 0 l 796 532 z "},"Ⅹ":{"ha":1389,"x_min":278,"x_max":1111,"o":"m 565 532 l 293 1032 l 524 1032 l 626 818 q 663 744 646 782 q 703 657 681 706 l 710 657 q 745 744 729 706 q 778 818 761 782 l 875 1032 l 1093 1032 l 822 522 l 1111 0 l 882 0 l 767 229 q 728 308 747 268 q 688 396 708 349 l 682 396 q 644 308 663 349 q 607 229 625 268 l 497 0 l 278 0 l 565 532 z "},"ⅰ":{"ha":1389,"x_min":572,"x_max":818,"o":"m 592 779 l 799 779 l 799 0 l 592 0 l 592 779 m 694 906 q 607 937 642 906 q 572 1017 572 968 q 607 1098 572 1067 q 694 1129 642 1129 q 783 1098 747 1129 q 818 1017 818 1067 q 783 937 818 968 q 694 906 747 906 z "},"ⅱ":{"ha":1389,"x_min":361,"x_max":1029,"o":"m 381 779 l 586 779 l 586 0 l 381 0 l 381 779 m 483 906 q 396 937 431 906 q 361 1017 361 968 q 396 1098 361 1067 q 483 1129 431 1129 q 571 1098 536 1129 q 606 1017 606 1067 q 571 937 606 968 q 483 906 536 906 m 804 779 l 1010 779 l 1010 0 l 804 0 l 804 779 m 907 906 q 819 937 854 906 q 785 1017 785 968 q 819 1098 785 1067 q 907 1129 854 1129 q 994 1098 960 1129 q 1029 1017 1029 1067 q 994 937 1029 968 q 907 906 960 906 z "},"ⅲ":{"ha":1389,"x_min":149,"x_max":1242,"o":"m 168 779 l 374 779 l 374 0 l 168 0 l 168 779 m 271 906 q 183 937 218 906 q 149 1017 149 968 q 183 1098 149 1067 q 271 1129 218 1129 q 358 1098 324 1129 q 393 1017 393 1067 q 358 937 393 968 q 271 906 324 906 m 592 779 l 799 779 l 799 0 l 592 0 l 592 779 m 694 906 q 607 937 642 906 q 572 1017 572 968 q 607 1098 572 1067 q 694 1129 642 1129 q 783 1098 747 1129 q 818 1017 818 1067 q 783 937 818 968 q 694 906 747 906 m 1015 779 l 1222 779 l 1222 0 l 1015 0 l 1015 779 m 1119 906 q 1031 937 1065 906 q 996 1017 996 968 q 1031 1098 996 1067 q 1119 1129 1065 1129 q 1207 1098 1172 1129 q 1242 1017 1242 1067 q 1207 937 1242 968 q 1119 906 1172 906 z "},"ⅳ":{"ha":1389,"x_min":172,"x_max":1289,"o":"m 190 779 l 397 779 l 397 0 l 190 0 l 190 779 m 294 906 q 207 937 242 906 q 172 1017 172 968 q 207 1098 172 1067 q 294 1129 242 1129 q 382 1098 347 1129 q 417 1017 417 1067 q 382 937 417 968 q 294 906 347 906 m 525 779 l 732 779 l 846 392 q 877 274 861 333 q 908 156 893 215 l 914 156 q 946 274 929 215 q 978 392 963 333 l 1090 779 l 1289 779 l 1031 0 l 792 0 l 525 779 z "},"ⅴ":{"ha":1389,"x_min":313,"x_max":1078,"o":"m 313 779 l 519 779 l 633 392 q 665 274 649 333 q 697 156 681 215 l 703 156 q 735 274 718 215 q 767 392 751 333 l 879 779 l 1078 779 l 818 0 l 581 0 l 313 779 z "},"ⅵ":{"ha":1389,"x_min":101,"x_max":1218,"o":"m 101 779 l 307 779 l 421 392 q 453 274 436 333 q 485 156 469 215 l 490 156 q 522 274 506 215 q 554 392 539 333 l 667 779 l 865 779 l 606 0 l 368 0 l 101 779 m 993 779 l 1199 779 l 1199 0 l 993 0 l 993 779 m 1096 906 q 1008 937 1043 906 q 974 1017 974 968 q 1008 1098 974 1067 q 1096 1129 1043 1129 q 1183 1098 1149 1129 q 1218 1017 1218 1067 q 1183 937 1218 968 q 1096 906 1149 906 z "},"ⅶ":{"ha":1389,"x_min":14,"x_max":1326,"o":"m 14 779 l 221 779 l 303 392 q 328 274 314 333 q 356 156 342 215 l 361 156 q 389 274 376 215 q 413 392 401 333 l 497 779 l 694 779 l 478 0 l 239 0 l 14 779 m 760 779 l 967 779 l 967 0 l 760 0 l 760 779 m 863 906 q 775 937 810 906 q 740 1017 740 968 q 775 1098 740 1067 q 863 1129 810 1129 q 951 1098 915 1129 q 986 1017 986 1067 q 951 937 986 968 q 863 906 915 906 m 1100 779 l 1307 779 l 1307 0 l 1100 0 l 1100 779 m 1204 906 q 1116 937 1150 906 q 1082 1017 1082 968 q 1116 1098 1082 1067 q 1204 1129 1150 1129 q 1292 1098 1257 1129 q 1326 1017 1326 1067 q 1292 937 1326 968 q 1204 906 1257 906 z "},"ⅷ":{"ha":1389,"x_min":21,"x_max":1347,"o":"m 21 779 l 207 779 l 264 392 q 283 274 275 333 q 301 156 292 215 l 307 156 q 325 274 318 215 q 343 392 332 333 l 401 779 l 579 779 l 404 0 l 204 0 l 21 779 m 644 779 l 810 779 l 810 0 l 644 0 l 644 779 m 726 906 q 653 937 682 906 q 625 1017 625 968 q 653 1098 625 1067 q 726 1129 682 1129 q 800 1098 771 1129 q 829 1017 829 1067 q 800 937 829 968 q 726 906 771 906 m 904 779 l 1068 779 l 1068 0 l 904 0 l 904 779 m 986 906 q 913 937 942 906 q 885 1017 885 968 q 913 1098 885 1067 q 986 1129 942 1129 q 1059 1098 1031 1129 q 1088 1017 1088 1067 q 1059 937 1088 968 q 986 906 1031 906 m 1164 779 l 1328 779 l 1328 0 l 1164 0 l 1164 779 m 1246 906 q 1173 937 1201 906 q 1144 1017 1144 968 q 1173 1098 1144 1067 q 1246 1129 1201 1129 q 1319 1098 1290 1129 q 1347 1017 1347 1067 q 1319 937 1347 968 q 1246 906 1290 906 z "},"ⅸ":{"ha":1389,"x_min":181,"x_max":1276,"o":"m 200 779 l 406 779 l 406 0 l 200 0 l 200 779 m 303 906 q 215 937 250 906 q 181 1017 181 968 q 215 1098 181 1067 q 303 1129 250 1129 q 390 1098 356 1129 q 425 1017 425 1067 q 390 937 425 968 q 303 906 356 906 m 781 406 l 553 779 l 772 779 l 850 642 q 885 576 868 610 q 921 510 903 542 l 926 510 q 956 576 942 542 q 983 642 969 610 l 1049 779 l 1261 779 l 1033 383 l 1276 0 l 1056 0 l 968 143 q 932 211 950 176 q 894 279 914 246 l 888 279 q 854 212 871 246 q 822 143 838 178 l 749 0 l 536 0 l 781 406 z "},"ⅹ":{"ha":1389,"x_min":325,"x_max":1064,"o":"m 569 406 l 340 779 l 561 779 l 639 642 q 674 576 657 610 q 708 510 690 542 l 714 510 q 744 576 729 542 q 772 642 758 610 l 836 779 l 1050 779 l 822 383 l 1064 0 l 843 0 l 757 143 q 719 211 738 176 q 682 279 701 246 l 675 279 q 642 212 658 246 q 610 143 626 178 l 538 0 l 325 0 l 569 406 z "},"←":{"ha":1389,"x_min":49,"x_max":1333,"o":"m 351 457 q 398 419 374 440 q 447 372 422 397 q 494 320 471 347 q 536 267 517 293 l 411 197 q 331 289 375 243 q 240 378 288 335 q 144 459 193 421 q 49 528 96 497 q 144 597 96 558 q 240 678 193 635 q 331 767 288 721 q 411 858 375 813 l 536 789 q 494 735 517 763 q 447 683 471 708 q 398 637 422 658 q 351 599 374 615 l 1333 599 l 1333 457 l 351 457 z "},"↑":{"ha":1389,"x_min":364,"x_max":1025,"o":"m 624 871 q 585 824 607 849 q 539 776 564 800 q 487 728 514 751 q 433 686 460 706 l 364 811 q 456 891 410 847 q 544 982 501 935 q 626 1078 588 1029 q 694 1174 664 1126 q 763 1078 725 1126 q 844 982 801 1029 q 933 891 888 935 q 1025 811 979 847 l 956 686 q 902 728 929 706 q 850 776 875 751 q 803 824 825 800 q 765 871 782 849 l 765 -111 l 624 -111 l 624 871 z "},"→":{"ha":1389,"x_min":56,"x_max":1340,"o":"m 56 599 l 1038 599 q 991 637 1015 615 q 942 683 967 658 q 895 735 918 708 q 853 789 872 763 l 978 858 q 1058 767 1014 813 q 1149 678 1101 721 q 1244 597 1196 635 q 1340 528 1293 558 q 1244 459 1293 497 q 1149 378 1196 421 q 1058 289 1101 335 q 978 197 1014 243 l 853 267 q 895 320 872 293 q 942 372 918 347 q 991 419 967 397 q 1038 457 1015 440 l 56 457 l 56 599 z "},"↓":{"ha":1389,"x_min":364,"x_max":1025,"o":"m 765 185 q 803 231 782 207 q 850 280 825 256 q 902 327 875 304 q 956 369 929 350 l 1025 244 q 933 165 979 208 q 844 74 888 121 q 763 -22 801 26 q 694 -118 725 -71 q 626 -22 664 -71 q 544 74 588 26 q 456 165 501 121 q 364 244 410 208 l 433 369 q 487 327 460 350 q 539 280 514 304 q 585 231 564 256 q 624 185 607 207 l 624 1167 l 765 1167 l 765 185 z "},"↔":{"ha":1389,"x_min":49,"x_max":1340,"o":"m 351 457 q 398 419 374 440 q 447 372 422 397 q 494 320 471 347 q 536 267 517 293 l 411 197 q 331 289 375 243 q 240 378 288 335 q 144 459 193 421 q 49 528 96 497 q 144 597 96 558 q 240 678 193 635 q 331 767 288 721 q 411 858 375 813 l 536 789 q 494 735 517 763 q 447 683 471 708 q 398 637 422 658 q 351 599 374 615 l 1038 599 q 991 637 1015 615 q 942 683 967 658 q 895 735 918 708 q 853 789 872 763 l 978 858 q 1058 767 1014 813 q 1149 678 1101 721 q 1244 597 1196 635 q 1340 528 1293 558 q 1244 459 1293 497 q 1149 378 1196 421 q 1058 289 1101 335 q 978 197 1014 243 l 853 267 q 895 320 872 293 q 942 372 918 347 q 991 419 967 397 q 1038 457 1015 440 l 351 457 z "},"↕":{"ha":1389,"x_min":364,"x_max":1025,"o":"m 765 185 q 803 231 782 207 q 850 280 825 256 q 902 327 875 304 q 956 369 929 350 l 1025 244 q 933 165 979 208 q 844 74 888 121 q 763 -22 801 26 q 694 -118 725 -71 q 626 -22 664 -71 q 544 74 588 26 q 456 165 501 121 q 364 244 410 208 l 433 369 q 487 327 460 350 q 539 280 514 304 q 585 231 564 256 q 624 185 607 207 l 624 871 q 585 824 607 849 q 539 776 564 800 q 487 728 514 751 q 433 686 460 706 l 364 811 q 456 891 410 847 q 544 982 501 935 q 626 1078 588 1029 q 694 1174 664 1126 q 763 1078 725 1126 q 844 982 801 1029 q 933 891 888 935 q 1025 811 979 847 l 956 686 q 902 728 929 706 q 850 776 875 751 q 803 824 825 800 q 765 871 782 849 l 765 185 z "},"↖":{"ha":1389,"x_min":238,"x_max":1196,"o":"m 403 719 q 408 660 407 693 q 409 593 410 628 q 406 523 408 558 q 397 456 403 488 l 260 494 q 269 616 267 553 q 267 742 271 679 q 256 867 264 806 q 238 985 249 929 q 355 966 293 974 q 480 955 417 958 q 606 953 543 951 q 728 963 669 956 l 767 825 q 699 817 735 819 q 629 813 664 814 q 562 814 594 813 q 503 819 529 815 l 1196 125 l 1097 26 l 403 719 z "},"↗":{"ha":1389,"x_min":193,"x_max":1151,"o":"m 886 819 q 827 814 860 815 q 760 813 794 813 q 690 817 725 814 q 622 825 654 819 l 661 963 q 783 953 719 956 q 909 955 846 951 q 1034 966 972 958 q 1151 985 1096 974 q 1133 867 1140 929 q 1122 742 1125 806 q 1120 616 1118 679 q 1129 494 1122 553 l 992 456 q 983 523 986 488 q 980 593 981 558 q 981 660 979 628 q 986 719 982 693 l 292 26 l 193 125 l 886 819 z "},"↘":{"ha":1389,"x_min":193,"x_max":1151,"o":"m 986 336 q 981 395 982 363 q 980 463 979 428 q 983 533 981 497 q 992 600 986 568 l 1129 561 q 1120 440 1122 503 q 1122 313 1118 376 q 1133 188 1125 250 q 1151 71 1140 126 q 1034 90 1096 82 q 909 101 972 97 q 783 102 846 104 q 661 93 719 100 l 622 231 q 690 239 654 236 q 760 242 725 242 q 827 242 794 243 q 886 236 860 240 l 193 931 l 292 1029 l 986 336 z "},"↙":{"ha":1389,"x_min":238,"x_max":1196,"o":"m 503 236 q 562 242 529 240 q 629 242 594 243 q 699 239 664 242 q 767 231 735 236 l 728 93 q 606 102 669 100 q 480 101 543 104 q 355 90 417 97 q 238 71 293 82 q 256 188 249 126 q 267 313 264 250 q 269 440 271 376 q 260 561 267 503 l 397 600 q 406 533 403 568 q 409 463 408 497 q 408 395 410 428 q 403 336 407 363 l 1097 1029 l 1196 931 l 503 236 z "},"⇒":{"ha":1389,"x_min":56,"x_max":1358,"o":"m 994 404 q 1128 526 1063 479 q 994 649 1063 574 l 56 649 l 56 789 l 874 789 q 816 864 843 825 q 769 938 789 903 l 890 1007 q 988 869 932 938 q 1104 738 1043 800 q 1231 621 1165 675 q 1358 526 1296 567 q 1231 432 1296 486 q 1104 315 1165 378 q 988 184 1043 253 q 890 46 932 115 l 769 115 q 816 189 789 150 q 874 264 843 228 l 56 264 l 56 404 l 994 404 l 994 404 z "},"⇔":{"ha":1389,"x_min":31,"x_max":1358,"o":"m 558 938 q 516 864 540 903 q 464 789 492 825 l 925 789 q 873 864 897 825 q 831 938 849 903 l 953 1007 q 1038 869 990 938 q 1138 738 1085 800 q 1248 621 1192 675 q 1358 526 1304 567 q 1248 432 1304 486 q 1138 315 1192 378 q 1038 184 1085 253 q 953 46 990 115 l 831 115 q 873 189 849 150 q 925 264 897 228 l 464 264 q 516 189 492 228 q 558 115 540 150 l 436 46 q 351 184 399 115 q 251 315 304 253 q 141 432 197 378 q 31 526 85 486 q 141 621 85 567 q 251 738 197 675 q 351 869 304 800 q 436 1007 399 938 l 558 938 m 358 649 q 240 526 297 572 q 358 404 297 481 l 1031 404 q 1149 526 1092 481 q 1031 649 1092 572 l 358 649 z "},"∀":{"ha":1389,"x_min":153,"x_max":1236,"o":"m 1236 1007 l 697 -22 l 692 -22 l 153 1007 l 278 1072 l 446 750 l 943 750 l 1111 1072 l 1236 1007 m 692 276 l 697 276 l 869 608 l 519 608 l 692 276 z "},"∂":{"ha":1389,"x_min":271,"x_max":1126,"o":"m 953 663 q 894 856 953 788 q 736 924 836 924 q 608 891 664 924 q 517 821 553 858 l 417 940 q 576 1036 494 1004 q 758 1068 657 1068 q 900 1042 833 1068 q 1017 963 967 1015 q 1097 834 1068 911 q 1126 657 1126 757 q 1114 513 1126 589 q 1074 361 1101 436 q 1006 218 1047 286 q 909 98 965 150 q 779 15 853 46 q 615 -15 706 -15 q 466 10 531 -15 q 358 79 401 35 q 293 184 315 124 q 271 315 271 244 q 302 467 271 399 q 385 584 333 535 q 503 660 438 633 q 639 686 569 686 q 810 647 738 686 q 936 533 883 607 l 939 533 q 949 601 946 568 q 953 663 953 635 m 439 325 q 490 188 439 238 q 618 139 540 139 q 782 200 718 139 q 879 361 846 261 q 790 501 853 456 q 654 546 726 546 q 576 531 614 546 q 507 488 538 517 q 458 419 476 460 q 439 325 439 378 z "},"∃":{"ha":1389,"x_min":263,"x_max":1122,"o":"m 1122 1038 l 1122 15 l 263 15 l 263 156 l 981 156 l 981 457 l 263 457 l 263 599 l 981 599 l 981 897 l 263 897 l 263 1038 l 1122 1038 z "},"∇":{"ha":1389,"x_min":194,"x_max":1194,"o":"m 194 886 l 194 1010 l 1194 1010 l 1194 886 l 821 -18 l 568 -18 l 194 886 m 961 838 l 422 838 l 571 456 l 686 143 l 693 143 l 808 456 l 961 838 z "},"∈":{"ha":1389,"x_min":168,"x_max":1210,"o":"m 631 832 q 521 815 572 832 q 428 766 469 797 q 359 692 388 735 q 319 597 331 649 l 1210 597 l 1210 456 l 319 456 q 359 361 331 404 q 428 287 388 318 q 521 238 469 256 q 631 221 572 221 l 1210 221 l 1210 81 l 631 81 q 449 115 533 81 q 301 208 364 149 q 203 349 239 268 q 168 526 168 431 q 203 703 168 622 q 301 844 239 785 q 449 938 364 904 q 631 972 533 972 l 1210 972 l 1210 832 l 631 832 z "},"∋":{"ha":1389,"x_min":179,"x_max":1221,"o":"m 179 832 l 179 972 l 758 972 q 940 938 856 972 q 1088 844 1025 904 q 1185 703 1150 785 q 1221 526 1221 622 q 1185 349 1221 431 q 1088 208 1150 268 q 940 115 1025 149 q 758 81 856 81 l 179 81 l 179 221 l 758 221 q 868 238 817 221 q 960 287 919 256 q 1030 361 1001 318 q 1069 456 1058 404 l 179 456 l 179 597 l 1069 597 q 1030 692 1058 649 q 960 766 1001 735 q 868 815 919 797 q 758 832 817 832 l 179 832 z "},"∏":{"ha":1389,"x_min":256,"x_max":1135,"o":"m 256 1001 l 1135 1001 l 1135 -189 l 928 -189 l 928 824 l 461 824 l 461 -189 l 256 -189 l 256 1001 z "},"∑":{"ha":1389,"x_min":276,"x_max":1113,"o":"m 543 167 l 1113 167 l 1113 0 l 276 0 l 276 113 l 621 510 l 293 897 l 293 1019 l 1071 1019 l 1071 854 l 564 854 l 564 850 l 842 517 l 543 172 l 543 167 z "},"√":{"ha":1389,"x_min":39,"x_max":1389,"o":"m 1389 1222 l 1389 1157 l 815 1157 l 368 -128 l 324 -128 l 172 258 l 78 126 l 39 156 l 240 438 l 375 93 l 768 1222 l 1389 1222 z "},"∝":{"ha":1389,"x_min":39,"x_max":1192,"o":"m 788 526 q 843 467 814 494 q 906 420 872 440 q 978 388 939 400 q 1061 376 1017 376 q 1139 389 1103 376 l 1192 258 q 1058 236 1133 236 q 947 250 999 236 q 851 289 896 264 q 767 347 806 314 q 694 418 729 381 q 622 347 661 381 q 538 289 583 314 q 442 250 493 264 q 331 236 390 236 q 227 254 279 236 q 133 309 175 272 q 65 400 92 346 q 39 526 39 454 q 65 653 39 599 q 133 744 92 708 q 227 799 175 781 q 331 818 279 818 q 442 803 390 818 q 538 764 493 789 q 622 706 583 739 q 694 635 661 672 q 767 706 729 672 q 851 764 806 739 q 947 803 896 789 q 1058 818 999 818 q 1192 794 1129 818 l 1139 664 q 1061 676 1103 676 q 978 665 1017 676 q 906 633 939 653 q 843 585 872 613 q 788 526 814 558 m 181 526 q 223 417 181 457 q 328 376 265 376 q 483 419 417 376 q 603 526 549 463 q 483 633 549 590 q 328 676 417 676 q 223 636 265 676 q 181 526 181 596 z "},"∞":{"ha":1389,"x_min":39,"x_max":1349,"o":"m 694 635 q 767 706 729 672 q 851 764 806 739 q 947 803 896 789 q 1058 818 999 818 q 1162 799 1110 818 q 1256 744 1214 781 q 1323 653 1297 708 q 1349 526 1349 599 q 1323 400 1349 454 q 1256 309 1297 346 q 1162 254 1214 272 q 1058 236 1110 236 q 947 250 999 236 q 851 289 896 264 q 767 347 806 314 q 694 418 729 381 q 622 347 661 381 q 538 289 583 314 q 442 250 493 264 q 331 236 390 236 q 227 254 279 236 q 133 309 175 272 q 65 400 92 346 q 39 526 39 454 q 65 653 39 599 q 133 744 92 708 q 227 799 175 781 q 331 818 279 818 q 442 803 390 818 q 538 764 493 789 q 622 706 583 739 q 694 635 661 672 m 181 526 q 223 417 181 457 q 328 376 265 376 q 483 419 417 376 q 603 526 549 463 q 483 633 549 590 q 328 676 417 676 q 223 636 265 676 q 181 526 181 596 m 788 526 q 843 467 814 494 q 906 420 872 440 q 978 388 939 400 q 1061 376 1017 376 q 1166 417 1124 376 q 1208 526 1208 457 q 1166 636 1208 596 q 1061 676 1124 676 q 978 665 1017 676 q 906 633 939 653 q 843 585 872 613 q 788 526 814 558 z "},"∠":{"ha":1389,"x_min":133,"x_max":1232,"o":"m 467 181 l 1232 181 l 1232 40 l 133 40 l 133 46 l 1044 961 l 1144 861 l 467 185 l 467 181 z "},"∥":{"ha":1389,"x_min":264,"x_max":1125,"o":"m 707 1074 l 832 1010 l 392 128 l 264 190 l 707 1074 m 557 46 l 997 926 l 1125 864 l 682 -18 l 557 46 z "},"∧":{"ha":1389,"x_min":153,"x_max":1236,"o":"m 692 1081 l 697 1081 l 1236 53 l 1111 -14 l 697 782 l 692 782 l 278 -14 l 153 53 l 692 1081 z "},"∨":{"ha":1389,"x_min":153,"x_max":1236,"o":"m 697 -28 l 692 -28 l 153 1000 l 278 1067 l 692 271 l 697 271 l 1111 1067 l 1236 1000 l 697 -28 z "},"∩":{"ha":1389,"x_min":249,"x_max":1140,"o":"m 249 590 q 283 772 249 688 q 376 919 317 857 q 517 1017 436 982 q 694 1053 599 1053 q 872 1017 790 1053 q 1013 919 953 982 q 1106 772 1072 857 q 1140 590 1140 688 l 1140 11 l 1000 11 l 1000 590 q 977 717 1000 658 q 913 819 954 776 q 816 888 872 863 q 694 913 760 913 q 573 888 629 913 q 476 819 517 863 q 412 717 435 776 q 389 590 389 658 l 389 11 l 249 11 l 249 590 l 249 590 z "},"∪":{"ha":1389,"x_min":249,"x_max":1140,"o":"m 1140 463 q 1106 281 1140 365 q 1013 133 1072 196 q 872 35 953 71 q 694 0 790 0 q 517 35 599 0 q 376 133 436 71 q 283 281 317 196 q 249 463 249 365 l 249 1042 l 389 1042 l 389 463 q 412 335 389 394 q 476 233 435 276 q 573 166 517 190 q 694 142 629 142 q 816 166 760 142 q 913 233 872 190 q 977 335 954 276 q 1000 463 1000 394 l 1000 1042 l 1140 1042 l 1140 463 l 1140 463 z "},"∫":{"ha":1389,"x_min":424,"x_max":965,"o":"m 608 826 q 632 1004 608 935 q 693 1113 656 1074 q 778 1168 731 1153 q 876 1183 826 1183 q 922 1181 900 1183 q 965 1174 944 1178 l 950 1014 q 893 1019 922 1019 q 844 1010 865 1019 q 808 975 822 1000 q 788 906 794 950 q 781 794 781 863 l 781 229 q 757 51 781 121 q 696 -58 733 -18 q 610 -112 658 -97 q 513 -128 563 -128 q 467 -125 489 -128 q 424 -118 444 -122 l 439 42 q 496 36 467 36 q 545 46 524 36 q 581 81 567 56 q 601 149 594 106 q 608 261 608 193 l 608 826 z "},"∬":{"ha":1389,"x_min":149,"x_max":1240,"o":"m 333 826 q 357 1004 333 935 q 418 1113 381 1074 q 503 1168 456 1153 q 601 1183 551 1183 q 647 1181 625 1183 q 690 1174 669 1178 l 675 1014 q 618 1019 647 1019 q 569 1010 590 1019 q 535 975 549 1000 q 514 906 521 950 q 507 794 507 863 l 507 229 q 483 51 507 121 q 422 -58 460 -18 q 335 -112 383 -97 q 238 -128 288 -128 q 192 -125 214 -128 q 149 -118 169 -122 l 164 42 q 222 36 192 36 q 271 46 250 36 q 306 81 292 56 q 326 149 319 106 q 333 261 333 193 l 333 826 m 882 826 q 906 1004 882 935 q 967 1113 929 1074 q 1053 1168 1006 1153 q 1151 1183 1101 1183 q 1197 1181 1175 1183 q 1240 1174 1219 1178 l 1225 1014 q 1167 1019 1197 1019 q 1118 1010 1139 1019 q 1083 975 1097 1000 q 1063 906 1069 950 q 1056 794 1056 863 l 1056 229 q 1032 51 1056 121 q 971 -58 1008 -18 q 885 -112 933 -97 q 788 -128 838 -128 q 742 -125 764 -128 q 699 -118 719 -122 l 714 42 q 771 36 742 36 q 819 46 799 36 q 854 81 840 56 q 875 149 868 106 q 882 261 882 193 l 882 826 z "},"∮":{"ha":1389,"x_min":424,"x_max":965,"o":"m 608 288 q 540 324 571 300 q 485 378 508 347 q 450 448 463 410 q 438 528 438 486 q 450 608 438 569 q 485 677 463 646 q 540 732 508 708 q 608 768 571 756 l 608 826 q 632 1004 608 935 q 693 1113 656 1074 q 778 1168 731 1153 q 876 1183 826 1183 q 922 1181 900 1183 q 965 1174 944 1178 l 950 1014 q 893 1019 922 1019 q 845 1010 865 1019 q 810 978 825 1001 q 788 915 796 956 q 781 811 781 874 l 781 768 q 849 732 818 756 q 903 677 881 708 q 939 608 926 646 q 951 528 951 569 q 939 448 951 486 q 903 378 926 410 q 849 324 881 347 q 781 288 818 300 l 781 229 q 757 51 781 121 q 696 -58 733 -18 q 610 -112 658 -97 q 513 -128 563 -128 q 467 -125 489 -128 q 424 -118 444 -122 l 439 42 q 496 36 467 36 q 543 45 522 36 q 578 77 564 54 q 601 141 593 100 q 608 244 608 182 l 608 288 m 608 688 q 537 623 564 665 q 510 528 510 581 q 537 433 510 475 q 608 368 564 390 l 608 688 m 781 368 q 852 433 825 390 q 879 528 879 475 q 852 623 879 581 q 781 688 825 665 l 781 368 z "},"∴":{"ha":1389,"x_min":235,"x_max":1154,"o":"m 574 839 q 609 924 574 889 q 694 960 644 960 q 780 924 744 960 q 815 839 815 889 q 806 792 815 814 q 780 754 796 771 q 742 728 764 738 q 694 718 719 718 q 647 728 669 718 q 609 754 625 738 q 583 792 593 771 q 574 839 574 814 m 235 214 q 244 260 235 239 q 270 299 254 282 q 308 325 286 315 q 356 335 331 335 q 402 325 381 335 q 440 299 424 315 q 467 260 457 282 q 476 214 476 239 q 467 167 476 189 q 440 128 457 144 q 402 103 424 113 q 356 93 381 93 q 270 128 306 93 q 235 214 235 164 m 914 214 q 924 260 914 239 q 949 299 933 282 q 987 325 965 315 q 1033 335 1008 335 q 1081 325 1058 335 q 1119 299 1103 315 q 1144 260 1135 282 q 1154 214 1154 239 q 1119 128 1154 164 q 1033 93 1083 93 q 987 103 1008 93 q 949 128 965 113 q 924 167 933 144 q 914 214 914 189 z "},"∵":{"ha":1389,"x_min":235,"x_max":1154,"o":"m 235 839 q 270 924 235 889 q 356 960 306 960 q 402 950 381 960 q 440 924 424 940 q 467 886 457 908 q 476 839 476 864 q 467 792 476 814 q 440 754 457 771 q 402 728 424 738 q 356 718 381 718 q 308 728 331 718 q 270 754 286 738 q 244 792 254 771 q 235 839 235 814 m 914 839 q 924 886 914 864 q 949 924 933 908 q 987 950 965 940 q 1033 960 1008 960 q 1119 924 1083 960 q 1154 839 1154 889 q 1144 792 1154 814 q 1119 754 1135 771 q 1081 728 1103 738 q 1033 718 1058 718 q 987 728 1008 718 q 949 754 965 738 q 924 792 933 771 q 914 839 914 814 m 574 214 q 583 260 574 239 q 609 299 593 282 q 647 325 625 315 q 694 335 669 335 q 742 325 719 335 q 780 299 764 315 q 806 260 796 282 q 815 214 815 239 q 780 128 815 164 q 694 93 744 93 q 609 128 644 93 q 574 214 574 164 z "},"∽":{"ha":1389,"x_min":39,"x_max":1349,"o":"m 644 576 q 725 667 682 624 q 819 744 768 711 q 928 798 869 778 q 1058 818 988 818 q 1162 799 1110 818 q 1256 744 1214 781 q 1323 653 1297 708 q 1349 526 1349 599 q 1323 399 1349 453 q 1255 308 1297 344 q 1160 254 1213 272 q 1053 236 1107 236 q 919 258 976 236 l 972 389 q 1056 376 1007 376 q 1165 416 1122 376 q 1208 526 1208 456 q 1166 636 1208 596 q 1061 676 1124 676 q 963 660 1007 676 q 879 615 918 643 q 807 551 840 588 q 743 475 774 514 q 663 383 706 426 q 570 308 621 340 q 460 256 519 275 q 331 236 401 236 q 227 254 279 236 q 133 309 175 272 q 65 400 92 346 q 39 526 39 454 q 65 653 39 599 q 133 745 92 708 q 228 800 175 782 q 336 818 282 818 q 469 794 407 818 l 417 664 q 333 676 381 676 q 224 637 267 676 q 181 526 181 597 q 223 417 181 457 q 328 376 265 376 q 426 393 382 376 q 509 437 471 410 q 581 500 547 464 q 644 576 614 536 z "},"≒":{"ha":1389,"x_min":201,"x_max":1188,"o":"m 328 935 q 363 1020 328 985 q 449 1056 399 1056 q 495 1046 474 1056 q 533 1020 517 1036 q 558 982 549 1004 q 568 935 568 960 q 558 888 568 910 q 533 851 549 867 q 495 825 517 835 q 449 815 474 815 q 401 825 424 815 q 363 851 379 835 q 338 888 347 867 q 328 935 328 910 m 1188 721 l 1188 601 l 201 601 l 201 721 l 1188 721 m 1188 451 l 1188 332 l 201 332 l 201 451 l 1188 451 m 821 118 q 831 165 821 143 q 856 202 840 186 q 894 228 872 218 q 940 238 915 238 q 988 228 965 238 q 1026 202 1010 218 q 1051 165 1042 186 q 1061 118 1061 143 q 1026 33 1061 68 q 940 -3 990 -3 q 894 7 915 -3 q 856 33 872 17 q 831 71 840 49 q 821 118 821 93 z "},"≠":{"ha":1389,"x_min":201,"x_max":1188,"o":"m 801 615 l 736 436 l 1188 436 l 1188 294 l 685 294 l 593 39 l 460 88 l 536 294 l 201 294 l 201 436 l 586 436 l 651 615 l 201 615 l 201 756 l 703 756 l 796 1014 l 929 965 l 853 756 l 1188 756 l 1188 615 l 801 615 z "},"≡":{"ha":1389,"x_min":201,"x_max":1188,"o":"m 1188 896 l 1188 765 l 201 765 l 201 896 l 1188 896 m 1188 592 l 1188 461 l 201 461 l 201 592 l 1188 592 m 1188 288 l 1188 157 l 201 157 l 201 288 l 1188 288 z "},"≤":{"ha":1389,"x_min":133,"x_max":1218,"o":"m 1210 118 l 1210 -12 l 179 -12 l 179 118 l 1210 118 m 507 658 l 1218 372 l 1165 240 l 133 658 l 133 663 l 1165 1081 l 1218 949 l 507 663 l 507 658 z "},"≥":{"ha":1389,"x_min":171,"x_max":1256,"o":"m 179 118 l 1210 118 l 1210 -12 l 179 -12 l 179 118 m 882 658 l 882 663 l 171 949 l 225 1081 l 1256 663 l 1256 658 l 225 240 l 171 372 l 882 658 z "},"≪":{"ha":1389,"x_min":44,"x_max":1343,"o":"m 883 969 l 250 529 l 250 524 l 883 83 l 815 -15 l 44 524 l 44 529 l 815 1068 l 883 969 m 1343 969 l 711 529 l 711 524 l 1343 83 l 1275 -15 l 504 524 l 504 529 l 1275 1068 l 1343 969 z "},"≫":{"ha":1389,"x_min":46,"x_max":1344,"o":"m 885 529 l 885 524 l 114 -15 l 46 83 l 678 524 l 678 529 l 46 969 l 114 1068 l 885 529 m 1344 529 l 1344 524 l 574 -15 l 506 83 l 1139 524 l 1139 529 l 506 969 l 574 1068 l 1344 529 z "},"⊂":{"ha":1389,"x_min":168,"x_max":1210,"o":"m 631 81 q 449 115 533 81 q 301 208 364 149 q 203 349 239 268 q 168 526 168 431 q 203 703 168 622 q 301 844 239 785 q 449 938 364 904 q 631 972 533 972 l 1210 972 l 1210 832 l 631 832 q 503 809 563 832 q 401 745 444 786 q 334 648 358 704 q 310 526 310 592 q 334 405 310 461 q 401 308 358 349 q 503 244 444 267 q 631 221 563 221 l 1210 221 l 1210 81 l 631 81 l 631 81 z "},"⊃":{"ha":1389,"x_min":179,"x_max":1221,"o":"m 758 972 q 940 938 856 972 q 1088 844 1025 904 q 1185 703 1150 785 q 1221 526 1221 622 q 1185 349 1221 431 q 1088 208 1150 268 q 940 115 1025 149 q 758 81 856 81 l 179 81 l 179 221 l 758 221 q 885 244 826 221 q 988 308 944 267 q 1056 405 1031 349 q 1081 526 1081 461 q 1056 648 1081 592 q 988 745 1031 704 q 885 809 944 786 q 758 832 826 832 l 179 832 l 179 972 l 758 972 l 758 972 z "},"⊆":{"ha":1389,"x_min":168,"x_max":1210,"o":"m 565 926 q 460 908 507 926 q 379 857 413 889 q 328 782 346 825 q 310 690 310 739 q 328 599 310 642 q 379 524 346 556 q 460 473 413 492 q 565 454 507 454 l 1210 454 l 1210 314 l 564 314 q 405 344 478 314 q 279 424 332 374 q 197 544 226 475 q 168 690 168 613 q 197 837 168 768 q 279 957 226 906 q 405 1038 332 1008 q 564 1068 478 1068 l 1210 1068 l 1210 926 l 565 926 m 1210 126 l 1210 -15 l 179 -15 l 179 126 l 1210 126 z "},"⊇":{"ha":1389,"x_min":179,"x_max":1221,"o":"m 825 454 q 929 473 882 454 q 1010 524 976 492 q 1062 599 1043 556 q 1081 690 1081 642 q 1062 782 1081 739 q 1010 857 1043 825 q 929 908 976 889 q 825 926 882 926 l 179 926 l 179 1068 l 825 1068 q 984 1038 911 1068 q 1110 957 1057 1008 q 1192 837 1163 906 q 1221 690 1221 768 q 1192 544 1221 613 q 1110 424 1163 475 q 984 344 1057 374 q 825 314 911 314 l 179 314 l 179 454 l 825 454 m 1210 126 l 1210 -15 l 179 -15 l 179 126 l 1210 126 z "},"⊙":{"ha":1389,"x_min":181,"x_max":1208,"o":"m 694 14 q 494 54 588 14 q 331 165 401 94 q 221 328 261 235 q 181 528 181 421 q 221 727 181 633 q 331 891 261 821 q 494 1001 401 961 q 694 1042 588 1042 q 894 1001 800 1042 q 1058 891 988 961 q 1168 727 1128 821 q 1208 528 1208 633 q 1168 328 1208 421 q 1058 165 1128 235 q 894 54 988 94 q 694 14 800 14 m 322 528 q 351 383 322 450 q 431 265 381 315 q 549 185 482 214 q 694 156 617 156 q 839 185 771 156 q 958 265 907 214 q 1038 383 1008 315 q 1067 528 1067 450 q 1038 672 1067 604 q 958 791 1008 740 q 839 871 907 842 q 694 900 771 900 q 549 871 617 900 q 431 791 482 842 q 351 672 381 740 q 322 528 322 604 m 786 528 q 759 463 786 489 q 694 436 732 436 q 630 463 657 436 q 603 528 603 489 q 630 592 603 565 q 694 619 657 619 q 759 592 732 619 q 786 528 786 565 z "},"⊥":{"ha":1389,"x_min":132,"x_max":1257,"o":"m 1257 183 l 1257 42 l 132 42 l 132 183 l 624 183 l 624 1024 l 765 1024 l 765 183 l 1257 183 z "},"⌒":{"ha":1389,"x_min":28,"x_max":1361,"o":"m 28 908 q 152 1014 83 964 q 304 1101 221 1064 q 485 1160 388 1139 q 694 1182 583 1182 q 903 1160 806 1182 q 1083 1101 1000 1139 q 1236 1014 1167 1064 q 1361 908 1306 964 l 1303 775 q 1181 874 1246 828 q 1042 953 1117 919 q 881 1006 967 986 q 694 1025 794 1025 q 508 1006 594 1025 q 346 953 421 986 q 206 874 271 919 q 86 775 142 828 l 28 908 l 28 908 z "},"①":{"ha":1389,"x_min":39,"x_max":1350,"o":"m 694 -128 q 440 -76 558 -128 q 231 65 321 -25 q 90 273 142 154 q 39 528 39 392 q 90 782 39 663 q 231 991 142 901 q 440 1132 321 1081 q 694 1183 558 1183 q 949 1132 829 1183 q 1158 991 1068 1081 q 1299 782 1247 901 q 1350 528 1350 663 q 1298 272 1350 392 q 1156 64 1246 153 q 948 -76 1067 -25 q 694 -128 829 -128 m 694 -76 q 929 -29 819 -76 q 1122 101 1039 18 q 1251 293 1204 183 q 1299 528 1299 403 q 1251 763 1299 653 q 1122 955 1204 872 q 929 1085 1039 1038 q 694 1132 819 1132 q 458 1084 568 1132 q 267 953 349 1036 q 138 761 185 871 q 90 528 90 651 q 138 293 90 403 q 267 101 185 183 q 460 -29 350 18 q 694 -76 569 -76 m 638 719 l 486 719 l 486 831 q 595 859 549 843 q 682 899 642 875 l 815 899 l 815 169 l 638 169 l 638 719 z "},"②":{"ha":1389,"x_min":39,"x_max":1350,"o":"m 694 -128 q 440 -76 558 -128 q 231 65 321 -25 q 90 273 142 154 q 39 528 39 392 q 90 782 39 663 q 231 991 142 901 q 440 1132 321 1081 q 694 1183 558 1183 q 949 1132 829 1183 q 1158 991 1068 1081 q 1299 782 1247 901 q 1350 528 1350 663 q 1298 272 1350 392 q 1156 64 1246 153 q 948 -76 1067 -25 q 694 -128 829 -128 m 694 -76 q 929 -29 819 -76 q 1122 101 1039 18 q 1251 293 1204 183 q 1299 528 1299 403 q 1251 763 1299 653 q 1122 955 1204 872 q 929 1085 1039 1038 q 694 1132 819 1132 q 458 1084 568 1132 q 267 953 349 1036 q 138 761 185 871 q 90 528 90 651 q 138 293 90 403 q 267 101 185 183 q 460 -29 350 18 q 694 -76 569 -76 m 440 272 q 580 392 517 336 q 688 497 643 447 q 757 588 732 546 q 782 669 782 631 q 672 778 782 778 q 590 755 626 778 q 522 704 553 732 l 425 799 q 693 915 540 915 q 799 899 751 915 q 881 852 847 882 q 934 780 915 822 q 953 686 953 738 q 931 591 953 639 q 872 495 908 543 q 790 401 836 447 q 693 311 743 354 q 762 316 724 314 q 832 318 800 318 l 981 318 l 981 169 l 440 169 l 440 272 z "},"③":{"ha":1389,"x_min":39,"x_max":1350,"o":"m 694 -128 q 440 -76 558 -128 q 231 65 321 -25 q 90 273 142 154 q 39 528 39 392 q 90 782 39 663 q 231 991 142 901 q 440 1132 321 1081 q 694 1183 558 1183 q 949 1132 829 1183 q 1158 991 1068 1081 q 1299 782 1247 901 q 1350 528 1350 663 q 1298 272 1350 392 q 1156 64 1246 153 q 948 -76 1067 -25 q 694 -128 829 -128 m 694 -76 q 929 -29 819 -76 q 1122 101 1039 18 q 1251 293 1204 183 q 1299 528 1299 403 q 1251 763 1299 653 q 1122 955 1204 872 q 929 1085 1039 1038 q 694 1132 819 1132 q 458 1084 568 1132 q 267 953 349 1036 q 138 761 185 871 q 90 528 90 651 q 138 293 90 403 q 267 101 185 183 q 460 -29 350 18 q 694 -76 569 -76 m 679 153 q 518 181 590 153 q 403 258 446 210 l 485 369 q 568 315 521 338 q 676 292 615 292 q 763 315 729 292 q 797 381 797 339 q 788 423 797 404 q 753 454 778 442 q 687 474 729 467 q 578 481 644 481 l 578 604 q 730 630 688 604 q 772 700 772 656 q 671 781 772 781 q 515 714 590 781 l 428 821 q 542 890 481 865 q 675 915 604 915 q 874 863 800 915 q 949 711 949 811 q 914 616 949 656 q 814 551 879 576 l 814 547 q 931 483 885 528 q 976 367 976 439 q 953 276 976 315 q 889 209 929 236 q 794 167 849 182 q 679 153 740 153 z "},"④":{"ha":1389,"x_min":39,"x_max":1350,"o":"m 708 472 l 708 586 q 710 667 708 622 q 714 749 711 713 l 708 749 q 692 719 699 732 q 677 693 685 706 q 663 668 669 681 q 646 639 656 656 l 531 472 l 708 472 m 874 472 l 967 472 l 967 342 l 874 342 l 874 169 l 708 169 l 708 342 l 363 342 l 363 464 l 658 899 l 874 899 l 874 472 m 694 -76 q 929 -29 819 -76 q 1122 101 1039 18 q 1251 293 1204 183 q 1299 528 1299 403 q 1251 763 1299 653 q 1122 955 1204 872 q 929 1085 1039 1038 q 694 1132 819 1132 q 458 1084 568 1132 q 267 953 349 1036 q 138 761 185 871 q 90 528 90 651 q 138 293 90 403 q 267 101 185 183 q 460 -29 350 18 q 694 -76 569 -76 m 694 1183 q 949 1132 829 1183 q 1158 991 1068 1081 q 1299 782 1247 901 q 1350 528 1350 663 q 1298 272 1350 392 q 1156 64 1246 153 q 948 -76 1067 -25 q 694 -128 829 -128 q 440 -76 558 -128 q 231 65 321 -25 q 90 273 142 154 q 39 528 39 392 q 90 782 39 663 q 231 991 142 901 q 440 1132 321 1081 q 694 1183 558 1183 z "},"⑤":{"ha":1389,"x_min":39,"x_max":1350,"o":"m 694 -128 q 440 -76 558 -128 q 231 65 321 -25 q 90 273 142 154 q 39 528 39 392 q 90 782 39 663 q 231 991 142 901 q 440 1132 321 1081 q 694 1183 558 1183 q 949 1132 829 1183 q 1158 991 1068 1081 q 1299 782 1247 901 q 1350 528 1350 663 q 1298 272 1350 392 q 1156 64 1246 153 q 948 -76 1067 -25 q 694 -128 829 -128 m 694 -76 q 929 -29 819 -76 q 1122 101 1039 18 q 1251 293 1204 183 q 1299 528 1299 403 q 1251 763 1299 653 q 1122 955 1204 872 q 929 1085 1039 1038 q 694 1132 819 1132 q 458 1084 568 1132 q 267 953 349 1036 q 138 761 185 871 q 90 528 90 651 q 138 293 90 403 q 267 101 185 183 q 460 -29 350 18 q 694 -76 569 -76 m 689 154 q 526 183 593 154 q 413 257 460 213 l 492 369 q 573 316 528 340 q 675 292 618 292 q 770 322 735 292 q 806 407 806 353 q 770 490 806 460 q 681 519 735 519 q 617 509 642 519 q 556 476 592 499 l 476 528 l 499 899 l 946 899 l 946 753 l 644 753 l 633 618 q 729 638 681 638 q 826 624 781 638 q 907 582 872 610 q 962 511 942 554 q 982 410 982 468 q 958 301 982 349 q 894 222 935 254 q 801 172 854 189 q 689 154 747 154 z "},"⑥":{"ha":1389,"x_min":39,"x_max":1350,"o":"m 697 285 q 770 313 739 285 q 801 394 801 342 q 769 476 801 447 q 688 504 738 504 q 623 488 656 504 q 560 433 590 472 q 611 316 574 347 q 697 285 649 285 m 857 722 q 799 758 835 743 q 728 774 764 774 q 665 763 694 774 q 611 725 635 751 q 572 656 588 699 q 554 549 557 613 q 638 607 589 586 q 733 628 686 628 q 824 615 782 628 q 897 573 865 601 q 946 502 928 544 q 964 401 964 460 q 942 297 964 343 q 885 219 921 251 q 800 169 849 186 q 696 153 751 153 q 581 174 636 153 q 485 239 526 194 q 418 353 443 283 q 393 519 393 422 q 420 696 393 621 q 492 819 447 771 q 597 892 538 868 q 719 915 656 915 q 855 890 799 915 q 950 828 911 864 l 857 722 m 694 -76 q 929 -29 819 -76 q 1122 101 1039 18 q 1251 293 1204 183 q 1299 528 1299 403 q 1251 763 1299 653 q 1122 955 1204 872 q 929 1085 1039 1038 q 694 1132 819 1132 q 458 1084 568 1132 q 267 953 349 1036 q 138 761 185 871 q 90 528 90 651 q 138 293 90 403 q 267 101 185 183 q 460 -29 350 18 q 694 -76 569 -76 m 694 1183 q 949 1132 829 1183 q 1158 991 1068 1081 q 1299 782 1247 901 q 1350 528 1350 663 q 1298 272 1350 392 q 1156 64 1246 153 q 948 -76 1067 -25 q 694 -128 829 -128 q 440 -76 558 -128 q 231 65 321 -25 q 90 273 142 154 q 39 528 39 392 q 90 782 39 663 q 231 991 142 901 q 440 1132 321 1081 q 694 1183 558 1183 z "},"⑦":{"ha":1389,"x_min":39,"x_max":1350,"o":"m 694 -128 q 440 -76 558 -128 q 231 65 321 -25 q 90 273 142 154 q 39 528 39 392 q 90 782 39 663 q 231 991 142 901 q 440 1132 321 1081 q 694 1183 558 1183 q 949 1132 829 1183 q 1158 991 1068 1081 q 1299 782 1247 901 q 1350 528 1350 663 q 1298 272 1350 392 q 1156 64 1246 153 q 948 -76 1067 -25 q 694 -128 829 -128 m 694 -76 q 929 -29 819 -76 q 1122 101 1039 18 q 1251 293 1204 183 q 1299 528 1299 403 q 1251 763 1299 653 q 1122 955 1204 872 q 929 1085 1039 1038 q 694 1132 819 1132 q 458 1084 568 1132 q 267 953 349 1036 q 138 761 185 871 q 90 528 90 651 q 138 293 90 403 q 267 101 185 183 q 460 -29 350 18 q 694 -76 569 -76 m 567 169 q 585 335 572 260 q 622 480 597 411 q 683 615 646 549 q 778 753 721 682 l 432 753 l 432 899 l 969 899 l 969 792 q 859 649 900 715 q 794 511 818 582 q 761 358 771 440 q 746 169 751 276 l 567 169 z "},"⑧":{"ha":1389,"x_min":39,"x_max":1350,"o":"m 694 -128 q 440 -76 558 -128 q 231 65 321 -25 q 90 273 142 154 q 39 528 39 392 q 90 782 39 663 q 231 991 142 901 q 440 1132 321 1081 q 694 1183 558 1183 q 949 1132 829 1183 q 1158 991 1068 1081 q 1299 782 1247 901 q 1350 528 1350 663 q 1298 272 1350 392 q 1156 64 1246 153 q 948 -76 1067 -25 q 694 -128 829 -128 m 694 -76 q 929 -29 819 -76 q 1122 101 1039 18 q 1251 293 1204 183 q 1299 528 1299 403 q 1251 763 1299 653 q 1122 955 1204 872 q 929 1085 1039 1038 q 694 1132 819 1132 q 458 1084 568 1132 q 267 953 349 1036 q 138 761 185 871 q 90 528 90 651 q 138 293 90 403 q 267 101 185 183 q 460 -29 350 18 q 694 -76 569 -76 m 690 153 q 578 167 629 153 q 489 208 526 182 q 431 271 451 235 q 410 350 410 307 q 421 413 410 385 q 451 463 432 440 q 497 503 471 486 q 551 535 522 521 l 551 539 q 472 613 503 571 q 440 713 440 654 q 460 797 440 760 q 513 861 479 835 q 593 901 547 888 q 692 915 639 915 q 876 861 808 915 q 943 721 943 807 q 910 622 943 663 q 838 556 878 581 l 838 551 q 892 518 867 536 q 936 477 917 500 q 967 425 956 454 q 978 360 978 396 q 957 278 978 315 q 899 213 936 240 q 808 169 861 185 q 690 153 754 153 m 739 594 q 796 703 796 643 q 767 770 796 744 q 689 796 739 796 q 621 775 649 796 q 593 713 593 754 q 634 641 593 668 q 739 594 675 614 m 699 275 q 784 297 750 275 q 818 365 818 318 q 806 406 818 389 q 771 438 793 424 q 716 466 749 453 q 644 493 683 479 q 590 444 614 474 q 567 376 567 415 q 606 302 567 329 q 699 275 646 275 z "},"⑨":{"ha":1389,"x_min":39,"x_max":1350,"o":"m 699 564 q 764 581 729 564 q 826 638 799 599 q 775 753 813 722 q 692 785 738 785 q 620 758 651 785 q 589 672 589 731 q 619 589 589 614 q 699 564 650 564 m 531 347 q 588 310 553 326 q 664 293 624 293 q 726 305 697 293 q 778 344 756 317 q 814 414 800 371 q 831 519 828 457 q 753 463 799 483 q 663 443 707 443 q 569 456 613 443 q 494 497 526 469 q 443 568 461 525 q 425 669 425 611 q 446 772 425 726 q 503 850 467 818 q 588 899 539 882 q 690 917 636 917 q 805 896 750 917 q 902 831 860 875 q 969 718 944 788 q 994 551 994 649 q 967 374 994 449 q 895 249 940 299 q 792 176 850 200 q 669 153 733 153 q 533 179 590 153 q 438 242 475 206 l 531 347 m 694 -76 q 929 -29 819 -76 q 1122 101 1039 18 q 1251 293 1204 183 q 1299 528 1299 403 q 1251 763 1299 653 q 1122 955 1204 872 q 929 1085 1039 1038 q 694 1132 819 1132 q 458 1084 568 1132 q 267 953 349 1036 q 138 761 185 871 q 90 528 90 651 q 138 293 90 403 q 267 101 185 183 q 460 -29 350 18 q 694 -76 569 -76 m 694 1183 q 949 1132 829 1183 q 1158 991 1068 1081 q 1299 782 1247 901 q 1350 528 1350 663 q 1298 272 1350 392 q 1156 64 1246 153 q 948 -76 1067 -25 q 694 -128 829 -128 q 440 -76 558 -128 q 231 65 321 -25 q 90 273 142 154 q 39 528 39 392 q 90 782 39 663 q 231 991 142 901 q 440 1132 321 1081 q 694 1183 558 1183 z "},"⑩":{"ha":1389,"x_min":39,"x_max":1350,"o":"m 694 -128 q 440 -76 558 -128 q 231 65 321 -25 q 90 273 142 154 q 39 528 39 392 q 90 782 39 663 q 231 991 142 901 q 440 1132 321 1081 q 694 1183 558 1183 q 949 1132 829 1183 q 1158 991 1068 1081 q 1299 782 1247 901 q 1350 528 1350 663 q 1298 272 1350 392 q 1156 64 1246 153 q 948 -76 1067 -25 q 694 -128 829 -128 m 694 -76 q 929 -29 819 -76 q 1122 101 1039 18 q 1251 293 1204 183 q 1299 528 1299 403 q 1251 763 1299 653 q 1122 955 1204 872 q 929 1085 1039 1038 q 694 1132 819 1132 q 458 1084 568 1132 q 267 953 349 1036 q 138 761 185 871 q 90 528 90 651 q 138 293 90 403 q 267 101 185 183 q 460 -29 350 18 q 694 -76 569 -76 m 376 719 l 254 719 l 254 831 q 344 859 307 843 q 418 899 382 875 l 540 899 l 540 169 l 376 169 l 376 719 m 892 153 q 793 179 838 153 q 717 256 749 206 q 667 377 685 306 q 650 539 650 449 q 717 818 650 719 q 892 917 783 917 q 990 891 946 917 q 1067 817 1035 865 q 1116 698 1099 768 q 1133 539 1133 628 q 1116 377 1133 449 q 1067 256 1099 306 q 990 179 1035 206 q 892 153 946 153 m 892 294 q 949 349 926 294 q 971 539 971 403 q 965 653 971 607 q 948 726 958 699 q 923 766 938 754 q 892 778 908 778 q 860 766 875 778 q 835 726 846 754 q 819 653 825 699 q 814 539 814 607 q 835 349 814 403 q 892 294 857 294 z "},"⑪":{"ha":1389,"x_min":39,"x_max":1350,"o":"m 694 -128 q 440 -76 558 -128 q 231 65 321 -25 q 90 273 142 154 q 39 528 39 392 q 90 782 39 663 q 231 991 142 901 q 440 1132 321 1081 q 694 1183 558 1183 q 949 1132 829 1183 q 1158 991 1068 1081 q 1299 782 1247 901 q 1350 528 1350 663 q 1298 272 1350 392 q 1156 64 1246 153 q 948 -76 1067 -25 q 694 -128 829 -128 m 694 -76 q 929 -29 819 -76 q 1122 101 1039 18 q 1251 293 1204 183 q 1299 528 1299 403 q 1251 763 1299 653 q 1122 955 1204 872 q 929 1085 1039 1038 q 694 1132 819 1132 q 458 1084 568 1132 q 267 953 349 1036 q 138 761 185 871 q 90 528 90 651 q 138 293 90 403 q 267 101 185 183 q 460 -29 350 18 q 694 -76 569 -76 m 433 719 l 311 719 l 311 831 q 401 859 364 843 q 475 899 439 875 l 597 899 l 597 169 l 433 169 l 433 719 m 836 719 l 714 719 l 714 831 q 804 859 767 843 q 876 899 842 875 l 1000 899 l 1000 169 l 836 169 l 836 719 z "},"⑫":{"ha":1389,"x_min":39,"x_max":1350,"o":"m 694 -128 q 440 -76 558 -128 q 231 65 321 -25 q 90 273 142 154 q 39 528 39 392 q 90 782 39 663 q 231 991 142 901 q 440 1132 321 1081 q 694 1183 558 1183 q 949 1132 829 1183 q 1158 991 1068 1081 q 1299 782 1247 901 q 1350 528 1350 663 q 1298 272 1350 392 q 1156 64 1246 153 q 948 -76 1067 -25 q 694 -128 829 -128 m 694 -76 q 929 -29 819 -76 q 1122 101 1039 18 q 1251 293 1204 183 q 1299 528 1299 403 q 1251 763 1299 653 q 1122 955 1204 872 q 929 1085 1039 1038 q 694 1132 819 1132 q 458 1084 568 1132 q 267 953 349 1036 q 138 761 185 871 q 90 528 90 651 q 138 293 90 403 q 267 101 185 183 q 460 -29 350 18 q 694 -76 569 -76 m 375 719 l 251 719 l 251 831 q 342 859 304 843 q 415 899 379 875 l 538 899 l 538 169 l 375 169 l 375 719 m 663 272 q 762 392 717 336 q 840 497 807 447 q 890 588 872 546 q 908 669 908 631 q 833 778 908 778 q 782 760 806 778 q 738 718 758 742 l 650 813 q 748 890 696 865 q 861 915 800 915 q 944 899 907 915 q 1008 852 982 882 q 1049 780 1035 822 q 1064 686 1064 738 q 1047 591 1064 639 q 1003 495 1031 543 q 943 401 976 447 q 876 311 910 354 q 931 316 900 314 q 985 318 961 318 l 1085 318 l 1085 169 l 663 169 l 663 272 z "},"⑬":{"ha":1389,"x_min":39,"x_max":1350,"o":"m 694 -128 q 440 -76 558 -128 q 231 65 321 -25 q 90 273 142 154 q 39 528 39 392 q 90 782 39 663 q 231 991 142 901 q 440 1132 321 1081 q 694 1183 558 1183 q 949 1132 829 1183 q 1158 991 1068 1081 q 1299 782 1247 901 q 1350 528 1350 663 q 1298 272 1350 392 q 1156 64 1246 153 q 948 -76 1067 -25 q 694 -128 829 -128 m 694 -76 q 929 -29 819 -76 q 1122 101 1039 18 q 1251 293 1204 183 q 1299 528 1299 403 q 1251 763 1299 653 q 1122 955 1204 872 q 929 1085 1039 1038 q 694 1132 819 1132 q 458 1084 568 1132 q 267 953 349 1036 q 138 761 185 871 q 90 528 90 651 q 138 293 90 403 q 267 101 185 183 q 460 -29 350 18 q 694 -76 569 -76 m 381 719 l 258 719 l 258 831 q 349 859 311 843 q 421 899 386 875 l 544 899 l 544 169 l 381 169 l 381 719 m 856 153 q 732 176 789 153 q 642 243 675 200 l 718 353 q 776 308 746 325 q 847 292 807 292 q 906 315 883 292 q 929 381 929 339 q 923 423 929 404 q 899 454 917 442 q 851 474 882 467 q 774 481 821 481 l 774 604 q 879 630 850 604 q 908 700 908 656 q 890 760 908 739 q 840 781 871 781 q 790 769 813 781 q 740 729 768 757 l 658 835 q 853 915 743 915 q 1013 863 953 915 q 1072 711 1072 811 q 967 551 1072 603 l 967 547 q 1058 483 1022 528 q 1093 367 1093 439 q 1074 276 1093 315 q 1023 209 1056 236 q 947 167 990 182 q 856 153 904 153 z "},"⑭":{"ha":1389,"x_min":39,"x_max":1350,"o":"m 251 831 q 342 859 304 843 q 415 899 379 875 l 538 899 l 538 169 l 375 169 l 375 719 l 251 719 l 251 831 m 899 472 l 899 586 q 901 667 899 622 q 904 749 903 713 l 900 749 q 876 693 885 714 q 854 639 868 672 l 779 472 l 899 472 m 1047 472 l 1118 472 l 1118 342 l 1047 342 l 1047 169 l 899 169 l 899 342 l 635 342 l 635 464 l 854 899 l 1047 899 l 1047 472 m 694 -76 q 929 -29 819 -76 q 1122 101 1039 18 q 1251 293 1204 183 q 1299 528 1299 403 q 1251 763 1299 653 q 1122 955 1204 872 q 929 1085 1039 1038 q 694 1132 819 1132 q 458 1084 568 1132 q 267 953 349 1036 q 138 761 185 871 q 90 528 90 651 q 138 293 90 403 q 267 101 185 183 q 460 -29 350 18 q 694 -76 569 -76 m 694 1183 q 949 1132 829 1183 q 1158 991 1068 1081 q 1299 782 1247 901 q 1350 528 1350 663 q 1298 272 1350 392 q 1156 64 1246 153 q 948 -76 1067 -25 q 694 -128 829 -128 q 440 -76 558 -128 q 231 65 321 -25 q 90 273 142 154 q 39 528 39 392 q 90 782 39 663 q 231 991 142 901 q 440 1132 321 1081 q 694 1183 558 1183 z "},"⑮":{"ha":1389,"x_min":39,"x_max":1350,"o":"m 694 -128 q 440 -76 558 -128 q 231 65 321 -25 q 90 273 142 154 q 39 528 39 392 q 90 782 39 663 q 231 991 142 901 q 440 1132 321 1081 q 694 1183 558 1183 q 949 1132 829 1183 q 1158 991 1068 1081 q 1299 782 1247 901 q 1350 528 1350 663 q 1298 272 1350 392 q 1156 64 1246 153 q 948 -76 1067 -25 q 694 -128 829 -128 m 694 -76 q 929 -29 819 -76 q 1122 101 1039 18 q 1251 293 1204 183 q 1299 528 1299 403 q 1251 763 1299 653 q 1122 955 1204 872 q 929 1085 1039 1038 q 694 1132 819 1132 q 458 1084 568 1132 q 267 953 349 1036 q 138 761 185 871 q 90 528 90 651 q 138 293 90 403 q 267 101 185 183 q 460 -29 350 18 q 694 -76 569 -76 m 375 719 l 251 719 l 251 831 q 342 859 304 843 q 415 899 379 875 l 538 899 l 538 169 l 375 169 l 375 719 m 854 154 q 728 181 781 154 q 638 247 675 207 l 710 360 q 769 313 736 333 q 842 292 803 292 q 909 322 885 292 q 933 407 933 353 q 910 490 933 460 q 849 519 886 519 q 803 509 824 519 q 760 476 782 499 l 689 528 l 704 899 l 1068 899 l 1068 753 l 840 753 l 835 618 q 901 638 869 638 q 976 624 940 638 q 1038 582 1011 610 q 1081 511 1065 554 q 1096 410 1096 468 q 1076 301 1096 349 q 1024 222 1057 254 q 947 172 990 189 q 854 154 903 154 z "},"⑴":{"ha":1389,"x_min":39,"x_max":1350,"o":"m 210 -125 q 76 180 114 21 q 39 528 39 339 q 76 875 39 715 q 210 1181 114 1035 l 300 1158 q 229 1013 257 1086 q 185 860 201 939 q 162 699 168 782 q 156 528 156 617 q 163 356 156 439 q 185 195 169 274 q 229 43 201 117 q 300 -103 257 -31 l 210 -125 m 431 172 l 631 172 l 631 799 l 463 799 l 463 925 q 587 960 536 939 q 685 1013 638 981 l 835 1013 l 835 172 l 1008 172 l 1008 6 l 431 6 l 431 172 m 1089 -103 q 1160 43 1132 -31 q 1203 195 1188 117 q 1226 356 1219 274 q 1233 528 1233 439 q 1227 699 1233 617 q 1204 860 1221 782 q 1160 1013 1188 939 q 1089 1158 1132 1086 l 1179 1181 q 1313 875 1275 1035 q 1350 528 1350 715 q 1313 180 1350 339 q 1179 -125 1275 21 l 1089 -103 z "},"⑵":{"ha":1389,"x_min":39,"x_max":1350,"o":"m 210 -125 q 76 180 114 21 q 39 528 39 339 q 76 875 39 715 q 210 1181 114 1035 l 300 1158 q 229 1013 257 1086 q 185 860 201 939 q 162 699 168 782 q 156 528 156 617 q 163 356 156 439 q 185 195 169 274 q 229 43 201 117 q 300 -103 257 -31 l 210 -125 m 376 124 q 546 302 469 219 q 676 456 622 385 q 760 588 731 526 q 789 706 789 650 q 755 826 789 783 q 651 869 721 869 q 553 838 599 869 q 472 763 508 807 l 360 874 q 502 991 428 951 q 678 1031 576 1031 q 806 1008 749 1031 q 902 945 863 986 q 963 846 942 904 q 985 717 985 788 q 959 584 985 651 q 890 448 933 517 q 790 309 847 379 q 671 168 733 239 q 752 174 708 171 q 829 178 796 178 l 1024 178 l 1024 6 l 376 6 l 376 124 m 1089 -103 q 1160 43 1132 -31 q 1203 195 1188 117 q 1226 356 1219 274 q 1233 528 1233 439 q 1227 699 1233 617 q 1204 860 1221 782 q 1160 1013 1188 939 q 1089 1158 1132 1086 l 1179 1181 q 1313 875 1275 1035 q 1350 528 1350 715 q 1313 180 1350 339 q 1179 -125 1275 21 l 1089 -103 z "},"⑶":{"ha":1389,"x_min":39,"x_max":1350,"o":"m 210 -125 q 76 180 114 21 q 39 528 39 339 q 76 875 39 715 q 210 1181 114 1035 l 300 1158 q 229 1013 257 1086 q 185 860 201 939 q 162 699 168 782 q 156 528 156 617 q 163 356 156 439 q 185 195 169 274 q 229 43 201 117 q 300 -103 257 -31 l 210 -125 m 669 -12 q 469 28 551 -12 q 336 131 388 68 l 432 258 q 530 184 475 214 q 649 154 585 154 q 769 190 724 154 q 814 292 814 225 q 801 357 814 328 q 758 406 789 386 q 676 438 728 426 q 543 449 624 449 l 543 596 q 656 607 610 596 q 729 638 701 618 q 769 685 757 658 q 782 744 782 713 q 749 837 782 804 q 656 869 715 869 q 559 846 603 869 q 474 778 515 822 l 368 903 q 503 996 431 961 q 664 1031 576 1031 q 796 1013 736 1031 q 898 961 856 996 q 963 876 940 926 q 986 761 986 826 q 942 623 986 679 q 814 533 897 567 l 814 526 q 962 440 906 503 q 1018 278 1018 378 q 990 154 1018 208 q 915 63 963 100 q 804 7 868 26 q 669 -12 740 -12 m 1089 -103 q 1160 43 1132 -31 q 1203 195 1188 117 q 1226 356 1219 274 q 1233 528 1233 439 q 1227 699 1233 617 q 1204 860 1221 782 q 1160 1013 1188 939 q 1089 1158 1132 1086 l 1179 1181 q 1313 875 1275 1035 q 1350 528 1350 715 q 1313 180 1350 339 q 1179 -125 1275 21 l 1089 -103 z "},"⑷":{"ha":1389,"x_min":39,"x_max":1350,"o":"m 300 1158 q 229 1013 257 1086 q 185 860 201 939 q 162 699 168 782 q 156 528 156 617 q 163 356 156 439 q 185 195 169 274 q 229 43 201 117 q 300 -103 257 -31 l 210 -125 q 76 180 114 21 q 39 528 39 339 q 76 875 39 715 q 210 1181 114 1035 l 300 1158 m 738 414 l 738 621 q 740 724 738 667 q 744 832 742 782 l 738 832 q 702 749 718 789 q 663 667 686 710 l 515 414 l 738 414 m 928 414 l 1049 414 l 1049 257 l 928 257 l 928 6 l 738 6 l 738 257 l 322 257 l 322 397 l 690 1013 l 928 1013 l 928 414 m 1179 1181 q 1313 875 1275 1035 q 1350 528 1350 715 q 1313 180 1350 339 q 1179 -125 1275 21 l 1089 -103 q 1160 43 1132 -31 q 1203 195 1188 117 q 1226 356 1219 274 q 1233 528 1233 439 q 1227 699 1233 617 q 1204 860 1221 782 q 1160 1013 1188 939 q 1089 1158 1132 1086 l 1179 1181 z "},"⑸":{"ha":1389,"x_min":39,"x_max":1350,"o":"m 210 -125 q 76 180 114 21 q 39 528 39 339 q 76 875 39 715 q 210 1181 114 1035 l 300 1158 q 229 1013 257 1086 q 185 860 201 939 q 162 699 168 782 q 156 528 156 617 q 163 356 156 439 q 185 195 169 274 q 229 43 201 117 q 300 -103 257 -31 l 210 -125 m 669 -14 q 471 28 553 -14 q 333 128 389 69 l 429 257 q 522 183 469 213 q 642 153 575 153 q 767 199 718 153 q 815 331 815 246 q 769 459 815 414 q 653 504 724 504 q 580 492 610 504 q 508 450 550 479 l 415 510 l 444 1013 l 974 1013 l 974 840 l 621 840 l 601 619 q 660 642 632 635 q 725 649 689 649 q 839 630 785 649 q 933 572 893 611 q 997 475 974 533 q 1021 336 1021 417 q 992 188 1021 253 q 914 77 963 122 q 802 9 865 32 q 669 -14 739 -14 m 1089 -103 q 1160 43 1132 -31 q 1203 195 1188 117 q 1226 356 1219 274 q 1233 528 1233 439 q 1227 699 1233 617 q 1204 860 1221 782 q 1160 1013 1188 939 q 1089 1158 1132 1086 l 1179 1181 q 1313 875 1275 1035 q 1350 528 1350 715 q 1313 180 1350 339 q 1179 -125 1275 21 l 1089 -103 z "},"⑹":{"ha":1389,"x_min":39,"x_max":1350,"o":"m 300 1158 q 229 1013 257 1086 q 185 860 201 939 q 162 699 168 782 q 156 528 156 617 q 163 356 156 439 q 185 195 169 274 q 229 43 201 117 q 300 -103 257 -31 l 210 -125 q 76 180 114 21 q 39 528 39 339 q 76 875 39 715 q 210 1181 114 1035 l 300 1158 m 718 143 q 810 187 772 143 q 849 319 849 231 q 812 446 849 407 q 713 485 775 485 q 635 461 676 485 q 557 378 593 438 q 615 197 571 250 q 718 143 658 143 m 913 792 q 846 844 888 824 q 761 864 804 864 q 683 847 719 864 q 618 789 646 829 q 572 683 590 749 q 551 521 554 617 q 597 568 572 547 q 649 603 622 589 q 702 624 675 617 q 753 631 729 631 q 866 612 814 631 q 956 555 918 593 q 1016 458 994 517 q 1038 319 1038 399 q 1013 181 1038 242 q 944 76 988 119 q 844 10 901 33 q 722 -12 786 -12 q 587 16 651 -12 q 473 105 522 44 q 394 259 424 165 q 364 482 364 353 q 396 730 364 626 q 481 900 428 833 q 603 999 533 967 q 747 1031 672 1031 q 908 997 840 1031 q 1021 914 976 963 l 913 792 m 1179 1181 q 1313 875 1275 1035 q 1350 528 1350 715 q 1313 180 1350 339 q 1179 -125 1275 21 l 1089 -103 q 1160 43 1132 -31 q 1203 194 1188 117 q 1226 355 1219 272 q 1233 528 1233 438 q 1227 699 1233 617 q 1204 860 1221 782 q 1160 1013 1188 939 q 1089 1158 1132 1086 l 1179 1181 z "},"⑺":{"ha":1389,"x_min":39,"x_max":1350,"o":"m 210 -125 q 76 180 114 21 q 39 528 39 339 q 76 875 39 715 q 210 1181 114 1035 l 300 1158 q 229 1013 257 1086 q 185 860 201 939 q 162 699 168 782 q 156 528 156 617 q 163 356 156 439 q 185 195 169 274 q 229 43 201 117 q 300 -103 257 -31 l 210 -125 m 538 6 q 559 245 543 136 q 605 452 575 354 q 681 644 635 550 q 794 840 728 739 l 374 840 l 374 1013 l 1013 1013 l 1013 886 q 881 682 931 778 q 802 485 831 586 q 760 268 774 383 q 742 6 747 153 l 538 6 m 1089 -103 q 1160 43 1132 -31 q 1203 195 1188 117 q 1226 356 1219 274 q 1233 528 1233 439 q 1227 699 1233 617 q 1204 860 1221 782 q 1160 1013 1188 939 q 1089 1158 1132 1086 l 1179 1181 q 1313 875 1275 1035 q 1350 528 1350 715 q 1313 180 1350 339 q 1179 -125 1275 21 l 1089 -103 z "},"⑻":{"ha":1389,"x_min":39,"x_max":1350,"o":"m 210 -125 q 76 180 114 21 q 39 528 39 339 q 76 875 39 715 q 210 1181 114 1035 l 300 1158 q 229 1013 257 1086 q 185 860 201 939 q 162 699 168 782 q 156 528 156 617 q 163 356 156 439 q 185 195 169 274 q 229 43 201 117 q 300 -103 257 -31 l 210 -125 m 694 -12 q 556 8 619 -12 q 447 65 493 28 q 376 151 401 101 q 350 263 350 201 q 364 349 350 310 q 402 418 378 388 q 458 473 426 449 q 525 517 489 497 l 525 524 q 427 624 465 568 q 389 760 389 681 q 412 872 389 822 q 476 958 435 922 q 575 1012 518 993 q 699 1031 632 1031 q 822 1011 767 1031 q 917 956 878 992 q 977 871 956 921 q 999 760 999 821 q 988 691 999 724 q 958 629 976 658 q 915 576 939 600 q 864 531 890 551 l 864 525 q 933 479 901 504 q 989 423 965 454 q 1026 352 1013 392 q 1039 263 1039 313 q 1015 153 1039 204 q 945 66 990 103 q 836 8 900 29 q 694 -12 772 -12 m 757 581 q 811 661 792 621 q 831 746 831 701 q 795 848 831 808 q 694 888 760 888 q 606 855 642 888 q 569 760 569 822 q 583 700 569 726 q 621 653 596 674 q 681 615 646 632 q 757 581 715 597 m 697 131 q 806 166 764 131 q 847 268 847 201 q 831 333 847 306 q 785 382 814 360 q 714 423 756 404 q 622 463 672 442 q 555 385 582 429 q 528 285 528 342 q 577 172 528 214 q 697 131 626 131 m 1089 -103 q 1160 43 1132 -31 q 1203 195 1188 117 q 1226 356 1219 274 q 1233 528 1233 439 q 1227 699 1233 617 q 1204 860 1221 782 q 1160 1013 1188 939 q 1089 1158 1132 1086 l 1179 1181 q 1313 875 1275 1035 q 1350 528 1350 715 q 1313 180 1350 339 q 1179 -125 1275 21 l 1089 -103 z "},"⑼":{"ha":1389,"x_min":39,"x_max":1350,"o":"m 300 1158 q 229 1013 257 1086 q 185 860 201 939 q 162 699 168 782 q 156 528 156 617 q 163 356 156 439 q 185 195 169 274 q 229 43 201 117 q 300 -103 257 -31 l 210 -125 q 76 180 114 21 q 39 528 39 339 q 76 875 39 715 q 210 1181 114 1035 l 300 1158 m 683 533 q 764 557 722 533 q 840 642 806 581 q 783 823 826 769 q 681 876 739 876 q 587 832 625 876 q 549 699 549 788 q 586 572 549 611 q 683 533 624 533 m 486 228 q 553 175 511 196 q 636 154 594 154 q 715 172 678 154 q 779 229 751 189 q 825 335 807 269 q 846 499 843 401 q 750 417 806 446 q 646 388 694 388 q 531 406 583 388 q 442 464 479 425 q 383 561 404 503 q 361 699 361 619 q 386 837 361 775 q 454 942 411 899 q 554 1008 497 985 q 675 1031 611 1031 q 810 1002 746 1031 q 924 913 875 974 q 1003 760 974 853 q 1033 538 1033 667 q 1001 289 1033 393 q 917 118 969 185 q 794 19 864 51 q 650 -12 725 -12 q 489 22 558 -12 q 375 106 419 57 l 486 228 m 1179 1181 q 1313 875 1275 1035 q 1350 528 1350 715 q 1313 180 1350 339 q 1179 -125 1275 21 l 1089 -103 q 1160 43 1132 -31 q 1203 195 1188 117 q 1226 356 1219 274 q 1233 528 1233 439 q 1227 699 1233 617 q 1204 860 1221 782 q 1160 1013 1188 939 q 1089 1158 1132 1086 l 1179 1181 z "},"⑽":{"ha":1389,"x_min":39,"x_max":1350,"o":"m 1089 -103 q 1160 43 1132 -31 q 1203 195 1188 117 q 1226 356 1219 274 q 1233 528 1233 439 q 1227 699 1233 617 q 1204 860 1221 782 q 1160 1013 1188 939 q 1089 1158 1132 1086 l 1179 1181 q 1313 875 1275 1035 q 1350 528 1350 715 q 1313 180 1350 339 q 1179 -125 1275 21 l 1089 -103 m 892 132 q 930 151 913 132 q 959 213 947 169 q 978 331 971 257 q 985 514 985 404 q 978 696 985 624 q 959 810 971 768 q 930 869 947 853 q 892 886 913 886 q 856 869 872 886 q 826 810 839 853 q 807 696 814 768 q 800 514 800 624 q 807 331 800 404 q 826 213 814 257 q 856 151 839 169 q 892 132 872 132 m 892 -12 q 793 16 838 -12 q 716 108 749 44 q 665 271 683 171 q 647 514 647 371 q 665 756 647 657 q 716 915 683 854 q 793 1003 749 976 q 892 1031 838 1031 q 990 1003 946 1031 q 1067 915 1035 976 q 1117 756 1099 854 q 1135 514 1135 657 q 1117 271 1135 371 q 1067 108 1099 171 q 990 16 1035 44 q 892 -12 946 -12 m 408 819 l 276 819 l 276 925 q 386 960 342 939 q 474 1013 431 982 l 560 1013 l 560 6 l 408 6 l 408 819 m 210 -125 q 76 180 114 21 q 39 528 39 339 q 76 875 39 715 q 210 1181 114 1035 l 300 1158 q 229 1013 257 1086 q 185 860 201 939 q 162 699 168 782 q 156 528 156 617 q 163 356 156 439 q 185 195 169 274 q 229 43 201 117 q 300 -103 257 -31 l 210 -125 z "},"⑾":{"ha":1389,"x_min":39,"x_max":1350,"o":"m 1089 -103 q 1160 43 1132 -31 q 1203 195 1188 117 q 1226 356 1219 274 q 1233 528 1233 439 q 1227 699 1233 617 q 1204 860 1221 782 q 1160 1013 1188 939 q 1089 1158 1132 1086 l 1179 1181 q 1313 875 1275 1035 q 1350 528 1350 715 q 1313 180 1350 339 q 1179 -125 1275 21 l 1089 -103 m 861 819 l 728 819 l 728 925 q 838 960 793 939 q 926 1013 882 982 l 1011 1013 l 1011 6 l 861 6 l 861 819 m 460 819 l 326 819 l 326 925 q 436 960 392 939 q 525 1013 481 982 l 610 1013 l 610 6 l 460 6 l 460 819 m 210 -125 q 76 180 114 21 q 39 528 39 339 q 76 875 39 715 q 210 1181 114 1035 l 300 1158 q 229 1013 257 1086 q 185 860 201 939 q 162 699 168 782 q 156 528 156 617 q 163 356 156 439 q 185 195 169 274 q 229 43 201 117 q 300 -103 257 -31 l 210 -125 z "},"⑿":{"ha":1389,"x_min":39,"x_max":1350,"o":"m 1089 -103 q 1160 43 1132 -31 q 1203 195 1188 117 q 1226 356 1219 274 q 1233 528 1233 439 q 1227 699 1233 617 q 1204 860 1221 782 q 1160 1013 1188 939 q 1089 1158 1132 1086 l 1179 1181 q 1313 875 1275 1035 q 1350 528 1350 715 q 1313 180 1350 339 q 1179 -125 1275 21 l 1089 -103 m 644 124 q 870 476 792 322 q 949 738 949 629 q 923 853 949 817 q 847 890 897 890 q 778 866 811 890 q 717 806 744 842 l 628 896 q 732 994 681 957 q 858 1031 783 1031 q 1028 952 965 1031 q 1090 742 1090 874 q 1071 608 1090 679 q 1018 460 1051 536 q 940 304 985 383 q 843 146 894 225 q 913 153 875 150 q 978 156 950 156 l 1117 156 l 1117 6 l 644 6 l 644 124 m 408 819 l 276 819 l 276 925 q 386 960 342 939 q 474 1013 431 982 l 560 1013 l 560 6 l 408 6 l 408 819 m 210 -125 q 76 180 114 21 q 39 528 39 339 q 76 875 39 715 q 210 1181 114 1035 l 300 1158 q 229 1013 257 1086 q 185 860 201 939 q 162 699 168 782 q 156 528 156 617 q 163 356 156 439 q 185 195 169 274 q 229 43 201 117 q 300 -103 257 -31 l 210 -125 z "},"⒀":{"ha":1389,"x_min":39,"x_max":1350,"o":"m 1089 -103 q 1160 43 1132 -31 q 1203 195 1188 117 q 1226 356 1219 274 q 1233 528 1233 439 q 1227 699 1233 617 q 1204 860 1221 782 q 1160 1013 1188 939 q 1089 1158 1132 1086 l 1179 1181 q 1313 875 1275 1035 q 1350 528 1350 715 q 1313 180 1350 339 q 1179 -125 1275 21 l 1089 -103 m 950 526 q 1073 440 1025 503 q 1121 278 1121 378 q 1100 154 1121 208 q 1042 63 1079 100 q 957 7 1006 26 q 854 -12 908 -12 q 713 17 771 -12 q 619 93 656 47 l 704 204 q 766 153 732 174 q 844 132 800 132 q 934 169 897 132 q 971 278 971 207 q 922 408 971 360 q 760 456 874 456 l 760 589 q 903 637 861 589 q 946 760 946 685 q 919 856 946 822 q 844 890 893 890 q 788 876 813 890 q 738 832 763 861 l 644 940 q 740 1007 690 983 q 849 1031 789 1031 q 1030 961 963 1031 q 1097 761 1097 892 q 1059 622 1097 679 q 950 533 1021 565 l 950 526 m 408 819 l 276 819 l 276 925 q 386 960 342 939 q 474 1013 431 982 l 560 1013 l 560 6 l 408 6 l 408 819 m 210 -125 q 76 180 114 21 q 39 528 39 339 q 76 875 39 715 q 210 1181 114 1035 l 300 1158 q 229 1013 257 1086 q 185 860 201 939 q 162 699 168 782 q 156 528 156 617 q 163 356 156 439 q 185 195 169 274 q 229 43 201 117 q 300 -103 257 -31 l 210 -125 z "},"⒁":{"ha":1389,"x_min":39,"x_max":1350,"o":"m 300 1158 q 229 1013 257 1086 q 185 860 201 939 q 162 699 168 782 q 156 528 156 617 q 163 356 156 439 q 185 195 169 274 q 229 43 201 117 q 300 -103 257 -31 l 210 -125 q 76 180 114 21 q 39 528 39 339 q 76 875 39 715 q 210 1181 114 1035 l 300 1158 m 276 925 q 386 960 342 939 q 474 1013 431 982 l 560 1013 l 560 6 l 408 6 l 408 819 l 276 819 l 276 925 m 918 414 l 918 614 q 919 665 918 636 q 920 722 919 693 q 922 780 921 751 q 924 832 922 808 l 919 832 q 892 749 906 789 q 863 665 878 710 l 757 414 l 918 414 m 1054 278 l 1054 6 l 918 6 l 918 278 l 625 278 l 625 397 l 897 1013 l 1054 1013 l 1054 414 l 1144 414 l 1144 278 l 1054 278 m 1179 1181 q 1313 875 1275 1035 q 1350 528 1350 715 q 1313 180 1350 339 q 1179 -125 1275 21 l 1089 -103 q 1160 43 1132 -31 q 1203 195 1188 117 q 1226 356 1219 274 q 1233 528 1233 439 q 1227 699 1233 617 q 1204 860 1221 782 q 1160 1013 1188 939 q 1089 1158 1132 1086 l 1179 1181 z "},"⒂":{"ha":1389,"x_min":39,"x_max":1350,"o":"m 1089 -103 q 1160 43 1132 -31 q 1203 195 1188 117 q 1226 356 1219 274 q 1233 528 1233 439 q 1227 699 1233 617 q 1204 860 1221 782 q 1160 1013 1188 939 q 1089 1158 1132 1086 l 1179 1181 q 1313 875 1275 1035 q 1350 528 1350 715 q 1313 180 1350 339 q 1179 -125 1275 21 l 1089 -103 m 804 608 q 848 631 828 624 q 893 638 868 638 q 978 619 938 638 q 1048 565 1018 601 q 1096 471 1078 528 q 1114 336 1114 414 q 1093 188 1114 253 q 1038 77 1072 122 q 959 9 1004 32 q 864 -14 914 -14 q 717 17 776 -14 q 615 93 657 49 l 700 203 q 760 152 728 172 q 833 132 793 132 q 928 183 893 132 q 963 331 963 235 q 932 467 963 418 q 856 515 901 515 q 807 503 828 515 q 761 465 786 490 l 672 517 l 694 1013 l 1069 1013 l 1069 863 l 817 863 l 804 608 m 408 819 l 276 819 l 276 925 q 386 960 342 939 q 474 1013 431 982 l 560 1013 l 560 6 l 408 6 l 408 819 m 210 -125 q 76 180 114 21 q 39 528 39 339 q 76 875 39 715 q 210 1181 114 1035 l 300 1158 q 229 1013 257 1086 q 185 860 201 939 q 162 699 168 782 q 156 528 156 617 q 163 356 156 439 q 185 195 169 274 q 229 43 201 117 q 300 -103 257 -31 l 210 -125 z "},"⒜":{"ha":1389,"x_min":39,"x_max":1350,"o":"m 210 -125 q 76 180 114 21 q 39 528 39 339 q 76 875 39 715 q 210 1181 114 1035 l 300 1158 q 229 1013 257 1086 q 185 860 201 939 q 162 699 168 782 q 156 528 156 617 q 163 356 156 439 q 185 195 169 274 q 229 43 201 117 q 300 -103 257 -31 l 210 -125 m 589 114 q 498 131 539 114 q 428 179 457 149 q 383 253 399 210 q 367 346 367 296 q 469 538 367 468 q 794 632 571 607 q 767 728 793 690 q 672 767 740 767 q 571 746 621 767 q 471 692 521 725 l 396 829 q 542 901 463 872 q 713 931 622 931 q 928 845 856 931 q 1001 586 1001 760 l 1001 133 l 833 133 l 818 215 l 813 215 q 708 142 764 171 q 589 114 653 114 m 656 275 q 728 294 696 275 q 794 350 761 314 l 794 507 q 615 451 665 489 q 564 361 564 414 q 590 296 564 317 q 656 275 615 275 m 1089 -103 q 1160 43 1132 -31 q 1203 195 1188 117 q 1226 356 1219 274 q 1233 528 1233 439 q 1227 699 1233 617 q 1204 860 1221 782 q 1160 1013 1188 939 q 1089 1158 1132 1086 l 1179 1181 q 1313 875 1275 1035 q 1350 528 1350 715 q 1313 180 1350 339 q 1179 -125 1275 21 l 1089 -103 z "},"⒝":{"ha":1389,"x_min":39,"x_max":1350,"o":"m 210 -125 q 76 180 114 21 q 39 528 39 339 q 76 875 39 715 q 210 1181 114 1035 l 300 1158 q 229 1013 257 1086 q 185 860 201 939 q 162 699 168 782 q 156 528 156 617 q 163 356 156 439 q 185 195 169 274 q 229 43 201 117 q 300 -103 257 -31 l 210 -125 m 769 -3 q 674 22 722 -3 q 581 97 625 47 l 575 97 l 560 15 l 397 15 l 397 1128 l 604 1128 l 604 847 l 597 721 q 690 788 640 763 q 792 814 740 814 q 913 786 860 814 q 1003 706 967 758 q 1060 581 1040 654 q 1079 419 1079 508 q 1053 241 1079 319 q 985 108 1028 163 q 885 26 942 54 q 769 -3 829 -3 m 724 165 q 826 226 785 165 q 868 415 868 288 q 837 587 868 528 q 736 646 806 646 q 670 626 701 646 q 604 567 639 607 l 604 224 q 665 178 635 192 q 724 165 696 165 m 1089 -103 q 1160 43 1132 -31 q 1203 195 1188 117 q 1226 356 1219 274 q 1233 528 1233 439 q 1227 699 1233 617 q 1204 860 1221 782 q 1160 1013 1188 939 q 1089 1158 1132 1086 l 1179 1181 q 1313 875 1275 1035 q 1350 528 1350 715 q 1313 180 1350 339 q 1179 -125 1275 21 l 1089 -103 z "},"⒞":{"ha":1389,"x_min":39,"x_max":1350,"o":"m 210 -125 q 76 180 114 21 q 39 528 39 339 q 76 875 39 715 q 210 1181 114 1035 l 300 1158 q 229 1013 257 1086 q 185 860 201 939 q 162 699 168 782 q 156 528 156 617 q 163 356 156 439 q 185 195 169 274 q 229 43 201 117 q 300 -103 257 -31 l 210 -125 m 753 114 q 603 142 672 114 q 482 222 533 169 q 401 350 431 274 q 372 522 372 426 q 405 696 372 619 q 493 824 438 772 q 620 903 549 876 q 771 931 692 931 q 902 905 846 931 q 999 842 958 879 l 901 714 q 843 751 872 738 q 782 765 814 765 q 638 699 692 765 q 583 522 583 632 q 598 423 583 468 q 638 347 613 378 q 698 298 663 315 q 775 281 733 281 q 858 299 821 281 q 926 343 896 318 l 1011 213 q 886 138 954 163 q 753 114 818 114 m 1089 -103 q 1160 43 1132 -31 q 1203 195 1188 117 q 1226 356 1219 274 q 1233 528 1233 439 q 1227 699 1233 617 q 1204 860 1221 782 q 1160 1013 1188 939 q 1089 1158 1132 1086 l 1179 1181 q 1313 875 1275 1035 q 1350 528 1350 715 q 1313 180 1350 339 q 1179 -125 1275 21 l 1089 -103 z "},"⒟":{"ha":1389,"x_min":39,"x_max":1350,"o":"m 210 -125 q 76 180 114 21 q 39 528 39 339 q 76 875 39 715 q 210 1181 114 1035 l 300 1158 q 229 1013 257 1086 q 185 860 201 939 q 162 699 168 782 q 156 528 156 617 q 163 356 156 439 q 185 195 169 274 q 229 43 201 117 q 300 -103 257 -31 l 210 -125 m 610 -3 q 487 25 542 -3 q 393 106 432 53 q 333 234 354 158 q 313 406 313 310 q 338 577 313 501 q 406 706 364 653 q 503 786 449 758 q 617 814 558 814 q 717 792 675 814 q 794 731 758 769 l 789 853 l 789 1128 l 994 1128 l 994 15 l 825 15 l 810 96 l 806 96 q 716 26 768 54 q 610 -3 664 -3 m 663 165 q 728 184 699 165 q 789 244 758 203 l 789 589 q 726 633 757 619 q 664 646 696 646 q 565 585 606 646 q 524 407 524 525 q 560 225 524 285 q 663 165 596 165 m 1089 -103 q 1160 43 1132 -31 q 1203 195 1188 117 q 1226 356 1219 274 q 1233 528 1233 439 q 1227 699 1233 617 q 1204 860 1221 782 q 1160 1013 1188 939 q 1089 1158 1132 1086 l 1179 1181 q 1313 875 1275 1035 q 1350 528 1350 715 q 1313 180 1350 339 q 1179 -125 1275 21 l 1089 -103 z "},"⒠":{"ha":1389,"x_min":39,"x_max":1350,"o":"m 210 -125 q 76 180 114 21 q 39 528 39 339 q 76 875 39 715 q 210 1181 114 1035 l 300 1158 q 229 1013 257 1086 q 185 860 201 939 q 162 699 168 782 q 156 528 156 617 q 163 356 156 439 q 185 195 169 274 q 229 43 201 117 q 300 -103 257 -31 l 210 -125 m 740 114 q 596 142 663 114 q 479 222 529 169 q 401 350 429 274 q 372 522 372 426 q 401 692 372 617 q 477 821 429 768 q 587 902 525 874 q 715 931 649 931 q 847 903 790 931 q 943 826 904 875 q 1001 708 982 776 q 1021 558 1021 639 q 1018 507 1021 531 q 1013 469 1015 483 l 572 469 q 636 321 585 369 q 767 272 688 272 q 848 286 811 272 q 922 325 885 300 l 992 201 q 874 137 939 160 q 740 114 808 114 m 844 596 q 815 727 844 679 q 719 775 785 775 q 622 731 664 775 q 569 596 581 686 l 844 596 m 1089 -103 q 1160 43 1132 -31 q 1203 195 1188 117 q 1226 356 1219 274 q 1233 528 1233 439 q 1227 699 1233 617 q 1204 860 1221 782 q 1160 1013 1188 939 q 1089 1158 1132 1086 l 1179 1181 q 1313 875 1275 1035 q 1350 528 1350 715 q 1313 180 1350 339 q 1179 -125 1275 21 l 1089 -103 z "},"⒡":{"ha":1389,"x_min":39,"x_max":1350,"o":"m 300 1158 q 229 1013 257 1086 q 185 860 201 939 q 162 699 168 782 q 156 528 156 617 q 163 356 156 439 q 185 195 169 274 q 229 43 201 117 q 300 -103 257 -31 l 210 -125 q 76 180 114 21 q 39 528 39 339 q 76 875 39 715 q 210 1181 114 1035 l 300 1158 m 504 858 q 519 971 504 918 q 566 1063 533 1024 q 651 1125 599 1103 q 776 1147 703 1147 q 860 1138 822 1147 q 925 1118 899 1129 l 886 967 q 806 983 846 983 q 735 956 760 983 q 710 863 710 928 l 710 796 l 857 796 l 857 633 l 710 633 l 710 15 l 504 15 l 504 633 l 400 633 l 400 788 l 504 794 l 504 858 m 1179 1181 q 1313 875 1275 1035 q 1350 528 1350 715 q 1313 180 1350 339 q 1179 -125 1275 21 l 1089 -103 q 1160 43 1132 -31 q 1203 195 1188 117 q 1226 356 1219 274 q 1233 528 1233 439 q 1227 699 1233 617 q 1204 860 1221 782 q 1160 1013 1188 939 q 1089 1158 1132 1086 l 1179 1181 z "},"⒢":{"ha":1389,"x_min":39,"x_max":1350,"o":"m 210 -125 q 76 180 114 21 q 39 528 39 339 q 76 875 39 715 q 210 1181 114 1035 l 300 1158 q 229 1013 257 1086 q 185 860 201 939 q 162 699 168 782 q 156 528 156 617 q 163 356 156 439 q 185 195 169 274 q 229 43 201 117 q 300 -103 257 -31 l 210 -125 m 663 -60 q 556 -49 606 -60 q 471 -14 507 -37 q 414 45 435 10 q 393 131 393 81 q 418 216 393 178 q 490 285 443 254 l 490 290 q 441 340 461 311 q 421 414 421 369 q 446 492 421 456 q 507 556 471 529 l 507 561 q 435 641 467 590 q 403 758 403 692 q 426 876 403 825 q 488 961 449 926 q 577 1013 526 996 q 683 1031 628 1031 q 728 1026 707 1031 q 769 1013 750 1022 l 1028 1013 l 1028 863 l 915 863 q 940 815 929 843 q 951 753 951 786 q 931 639 951 688 q 873 558 910 590 q 788 510 836 526 q 683 494 739 494 q 653 498 672 494 q 615 508 635 501 q 594 483 603 494 q 585 451 585 471 q 601 410 585 424 q 664 396 618 396 l 750 396 q 956 351 886 396 q 1026 207 1026 307 q 1001 101 1026 150 q 929 17 976 53 q 815 -40 882 -19 q 663 -60 747 -60 m 683 619 q 754 656 726 619 q 782 758 782 692 q 754 858 782 824 q 683 892 726 892 q 614 858 642 892 q 586 758 586 824 q 615 656 586 692 q 683 619 643 619 m 694 69 q 792 99 754 69 q 831 168 831 128 q 801 222 831 208 q 715 235 771 235 l 667 235 q 603 246 626 235 q 564 158 564 208 q 599 93 564 117 q 694 69 633 69 m 1089 -103 q 1160 43 1132 -31 q 1203 195 1188 117 q 1226 356 1219 274 q 1233 528 1233 439 q 1227 699 1233 617 q 1204 860 1221 782 q 1160 1013 1188 939 q 1089 1158 1132 1086 l 1179 1181 q 1313 875 1275 1035 q 1350 528 1350 715 q 1313 180 1350 339 q 1179 -125 1275 21 l 1089 -103 z "},"⒣":{"ha":1389,"x_min":39,"x_max":1350,"o":"m 210 -125 q 76 180 114 21 q 39 528 39 339 q 76 875 39 715 q 210 1181 114 1035 l 300 1158 q 229 1013 257 1086 q 185 860 201 939 q 162 699 168 782 q 156 528 156 617 q 163 356 156 439 q 185 195 169 274 q 229 43 201 117 q 300 -103 257 -31 l 210 -125 m 382 1128 l 588 1128 l 588 847 l 576 700 q 625 742 600 722 q 679 778 650 763 q 741 804 708 794 q 813 814 774 814 q 988 732 933 814 q 1043 503 1043 650 l 1043 15 l 838 15 l 838 475 q 815 603 838 567 q 739 640 792 640 q 661 617 694 640 q 588 553 628 593 l 588 15 l 382 15 l 382 1128 m 1089 -103 q 1160 43 1132 -31 q 1203 195 1188 117 q 1226 356 1219 274 q 1233 528 1233 439 q 1227 699 1233 617 q 1204 860 1221 782 q 1160 1013 1188 939 q 1089 1158 1132 1086 l 1179 1181 q 1313 875 1275 1035 q 1350 528 1350 715 q 1313 180 1350 339 q 1179 -125 1275 21 l 1089 -103 z "},"⒤":{"ha":1389,"x_min":39,"x_max":1350,"o":"m 210 -125 q 76 180 114 21 q 39 528 39 339 q 76 875 39 715 q 210 1181 114 1035 l 300 1158 q 229 1013 257 1086 q 185 860 201 939 q 162 699 168 782 q 156 528 156 617 q 163 356 156 439 q 185 195 169 274 q 229 43 201 117 q 300 -103 257 -31 l 210 -125 m 592 796 l 799 796 l 799 15 l 592 15 l 592 796 m 694 922 q 607 953 642 922 q 572 1033 572 985 q 607 1113 572 1082 q 694 1144 642 1144 q 783 1113 747 1144 q 818 1033 818 1082 q 783 953 818 985 q 694 922 747 922 m 1089 -103 q 1160 43 1132 -31 q 1203 195 1188 117 q 1226 356 1219 274 q 1233 528 1233 439 q 1227 699 1233 617 q 1204 860 1221 782 q 1160 1013 1188 939 q 1089 1158 1132 1086 l 1179 1181 q 1313 875 1275 1035 q 1350 528 1350 715 q 1313 180 1350 339 q 1179 -125 1275 21 l 1089 -103 z "},"⒥":{"ha":1389,"x_min":39,"x_max":1350,"o":"m 210 -125 q 76 180 114 21 q 39 528 39 339 q 76 875 39 715 q 210 1181 114 1035 l 300 1158 q 229 1013 257 1086 q 185 860 201 939 q 162 699 168 782 q 156 528 156 617 q 163 356 156 439 q 185 195 169 274 q 229 43 201 117 q 300 -103 257 -31 l 210 -125 m 565 -218 q 488 -212 519 -218 q 432 -197 456 -206 l 468 -44 q 501 -53 485 -50 q 533 -56 517 -56 q 602 -22 583 -56 q 621 78 621 11 l 621 881 l 825 881 l 825 82 q 812 -35 825 19 q 769 -131 799 -90 q 689 -195 739 -172 q 565 -218 639 -218 m 724 1007 q 635 1038 669 1007 q 600 1118 600 1069 q 635 1198 600 1167 q 724 1229 669 1229 q 810 1198 776 1229 q 844 1118 844 1167 q 810 1038 844 1069 q 724 1007 776 1007 m 1089 -103 q 1160 43 1132 -31 q 1203 195 1188 117 q 1226 356 1219 274 q 1233 528 1233 439 q 1227 699 1233 617 q 1204 860 1221 782 q 1160 1013 1188 939 q 1089 1158 1132 1086 l 1179 1181 q 1313 875 1275 1035 q 1350 528 1350 715 q 1313 180 1350 339 q 1179 -125 1275 21 l 1089 -103 z "},"⒦":{"ha":1389,"x_min":39,"x_max":1350,"o":"m 210 -125 q 76 180 114 21 q 39 528 39 339 q 76 875 39 715 q 210 1181 114 1035 l 300 1158 q 229 1013 257 1086 q 185 860 201 939 q 162 699 168 782 q 156 528 156 617 q 163 356 156 439 q 185 195 169 274 q 229 43 201 117 q 300 -103 257 -31 l 210 -125 m 378 1128 l 579 1128 l 579 460 l 585 460 l 813 796 l 1036 796 l 797 476 l 1060 15 l 836 15 l 679 339 l 579 210 l 579 15 l 378 15 l 378 1128 m 1089 -103 q 1160 43 1132 -31 q 1203 195 1188 117 q 1226 356 1219 274 q 1233 528 1233 439 q 1227 699 1233 617 q 1204 860 1221 782 q 1160 1013 1188 939 q 1089 1158 1132 1086 l 1179 1181 q 1313 875 1275 1035 q 1350 528 1350 715 q 1313 180 1350 339 q 1179 -125 1275 21 l 1089 -103 z "},"⒧":{"ha":1389,"x_min":39,"x_max":1350,"o":"m 210 -125 q 76 180 114 21 q 39 528 39 339 q 76 875 39 715 q 210 1181 114 1035 l 300 1158 q 229 1013 257 1086 q 185 860 201 939 q 162 699 168 782 q 156 528 156 617 q 163 356 156 439 q 185 195 169 274 q 229 43 201 117 q 300 -103 257 -31 l 210 -125 m 779 -3 q 628 62 672 -3 q 585 236 585 126 l 585 1128 l 792 1128 l 792 226 q 804 177 792 190 q 832 164 817 164 q 843 164 838 164 q 860 167 849 164 l 885 14 q 841 2 867 7 q 779 -3 815 -3 m 1089 -103 q 1160 43 1132 -31 q 1203 195 1188 117 q 1226 356 1219 274 q 1233 528 1233 439 q 1227 699 1233 617 q 1204 860 1221 782 q 1160 1013 1188 939 q 1089 1158 1132 1086 l 1179 1181 q 1313 875 1275 1035 q 1350 528 1350 715 q 1313 180 1350 339 q 1179 -125 1275 21 l 1089 -103 z "},"⒨":{"ha":1389,"x_min":39,"x_max":1350,"o":"m 210 -125 q 76 180 114 21 q 39 528 39 339 q 76 875 39 715 q 210 1181 114 1035 l 300 1158 q 229 1013 257 1086 q 185 860 201 939 q 162 699 168 782 q 156 528 156 617 q 163 356 156 439 q 185 195 169 274 q 229 43 201 117 q 300 -103 257 -31 l 210 -125 m 275 913 l 411 913 l 428 838 l 433 838 q 509 903 469 876 q 604 931 549 931 q 697 903 663 931 q 754 824 731 876 q 838 899 794 868 q 939 931 881 931 q 1076 863 1032 931 q 1121 668 1121 794 l 1121 133 l 949 133 l 949 642 q 933 731 949 706 q 885 757 917 757 q 781 697 836 757 l 781 133 l 617 133 l 617 642 q 601 731 617 706 q 553 757 585 757 q 502 743 526 757 q 450 697 478 729 l 450 133 l 275 133 l 275 913 m 1089 -103 q 1160 43 1132 -31 q 1203 195 1188 117 q 1226 356 1219 274 q 1233 528 1233 439 q 1227 699 1233 617 q 1204 860 1221 782 q 1160 1013 1188 939 q 1089 1158 1132 1086 l 1179 1181 q 1313 875 1275 1035 q 1350 528 1350 715 q 1313 180 1350 339 q 1179 -125 1275 21 l 1089 -103 z "},"⒩":{"ha":1389,"x_min":39,"x_max":1350,"o":"m 210 -125 q 76 180 114 21 q 39 528 39 339 q 76 875 39 715 q 210 1181 114 1035 l 300 1158 q 229 1013 257 1086 q 185 860 201 939 q 162 699 168 782 q 156 528 156 617 q 163 356 156 439 q 185 195 169 274 q 229 43 201 117 q 300 -103 257 -31 l 210 -125 m 368 913 l 536 913 l 551 815 l 558 815 q 665 897 607 864 q 800 931 722 931 q 976 850 921 931 q 1031 625 1031 769 l 1031 133 l 825 133 l 825 599 q 801 722 825 686 q 725 757 778 757 q 648 736 681 757 q 575 675 615 715 l 575 133 l 368 133 l 368 913 m 1089 -103 q 1160 43 1132 -31 q 1203 195 1188 117 q 1226 356 1219 274 q 1233 528 1233 439 q 1227 699 1233 617 q 1204 860 1221 782 q 1160 1013 1188 939 q 1089 1158 1132 1086 l 1179 1181 q 1313 875 1275 1035 q 1350 528 1350 715 q 1313 180 1350 339 q 1179 -125 1275 21 l 1089 -103 z "},"⒪":{"ha":1389,"x_min":39,"x_max":1350,"o":"m 210 -125 q 76 180 114 21 q 39 528 39 339 q 76 875 39 715 q 210 1181 114 1035 l 300 1158 q 229 1013 257 1086 q 185 860 201 939 q 162 699 168 782 q 156 528 156 617 q 163 356 156 439 q 185 195 169 274 q 229 43 201 117 q 300 -103 257 -31 l 210 -125 m 694 114 q 558 142 624 114 q 441 222 492 169 q 360 350 390 274 q 331 522 331 426 q 360 696 331 619 q 441 824 390 772 q 558 903 492 876 q 694 931 624 931 q 831 903 765 931 q 948 824 897 876 q 1028 696 999 772 q 1058 522 1058 619 q 1028 350 1058 426 q 948 222 999 274 q 831 142 897 169 q 694 114 765 114 m 694 281 q 808 347 768 281 q 847 522 847 413 q 808 699 847 632 q 694 765 768 765 q 580 699 619 765 q 540 522 540 632 q 580 347 540 413 q 694 281 619 281 m 1089 -103 q 1160 43 1132 -31 q 1203 195 1188 117 q 1226 356 1219 274 q 1233 528 1233 439 q 1227 699 1233 617 q 1204 860 1221 782 q 1160 1013 1188 939 q 1089 1158 1132 1086 l 1179 1181 q 1313 875 1275 1035 q 1350 528 1350 715 q 1313 180 1350 339 q 1179 -125 1275 21 l 1089 -103 z "},"⒫":{"ha":1389,"x_min":39,"x_max":1350,"o":"m 210 -125 q 76 180 114 21 q 39 528 39 339 q 76 875 39 715 q 210 1181 114 1035 l 300 1158 q 229 1013 257 1086 q 185 860 201 939 q 162 699 168 782 q 156 528 156 617 q 163 356 156 439 q 185 195 169 274 q 229 43 201 117 q 300 -103 257 -31 l 210 -125 m 388 1013 l 554 1013 l 571 932 l 576 932 q 678 1002 622 974 q 793 1031 735 1031 q 918 1003 863 1031 q 1012 923 974 975 q 1070 798 1050 871 q 1090 636 1090 725 q 1063 458 1090 536 q 992 325 1036 379 q 890 242 947 271 q 769 214 832 214 q 676 235 721 214 q 586 297 631 257 l 593 172 l 593 -11 l 388 -11 l 388 1013 m 724 383 q 833 444 789 383 q 878 633 878 506 q 844 803 878 744 q 736 863 811 863 q 666 842 699 863 q 593 783 633 822 l 593 442 q 660 397 628 410 q 724 383 693 383 m 1089 -103 q 1160 43 1132 -31 q 1203 195 1188 117 q 1226 356 1219 274 q 1233 528 1233 439 q 1227 699 1233 617 q 1204 860 1221 782 q 1160 1013 1188 939 q 1089 1158 1132 1086 l 1179 1181 q 1313 875 1275 1035 q 1350 528 1350 715 q 1313 180 1350 339 q 1179 -125 1275 21 l 1089 -103 z "},"⒬":{"ha":1389,"x_min":39,"x_max":1350,"o":"m 210 -125 q 76 180 114 21 q 39 528 39 339 q 76 875 39 715 q 210 1181 114 1035 l 300 1158 q 229 1013 257 1086 q 185 860 201 939 q 162 699 168 782 q 156 528 156 617 q 163 356 156 439 q 185 195 169 274 q 229 43 201 117 q 300 -103 257 -31 l 210 -125 m 797 182 l 803 306 q 713 240 764 267 q 608 214 663 214 q 481 242 538 214 q 383 322 424 269 q 321 451 343 375 q 299 622 299 526 q 326 794 299 718 q 397 922 353 869 q 497 1003 440 975 q 615 1031 554 1031 q 724 1008 678 1031 q 818 936 769 985 l 824 936 l 840 1013 l 1001 1013 l 1001 -11 l 797 -11 l 797 182 m 660 383 q 731 402 699 383 q 797 461 763 421 l 797 806 q 728 849 763 836 q 661 863 694 863 q 555 802 599 863 q 511 624 511 742 q 550 442 511 501 q 660 383 589 383 m 1089 -103 q 1160 43 1132 -31 q 1203 195 1188 117 q 1226 356 1219 274 q 1233 528 1233 439 q 1227 699 1233 617 q 1204 860 1221 782 q 1160 1013 1188 939 q 1089 1158 1132 1086 l 1179 1181 q 1313 875 1275 1035 q 1350 528 1350 715 q 1313 180 1350 339 q 1179 -125 1275 21 l 1089 -103 z "},"⒭":{"ha":1389,"x_min":39,"x_max":1350,"o":"m 210 -125 q 76 180 114 21 q 39 528 39 339 q 76 875 39 715 q 210 1181 114 1035 l 300 1158 q 229 1013 257 1086 q 185 860 201 939 q 162 699 168 782 q 156 528 156 617 q 163 356 156 439 q 185 195 169 274 q 229 43 201 117 q 300 -103 257 -31 l 210 -125 m 474 913 l 640 913 l 657 775 l 663 775 q 763 892 704 853 q 883 931 821 931 q 974 915 943 931 l 939 739 q 900 747 918 743 q 857 751 882 751 q 809 743 833 751 q 761 717 785 735 q 717 669 738 699 q 679 597 696 639 l 679 133 l 474 133 l 474 913 m 1089 -103 q 1160 43 1132 -31 q 1203 195 1188 117 q 1226 356 1219 274 q 1233 528 1233 439 q 1227 699 1233 617 q 1204 860 1221 782 q 1160 1013 1188 939 q 1089 1158 1132 1086 l 1179 1181 q 1313 875 1275 1035 q 1350 528 1350 715 q 1313 180 1350 339 q 1179 -125 1275 21 l 1089 -103 z "},"⒮":{"ha":1389,"x_min":39,"x_max":1350,"o":"m 210 -125 q 76 180 114 21 q 39 528 39 339 q 76 875 39 715 q 210 1181 114 1035 l 300 1158 q 229 1013 257 1086 q 185 860 201 939 q 162 699 168 782 q 156 528 156 617 q 163 356 156 439 q 185 195 169 274 q 229 43 201 117 q 300 -103 257 -31 l 210 -125 m 683 114 q 525 144 606 114 q 386 224 444 175 l 479 353 q 583 290 532 313 q 688 267 633 267 q 774 290 747 267 q 801 349 801 313 q 788 387 801 371 q 751 417 774 403 q 699 442 728 431 q 639 465 669 453 q 563 499 601 479 q 494 545 525 518 q 444 608 464 572 q 425 693 425 644 q 445 790 425 746 q 503 865 465 833 q 596 913 542 896 q 717 931 650 931 q 867 902 801 931 q 981 836 933 874 l 889 711 q 807 760 849 742 q 721 778 765 778 q 643 756 668 778 q 618 703 618 735 q 631 667 618 682 q 667 640 644 651 q 717 617 689 628 q 776 596 746 607 q 854 563 815 582 q 924 517 893 544 q 975 452 956 490 q 994 360 994 414 q 974 264 994 308 q 915 186 954 219 q 817 133 875 153 q 683 114 760 114 m 1089 -103 q 1160 43 1132 -31 q 1203 195 1188 117 q 1226 356 1219 274 q 1233 528 1233 439 q 1227 699 1233 617 q 1204 860 1221 782 q 1160 1013 1188 939 q 1089 1158 1132 1086 l 1179 1181 q 1313 875 1275 1035 q 1350 528 1350 715 q 1313 180 1350 339 q 1179 -125 1275 21 l 1089 -103 z "},"⒯":{"ha":1389,"x_min":39,"x_max":1350,"o":"m 210 -125 q 76 180 114 21 q 39 528 39 339 q 76 875 39 715 q 210 1181 114 1035 l 300 1158 q 229 1013 257 1086 q 185 860 201 939 q 162 699 168 782 q 156 528 156 617 q 163 356 156 439 q 185 195 169 274 q 229 43 201 117 q 300 -103 257 -31 l 210 -125 m 797 47 q 678 68 728 47 q 598 128 629 89 q 553 221 567 167 q 539 340 539 275 l 539 683 l 431 683 l 431 839 l 551 846 l 575 1057 l 744 1057 l 744 846 l 938 846 l 938 683 l 744 683 l 744 340 q 772 240 744 272 q 851 208 800 208 q 892 214 871 208 q 929 226 913 219 l 963 76 q 890 56 931 65 q 797 47 849 47 m 1089 -103 q 1160 43 1132 -31 q 1203 195 1188 117 q 1226 356 1219 274 q 1233 528 1233 439 q 1227 699 1233 617 q 1204 860 1221 782 q 1160 1013 1188 939 q 1089 1158 1132 1086 l 1179 1181 q 1313 875 1275 1035 q 1350 528 1350 715 q 1313 180 1350 339 q 1179 -125 1275 21 l 1089 -103 z "},"⒰":{"ha":1389,"x_min":39,"x_max":1350,"o":"m 210 -125 q 76 180 114 21 q 39 528 39 339 q 76 875 39 715 q 210 1181 114 1035 l 300 1158 q 229 1013 257 1086 q 185 860 201 939 q 162 699 168 782 q 156 528 156 617 q 163 356 156 439 q 185 195 169 274 q 229 43 201 117 q 300 -103 257 -31 l 210 -125 m 593 114 q 417 194 472 114 q 363 418 363 275 l 363 913 l 567 913 l 567 446 q 591 324 567 358 q 667 289 615 289 q 743 310 711 289 q 813 381 775 332 l 813 913 l 1018 913 l 1018 133 l 850 133 l 836 239 l 829 239 q 725 147 781 181 q 593 114 669 114 m 1089 -103 q 1160 43 1132 -31 q 1203 195 1188 117 q 1226 356 1219 274 q 1233 528 1233 439 q 1227 699 1233 617 q 1204 860 1221 782 q 1160 1013 1188 939 q 1089 1158 1132 1086 l 1179 1181 q 1313 875 1275 1035 q 1350 528 1350 715 q 1313 180 1350 339 q 1179 -125 1275 21 l 1089 -103 z "},"⒱":{"ha":1389,"x_min":39,"x_max":1350,"o":"m 210 -125 q 76 180 114 21 q 39 528 39 339 q 76 875 39 715 q 210 1181 114 1035 l 300 1158 q 229 1013 257 1086 q 185 860 201 939 q 162 699 168 782 q 156 528 156 617 q 163 356 156 439 q 185 195 169 274 q 229 43 201 117 q 300 -103 257 -31 l 210 -125 m 313 913 l 519 913 l 633 525 q 665 407 649 467 q 697 288 681 347 l 703 288 q 735 407 718 347 q 767 525 751 467 l 879 913 l 1078 913 l 818 133 l 581 133 l 313 913 m 1089 -103 q 1160 43 1132 -31 q 1203 195 1188 117 q 1226 356 1219 274 q 1233 528 1233 439 q 1227 699 1233 617 q 1204 860 1221 782 q 1160 1013 1188 939 q 1089 1158 1132 1086 l 1179 1181 q 1313 875 1275 1035 q 1350 528 1350 715 q 1313 180 1350 339 q 1179 -125 1275 21 l 1089 -103 z "},"⒲":{"ha":1389,"x_min":39,"x_max":1350,"o":"m 210 -125 q 76 180 114 21 q 39 528 39 339 q 76 875 39 715 q 210 1181 114 1035 l 300 1158 q 229 1013 257 1086 q 185 860 201 939 q 162 699 168 782 q 156 528 156 617 q 163 356 156 439 q 185 195 169 274 q 229 43 201 117 q 300 -103 257 -31 l 210 -125 m 229 913 l 413 913 l 467 529 q 481 415 474 471 q 496 300 488 358 l 501 300 q 520 415 513 358 q 538 529 528 472 l 608 913 l 790 913 l 864 529 q 883 415 875 471 q 903 300 890 358 l 908 300 q 924 415 917 358 q 938 529 931 471 l 989 913 l 1160 913 l 1031 133 l 789 133 l 729 474 q 712 582 719 528 q 697 699 704 636 l 690 699 q 675 581 682 636 q 658 471 668 525 l 604 133 l 367 133 l 229 913 m 1089 -103 q 1160 43 1132 -31 q 1203 195 1188 117 q 1226 356 1219 274 q 1233 528 1233 439 q 1227 699 1233 617 q 1204 860 1221 782 q 1160 1013 1188 939 q 1089 1158 1132 1086 l 1179 1181 q 1313 875 1275 1035 q 1350 528 1350 715 q 1313 180 1350 339 q 1179 -125 1275 21 l 1089 -103 z "},"⒳":{"ha":1389,"x_min":39,"x_max":1350,"o":"m 210 -125 q 76 180 114 21 q 39 528 39 339 q 76 875 39 715 q 210 1181 114 1035 l 300 1158 q 229 1013 257 1086 q 185 860 201 939 q 162 699 168 782 q 156 528 156 617 q 163 356 156 439 q 185 195 169 274 q 229 43 201 117 q 300 -103 257 -31 l 210 -125 m 569 539 l 340 913 l 561 913 l 639 775 q 674 709 657 743 q 710 642 692 675 l 715 642 q 744 709 729 675 q 772 775 758 743 l 836 913 l 1050 913 l 822 515 l 1064 133 l 844 133 l 757 275 q 719 343 738 308 q 682 413 701 378 l 675 413 q 642 344 658 378 q 610 275 626 310 l 538 133 l 325 133 l 569 539 m 1089 -103 q 1160 43 1132 -31 q 1203 195 1188 117 q 1226 356 1219 274 q 1233 528 1233 439 q 1227 699 1233 617 q 1204 860 1221 782 q 1160 1013 1188 939 q 1089 1158 1132 1086 l 1179 1181 q 1313 875 1275 1035 q 1350 528 1350 715 q 1313 180 1350 339 q 1179 -125 1275 21 l 1089 -103 z "},"⒴":{"ha":1389,"x_min":39,"x_max":1350,"o":"m 210 -125 q 76 180 114 21 q 39 528 39 339 q 76 875 39 715 q 210 1181 114 1035 l 300 1158 q 229 1013 257 1086 q 185 860 201 939 q 162 699 168 782 q 156 528 156 617 q 163 356 156 439 q 185 195 169 274 q 229 43 201 117 q 300 -103 257 -31 l 210 -125 m 497 -24 q 436 -19 461 -24 q 388 -8 411 -15 l 425 150 q 452 142 436 146 q 482 139 468 139 q 607 213 588 139 l 617 247 l 317 1013 l 524 1013 l 643 653 q 678 544 663 600 q 710 432 693 489 l 715 432 q 744 543 731 488 q 774 653 758 599 l 875 1013 l 1071 1013 l 804 221 q 692 38 763 100 q 497 -24 622 -24 m 1089 -103 q 1160 43 1132 -31 q 1203 195 1188 117 q 1226 356 1219 274 q 1233 528 1233 439 q 1227 699 1233 617 q 1204 860 1221 782 q 1160 1013 1188 939 q 1089 1158 1132 1086 l 1179 1181 q 1313 875 1275 1035 q 1350 528 1350 715 q 1313 180 1350 339 q 1179 -125 1275 21 l 1089 -103 z "}}}
